<?xml version="1.0" encoding="utf-8" standalone="no"?>
<!DOCTYPE svg PUBLIC "-//W3C//DTD SVG 1.1//EN"
  "http://www.w3.org/Graphics/SVG/1.1/DTD/svg11.dtd">
<svg xmlns:xlink="http://www.w3.org/1999/xlink" width="864pt" height="432pt" viewBox="0 0 864 432" xmlns="http://www.w3.org/2000/svg" version="1.1">
 <metadata>
  <rdf:RDF xmlns:dc="http://purl.org/dc/elements/1.1/" xmlns:cc="http://creativecommons.org/ns#" xmlns:rdf="http://www.w3.org/1999/02/22-rdf-syntax-ns#">
   <cc:Work>
    <dc:type rdf:resource="http://purl.org/dc/dcmitype/StillImage"/>
    <dc:date>2026-05-12T21:34:26.867026</dc:date>
    <dc:format>image/svg+xml</dc:format>
    <dc:creator>
     <cc:Agent>
      <dc:title>Matplotlib v3.10.7, https://matplotlib.org/</dc:title>
     </cc:Agent>
    </dc:creator>
   </cc:Work>
  </rdf:RDF>
 </metadata>
 <defs>
  <style type="text/css">*{stroke-linejoin: round; stroke-linecap: butt}</style>
 </defs>
 <g id="figure_1">
  <g id="patch_1">
   <path d="M 0 432 
L 864 432 
L 864 0 
L 0 0 
z
" style="fill: #ffffff"/>
  </g>
  <g id="axes_1">
   <g id="patch_2">
    <path d="M 139.84 384.04 
L 853.2 384.04 
L 853.2 34.45125 
L 139.84 34.45125 
z
" style="fill: #ffffff"/>
   </g>
   <g id="patch_3">
    <path d="M 139.84 50.341648 
L 839.212549 50.341648 
L 839.212549 71.88795 
L 139.84 71.88795 
z
" clip-path="url(#pc2944a33bf)" style="fill: #2f4f4f; opacity: 0.08"/>
   </g>
   <g id="patch_4">
    <path d="M 139.84 77.274525 
L 839.212549 77.274525 
L 839.212549 98.820827 
L 139.84 98.820827 
z
" clip-path="url(#pc2944a33bf)" style="fill: #2f4f4f; opacity: 0.08"/>
   </g>
   <g id="patch_5">
    <path d="M 139.84 104.207403 
L 839.212549 104.207403 
L 839.212549 125.753705 
L 139.84 125.753705 
z
" clip-path="url(#pc2944a33bf)" style="fill: #2f4f4f; opacity: 0.08"/>
   </g>
   <g id="patch_6">
    <path d="M 139.84 131.14028 
L 839.212549 131.14028 
L 839.212549 152.686582 
L 139.84 152.686582 
z
" clip-path="url(#pc2944a33bf)" style="fill: #2f4f4f; opacity: 0.08"/>
   </g>
   <g id="patch_7">
    <path d="M 139.84 158.073158 
L 839.212549 158.073158 
L 839.212549 179.61946 
L 139.84 179.61946 
z
" clip-path="url(#pc2944a33bf)" style="fill: #2f4f4f; opacity: 0.08"/>
   </g>
   <g id="patch_8">
    <path d="M 139.84 185.006035 
L 839.212549 185.006035 
L 839.212549 206.552337 
L 139.84 206.552337 
z
" clip-path="url(#pc2944a33bf)" style="fill: #2f4f4f; opacity: 0.08"/>
   </g>
   <g id="patch_9">
    <path d="M 139.84 211.938913 
L 839.212549 211.938913 
L 839.212549 233.485215 
L 139.84 233.485215 
z
" clip-path="url(#pc2944a33bf)" style="fill: #2f4f4f; opacity: 0.08"/>
   </g>
   <g id="patch_10">
    <path d="M 139.84 238.87179 
L 839.212549 238.87179 
L 839.212549 260.418092 
L 139.84 260.418092 
z
" clip-path="url(#pc2944a33bf)" style="fill: #2f4f4f; opacity: 0.08"/>
   </g>
   <g id="patch_11">
    <path d="M 139.84 265.804668 
L 839.212549 265.804668 
L 839.212549 287.35097 
L 139.84 287.35097 
z
" clip-path="url(#pc2944a33bf)" style="fill: #2f4f4f; opacity: 0.08"/>
   </g>
   <g id="patch_12">
    <path d="M 139.84 292.737545 
L 839.212549 292.737545 
L 839.212549 314.283847 
L 139.84 314.283847 
z
" clip-path="url(#pc2944a33bf)" style="fill: #2f4f4f; opacity: 0.08"/>
   </g>
   <g id="patch_13">
    <path d="M 139.84 319.670423 
L 839.212549 319.670423 
L 839.212549 341.216725 
L 139.84 341.216725 
z
" clip-path="url(#pc2944a33bf)" style="fill: #2f4f4f; opacity: 0.08"/>
   </g>
   <g id="patch_14">
    <path d="M 139.84 346.6033 
L 839.212549 346.6033 
L 839.212549 368.149602 
L 139.84 368.149602 
z
" clip-path="url(#pc2944a33bf)" style="fill: #2f4f4f; opacity: 0.08"/>
   </g>
   <g id="patch_15">
    <path d="M 139.84 50.341648 
L 839.212549 50.341648 
L 839.212549 71.88795 
L 139.84 71.88795 
z
" clip-path="url(#pc2944a33bf)" style="fill: #008b8b; opacity: 0.4"/>
   </g>
   <g id="patch_16">
    <path d="M 139.84 77.274525 
L 770.202171 77.274525 
L 770.202171 98.820827 
L 139.84 98.820827 
z
" clip-path="url(#pc2944a33bf)" style="fill: #008b8b; opacity: 0.4"/>
   </g>
   <g id="patch_17">
    <path d="M 139.84 104.207403 
L 736.951017 104.207403 
L 736.951017 125.753705 
L 139.84 125.753705 
z
" clip-path="url(#pc2944a33bf)" style="fill: #008b8b; opacity: 0.4"/>
   </g>
   <g id="patch_18">
    <path d="M 139.84 131.14028 
L 628.665412 131.14028 
L 628.665412 152.686582 
L 139.84 152.686582 
z
" clip-path="url(#pc2944a33bf)" style="fill: #008b8b; opacity: 0.4"/>
   </g>
   <g id="patch_19">
    <path d="M 139.84 158.073158 
L 563.487392 158.073158 
L 563.487392 179.61946 
L 139.84 179.61946 
z
" clip-path="url(#pc2944a33bf)" style="fill: #008b8b; opacity: 0.4"/>
   </g>
   <g id="patch_20">
    <path d="M 139.84 185.006035 
L 330.834473 185.006035 
L 330.834473 206.552337 
L 139.84 206.552337 
z
" clip-path="url(#pc2944a33bf)" style="fill: #008b8b; opacity: 0.4"/>
   </g>
   <g id="patch_21">
    <path d="M 139.84 211.938913 
L 320.017876 211.938913 
L 320.017876 233.485215 
L 139.84 233.485215 
z
" clip-path="url(#pc2944a33bf)" style="fill: #008b8b; opacity: 0.4"/>
   </g>
   <g id="patch_22">
    <path d="M 139.84 238.87179 
L 318.713944 238.87179 
L 318.713944 260.418092 
L 139.84 260.418092 
z
" clip-path="url(#pc2944a33bf)" style="fill: #008b8b; opacity: 0.4"/>
   </g>
   <g id="patch_23">
    <path d="M 139.84 265.804668 
L 308.08503 265.804668 
L 308.08503 287.35097 
L 139.84 287.35097 
z
" clip-path="url(#pc2944a33bf)" style="fill: #008b8b; opacity: 0.4"/>
   </g>
   <g id="patch_24">
    <path d="M 139.84 292.737545 
L 295.315621 292.737545 
L 295.315621 314.283847 
L 139.84 314.283847 
z
" clip-path="url(#pc2944a33bf)" style="fill: #008b8b; opacity: 0.4"/>
   </g>
   <g id="patch_25">
    <path d="M 139.84 319.670423 
L 244.383634 319.670423 
L 244.383634 341.216725 
L 139.84 341.216725 
z
" clip-path="url(#pc2944a33bf)" style="fill: #008b8b; opacity: 0.4"/>
   </g>
   <g id="patch_26">
    <path d="M 139.84 346.6033 
L 231.697778 346.6033 
L 231.697778 368.149602 
L 139.84 368.149602 
z
" clip-path="url(#pc2944a33bf)" style="fill: #008b8b; opacity: 0.4"/>
   </g>
   <g id="matplotlib.axis_1">
    <g id="xtick_1">
     <g id="line2d_1">
      <path d="M 139.84 384.04 
L 139.84 34.45125 
" clip-path="url(#pc2944a33bf)" style="fill: none; stroke: #b0b0b0; stroke-opacity: 0.2; stroke-width: 0.8; stroke-linecap: square"/>
     </g>
     <g id="line2d_2">
      <defs>
       <path id="mba603c1a8c" d="M 0 0 
L 0 3.5 
" style="stroke: #000000; stroke-width: 0.8"/>
      </defs>
      <g>
       <use xlink:href="#mba603c1a8c" x="139.84" y="384.04" style="stroke: #000000; stroke-width: 0.8"/>
      </g>
     </g>
     <g id="text_1">
      <!-- 0M -->
      <g transform="translate(132.894688 398.213437) scale(0.1 -0.1)">
       <defs>
        <path id="Helvetica-30" d="M 1731 4475 
Q 2600 4475 2988 3759 
Q 3288 3206 3288 2244 
Q 3288 1331 3016 734 
Q 2622 -122 1728 -122 
Q 922 -122 528 578 
Q 200 1163 200 2147 
Q 200 2909 397 3456 
Q 766 4475 1731 4475 
z
M 1725 391 
Q 2163 391 2422 778 
Q 2681 1166 2681 2222 
Q 2681 2984 2493 3476 
Q 2306 3969 1766 3969 
Q 1269 3969 1039 3501 
Q 809 3034 809 2125 
Q 809 1441 956 1025 
Q 1181 391 1725 391 
z
" transform="scale(0.015625)"/>
        <path id="Helvetica-4d" d="M 472 4591 
L 1363 4591 
L 2681 709 
L 3991 4591 
L 4872 4591 
L 4872 0 
L 4281 0 
L 4281 2709 
Q 4281 2850 4287 3175 
Q 4294 3500 4294 3872 
L 2984 0 
L 2369 0 
L 1050 3872 
L 1050 3731 
Q 1050 3563 1058 3217 
Q 1066 2872 1066 2709 
L 1066 0 
L 472 0 
L 472 4591 
z
" transform="scale(0.015625)"/>
       </defs>
       <use xlink:href="#Helvetica-30"/>
       <use xlink:href="#Helvetica-4d" transform="translate(55.615234 0)"/>
      </g>
     </g>
    </g>
    <g id="xtick_2">
     <g id="line2d_3">
      <path d="M 213.325811 384.04 
L 213.325811 34.45125 
" clip-path="url(#pc2944a33bf)" style="fill: none; stroke: #b0b0b0; stroke-opacity: 0.2; stroke-width: 0.8; stroke-linecap: square"/>
     </g>
     <g id="line2d_4">
      <g>
       <use xlink:href="#mba603c1a8c" x="213.325811" y="384.04" style="stroke: #000000; stroke-width: 0.8"/>
      </g>
     </g>
     <g id="text_2">
      <!-- 1M -->
      <g transform="translate(206.380499 398.213437) scale(0.1 -0.1)">
       <defs>
        <path id="Helvetica-31" d="M 613 3169 
L 613 3600 
Q 1222 3659 1462 3798 
Q 1703 3938 1822 4456 
L 2266 4456 
L 2266 0 
L 1666 0 
L 1666 3169 
L 613 3169 
z
" transform="scale(0.015625)"/>
       </defs>
       <use xlink:href="#Helvetica-31"/>
       <use xlink:href="#Helvetica-4d" transform="translate(55.615234 0)"/>
      </g>
     </g>
    </g>
    <g id="xtick_3">
     <g id="line2d_5">
      <path d="M 286.811622 384.04 
L 286.811622 34.45125 
" clip-path="url(#pc2944a33bf)" style="fill: none; stroke: #b0b0b0; stroke-opacity: 0.2; stroke-width: 0.8; stroke-linecap: square"/>
     </g>
     <g id="line2d_6">
      <g>
       <use xlink:href="#mba603c1a8c" x="286.811622" y="384.04" style="stroke: #000000; stroke-width: 0.8"/>
      </g>
     </g>
     <g id="text_3">
      <!-- 2M -->
      <g transform="translate(279.86631 398.213437) scale(0.1 -0.1)">
       <defs>
        <path id="Helvetica-32" d="M 200 0 
Q 231 578 439 1006 
Q 647 1434 1250 1784 
L 1850 2131 
Q 2253 2366 2416 2531 
Q 2672 2791 2672 3125 
Q 2672 3516 2437 3745 
Q 2203 3975 1813 3975 
Q 1234 3975 1013 3538 
Q 894 3303 881 2888 
L 309 2888 
Q 319 3472 525 3841 
Q 891 4491 1816 4491 
Q 2584 4491 2939 4075 
Q 3294 3659 3294 3150 
Q 3294 2613 2916 2231 
Q 2697 2009 2131 1694 
L 1703 1456 
Q 1397 1288 1222 1134 
Q 909 863 828 531 
L 3272 531 
L 3272 0 
L 200 0 
z
" transform="scale(0.015625)"/>
       </defs>
       <use xlink:href="#Helvetica-32"/>
       <use xlink:href="#Helvetica-4d" transform="translate(55.615234 0)"/>
      </g>
     </g>
    </g>
    <g id="xtick_4">
     <g id="line2d_7">
      <path d="M 360.297434 384.04 
L 360.297434 34.45125 
" clip-path="url(#pc2944a33bf)" style="fill: none; stroke: #b0b0b0; stroke-opacity: 0.2; stroke-width: 0.8; stroke-linecap: square"/>
     </g>
     <g id="line2d_8">
      <g>
       <use xlink:href="#mba603c1a8c" x="360.297434" y="384.04" style="stroke: #000000; stroke-width: 0.8"/>
      </g>
     </g>
     <g id="text_4">
      <!-- 3M -->
      <g transform="translate(353.352121 398.213437) scale(0.1 -0.1)">
       <defs>
        <path id="Helvetica-33" d="M 1663 -122 
Q 869 -122 511 314 
Q 153 750 153 1375 
L 741 1375 
Q 778 941 903 744 
Q 1122 391 1694 391 
Q 2138 391 2406 628 
Q 2675 866 2675 1241 
Q 2675 1703 2392 1887 
Q 2109 2072 1606 2072 
Q 1550 2072 1492 2070 
Q 1434 2069 1375 2066 
L 1375 2563 
Q 1463 2553 1522 2550 
Q 1581 2547 1650 2547 
Q 1966 2547 2169 2647 
Q 2525 2822 2525 3272 
Q 2525 3606 2287 3787 
Q 2050 3969 1734 3969 
Q 1172 3969 956 3594 
Q 838 3388 822 3006 
L 266 3006 
Q 266 3506 466 3856 
Q 809 4481 1675 4481 
Q 2359 4481 2734 4176 
Q 3109 3872 3109 3294 
Q 3109 2881 2888 2625 
Q 2750 2466 2531 2375 
Q 2884 2278 3082 2001 
Q 3281 1725 3281 1325 
Q 3281 684 2859 281 
Q 2438 -122 1663 -122 
z
" transform="scale(0.015625)"/>
       </defs>
       <use xlink:href="#Helvetica-33"/>
       <use xlink:href="#Helvetica-4d" transform="translate(55.615234 0)"/>
      </g>
     </g>
    </g>
    <g id="xtick_5">
     <g id="line2d_9">
      <path d="M 433.783245 384.04 
L 433.783245 34.45125 
" clip-path="url(#pc2944a33bf)" style="fill: none; stroke: #b0b0b0; stroke-opacity: 0.2; stroke-width: 0.8; stroke-linecap: square"/>
     </g>
     <g id="line2d_10">
      <g>
       <use xlink:href="#mba603c1a8c" x="433.783245" y="384.04" style="stroke: #000000; stroke-width: 0.8"/>
      </g>
     </g>
     <g id="text_5">
      <!-- 4M -->
      <g transform="translate(426.837932 398.213437) scale(0.1 -0.1)">
       <defs>
        <path id="Helvetica-34" d="M 2116 1584 
L 2116 3613 
L 681 1584 
L 2116 1584 
z
M 2125 0 
L 2125 1094 
L 163 1094 
L 163 1644 
L 2213 4488 
L 2688 4488 
L 2688 1584 
L 3347 1584 
L 3347 1094 
L 2688 1094 
L 2688 0 
L 2125 0 
z
" transform="scale(0.015625)"/>
       </defs>
       <use xlink:href="#Helvetica-34"/>
       <use xlink:href="#Helvetica-4d" transform="translate(55.615234 0)"/>
      </g>
     </g>
    </g>
    <g id="xtick_6">
     <g id="line2d_11">
      <path d="M 507.269056 384.04 
L 507.269056 34.45125 
" clip-path="url(#pc2944a33bf)" style="fill: none; stroke: #b0b0b0; stroke-opacity: 0.2; stroke-width: 0.8; stroke-linecap: square"/>
     </g>
     <g id="line2d_12">
      <g>
       <use xlink:href="#mba603c1a8c" x="507.269056" y="384.04" style="stroke: #000000; stroke-width: 0.8"/>
      </g>
     </g>
     <g id="text_6">
      <!-- 5M -->
      <g transform="translate(500.323744 398.213437) scale(0.1 -0.1)">
       <defs>
        <path id="Helvetica-35" d="M 791 1141 
Q 847 659 1238 475 
Q 1438 381 1700 381 
Q 2200 381 2440 700 
Q 2681 1019 2681 1406 
Q 2681 1875 2395 2131 
Q 2109 2388 1709 2388 
Q 1419 2388 1211 2275 
Q 1003 2163 856 1963 
L 369 1991 
L 709 4400 
L 3034 4400 
L 3034 3856 
L 1131 3856 
L 941 2613 
Q 1097 2731 1238 2791 
Q 1488 2894 1816 2894 
Q 2431 2894 2859 2497 
Q 3288 2100 3288 1491 
Q 3288 856 2895 371 
Q 2503 -113 1644 -113 
Q 1097 -113 676 195 
Q 256 503 206 1141 
L 791 1141 
z
" transform="scale(0.015625)"/>
       </defs>
       <use xlink:href="#Helvetica-35"/>
       <use xlink:href="#Helvetica-4d" transform="translate(55.615234 0)"/>
      </g>
     </g>
    </g>
    <g id="xtick_7">
     <g id="line2d_13">
      <path d="M 580.754867 384.04 
L 580.754867 34.45125 
" clip-path="url(#pc2944a33bf)" style="fill: none; stroke: #b0b0b0; stroke-opacity: 0.2; stroke-width: 0.8; stroke-linecap: square"/>
     </g>
     <g id="line2d_14">
      <g>
       <use xlink:href="#mba603c1a8c" x="580.754867" y="384.04" style="stroke: #000000; stroke-width: 0.8"/>
      </g>
     </g>
     <g id="text_7">
      <!-- 6M -->
      <g transform="translate(573.809555 398.213437) scale(0.1 -0.1)">
       <defs>
        <path id="Helvetica-36" d="M 1872 4494 
Q 2622 4494 2917 4105 
Q 3213 3716 3213 3303 
L 2656 3303 
Q 2606 3569 2497 3719 
Q 2294 4000 1881 4000 
Q 1409 4000 1131 3564 
Q 853 3128 822 2316 
Q 1016 2600 1309 2741 
Q 1578 2866 1909 2866 
Q 2472 2866 2890 2506 
Q 3309 2147 3309 1434 
Q 3309 825 2912 354 
Q 2516 -116 1781 -116 
Q 1153 -116 697 361 
Q 241 838 241 1966 
Q 241 2800 444 3381 
Q 834 4494 1872 4494 
z
M 1831 384 
Q 2275 384 2495 682 
Q 2716 981 2716 1388 
Q 2716 1731 2519 2042 
Q 2322 2353 1803 2353 
Q 1441 2353 1167 2112 
Q 894 1872 894 1388 
Q 894 963 1142 673 
Q 1391 384 1831 384 
z
" transform="scale(0.015625)"/>
       </defs>
       <use xlink:href="#Helvetica-36"/>
       <use xlink:href="#Helvetica-4d" transform="translate(55.615234 0)"/>
      </g>
     </g>
    </g>
    <g id="xtick_8">
     <g id="line2d_15">
      <path d="M 654.240679 384.04 
L 654.240679 34.45125 
" clip-path="url(#pc2944a33bf)" style="fill: none; stroke: #b0b0b0; stroke-opacity: 0.2; stroke-width: 0.8; stroke-linecap: square"/>
     </g>
     <g id="line2d_16">
      <g>
       <use xlink:href="#mba603c1a8c" x="654.240679" y="384.04" style="stroke: #000000; stroke-width: 0.8"/>
      </g>
     </g>
     <g id="text_8">
      <!-- 7M -->
      <g transform="translate(647.295366 398.213437) scale(0.1 -0.1)">
       <defs>
        <path id="Helvetica-37" d="M 3347 4400 
L 3347 3909 
Q 3131 3700 2773 3181 
Q 2416 2663 2141 2063 
Q 1869 1478 1728 997 
Q 1638 688 1494 0 
L 872 0 
Q 1084 1281 1809 2550 
Q 2238 3294 2709 3834 
L 234 3834 
L 234 4400 
L 3347 4400 
z
" transform="scale(0.015625)"/>
       </defs>
       <use xlink:href="#Helvetica-37"/>
       <use xlink:href="#Helvetica-4d" transform="translate(55.615234 0)"/>
      </g>
     </g>
    </g>
    <g id="xtick_9">
     <g id="line2d_17">
      <path d="M 727.72649 384.04 
L 727.72649 34.45125 
" clip-path="url(#pc2944a33bf)" style="fill: none; stroke: #b0b0b0; stroke-opacity: 0.2; stroke-width: 0.8; stroke-linecap: square"/>
     </g>
     <g id="line2d_18">
      <g>
       <use xlink:href="#mba603c1a8c" x="727.72649" y="384.04" style="stroke: #000000; stroke-width: 0.8"/>
      </g>
     </g>
     <g id="text_9">
      <!-- 8M -->
      <g transform="translate(720.781177 398.213437) scale(0.1 -0.1)">
       <defs>
        <path id="Helvetica-38" d="M 1741 2600 
Q 2113 2600 2322 2808 
Q 2531 3016 2531 3303 
Q 2531 3553 2331 3762 
Q 2131 3972 1722 3972 
Q 1316 3972 1134 3762 
Q 953 3553 953 3272 
Q 953 2956 1187 2778 
Q 1422 2600 1741 2600 
z
M 1775 384 
Q 2166 384 2423 595 
Q 2681 806 2681 1225 
Q 2681 1659 2415 1884 
Q 2150 2109 1734 2109 
Q 1331 2109 1076 1879 
Q 822 1650 822 1244 
Q 822 894 1055 639 
Q 1288 384 1775 384 
z
M 975 2384 
Q 741 2484 609 2619 
Q 363 2869 363 3269 
Q 363 3769 725 4128 
Q 1088 4488 1753 4488 
Q 2397 4488 2762 4148 
Q 3128 3809 3128 3356 
Q 3128 2938 2916 2678 
Q 2797 2531 2547 2391 
Q 2825 2263 2984 2097 
Q 3281 1784 3281 1284 
Q 3281 694 2884 283 
Q 2488 -128 1763 -128 
Q 1109 -128 657 226 
Q 206 581 206 1256 
Q 206 1653 400 1942 
Q 594 2231 975 2384 
z
" transform="scale(0.015625)"/>
       </defs>
       <use xlink:href="#Helvetica-38"/>
       <use xlink:href="#Helvetica-4d" transform="translate(55.615234 0)"/>
      </g>
     </g>
    </g>
    <g id="xtick_10">
     <g id="line2d_19">
      <path d="M 801.212301 384.04 
L 801.212301 34.45125 
" clip-path="url(#pc2944a33bf)" style="fill: none; stroke: #b0b0b0; stroke-opacity: 0.2; stroke-width: 0.8; stroke-linecap: square"/>
     </g>
     <g id="line2d_20">
      <g>
       <use xlink:href="#mba603c1a8c" x="801.212301" y="384.04" style="stroke: #000000; stroke-width: 0.8"/>
      </g>
     </g>
     <g id="text_10">
      <!-- 9M -->
      <g transform="translate(794.266989 398.213437) scale(0.1 -0.1)">
       <defs>
        <path id="Helvetica-39" d="M 850 1081 
Q 875 616 1209 438 
Q 1381 344 1597 344 
Q 2000 344 2284 680 
Q 2569 1016 2688 2044 
Q 2500 1747 2223 1626 
Q 1947 1506 1628 1506 
Q 981 1506 604 1909 
Q 228 2313 228 2947 
Q 228 3556 600 4018 
Q 972 4481 1697 4481 
Q 2675 4481 3047 3600 
Q 3253 3116 3253 2388 
Q 3253 1566 3006 931 
Q 2597 -125 1619 -125 
Q 963 -125 622 219 
Q 281 563 281 1081 
L 850 1081 
z
M 1703 2000 
Q 2038 2000 2314 2220 
Q 2591 2441 2591 2991 
Q 2591 3484 2342 3726 
Q 2094 3969 1709 3969 
Q 1297 3969 1055 3692 
Q 813 3416 813 2953 
Q 813 2516 1025 2258 
Q 1238 2000 1703 2000 
z
" transform="scale(0.015625)"/>
       </defs>
       <use xlink:href="#Helvetica-39"/>
       <use xlink:href="#Helvetica-4d" transform="translate(55.615234 0)"/>
      </g>
     </g>
    </g>
    <g id="text_11">
     <!-- Total Displaced (in millions of people) -->
     <g transform="translate(402.93875 417.89625) scale(0.1 -0.1)">
      <defs>
       <path id="DejaVuSans-54" d="M -19 4666 
L 3928 4666 
L 3928 4134 
L 2272 4134 
L 2272 0 
L 1638 0 
L 1638 4134 
L -19 4134 
L -19 4666 
z
" transform="scale(0.015625)"/>
       <path id="DejaVuSans-6f" d="M 1959 3097 
Q 1497 3097 1228 2736 
Q 959 2375 959 1747 
Q 959 1119 1226 758 
Q 1494 397 1959 397 
Q 2419 397 2687 759 
Q 2956 1122 2956 1747 
Q 2956 2369 2687 2733 
Q 2419 3097 1959 3097 
z
M 1959 3584 
Q 2709 3584 3137 3096 
Q 3566 2609 3566 1747 
Q 3566 888 3137 398 
Q 2709 -91 1959 -91 
Q 1206 -91 779 398 
Q 353 888 353 1747 
Q 353 2609 779 3096 
Q 1206 3584 1959 3584 
z
" transform="scale(0.015625)"/>
       <path id="DejaVuSans-74" d="M 1172 4494 
L 1172 3500 
L 2356 3500 
L 2356 3053 
L 1172 3053 
L 1172 1153 
Q 1172 725 1289 603 
Q 1406 481 1766 481 
L 2356 481 
L 2356 0 
L 1766 0 
Q 1100 0 847 248 
Q 594 497 594 1153 
L 594 3053 
L 172 3053 
L 172 3500 
L 594 3500 
L 594 4494 
L 1172 4494 
z
" transform="scale(0.015625)"/>
       <path id="DejaVuSans-61" d="M 2194 1759 
Q 1497 1759 1228 1600 
Q 959 1441 959 1056 
Q 959 750 1161 570 
Q 1363 391 1709 391 
Q 2188 391 2477 730 
Q 2766 1069 2766 1631 
L 2766 1759 
L 2194 1759 
z
M 3341 1997 
L 3341 0 
L 2766 0 
L 2766 531 
Q 2569 213 2275 61 
Q 1981 -91 1556 -91 
Q 1019 -91 701 211 
Q 384 513 384 1019 
Q 384 1609 779 1909 
Q 1175 2209 1959 2209 
L 2766 2209 
L 2766 2266 
Q 2766 2663 2505 2880 
Q 2244 3097 1772 3097 
Q 1472 3097 1187 3025 
Q 903 2953 641 2809 
L 641 3341 
Q 956 3463 1253 3523 
Q 1550 3584 1831 3584 
Q 2591 3584 2966 3190 
Q 3341 2797 3341 1997 
z
" transform="scale(0.015625)"/>
       <path id="DejaVuSans-6c" d="M 603 4863 
L 1178 4863 
L 1178 0 
L 603 0 
L 603 4863 
z
" transform="scale(0.015625)"/>
       <path id="DejaVuSans-20" transform="scale(0.015625)"/>
       <path id="DejaVuSans-44" d="M 1259 4147 
L 1259 519 
L 2022 519 
Q 2988 519 3436 956 
Q 3884 1394 3884 2338 
Q 3884 3275 3436 3711 
Q 2988 4147 2022 4147 
L 1259 4147 
z
M 628 4666 
L 1925 4666 
Q 3281 4666 3915 4102 
Q 4550 3538 4550 2338 
Q 4550 1131 3912 565 
Q 3275 0 1925 0 
L 628 0 
L 628 4666 
z
" transform="scale(0.015625)"/>
       <path id="DejaVuSans-69" d="M 603 3500 
L 1178 3500 
L 1178 0 
L 603 0 
L 603 3500 
z
M 603 4863 
L 1178 4863 
L 1178 4134 
L 603 4134 
L 603 4863 
z
" transform="scale(0.015625)"/>
       <path id="DejaVuSans-73" d="M 2834 3397 
L 2834 2853 
Q 2591 2978 2328 3040 
Q 2066 3103 1784 3103 
Q 1356 3103 1142 2972 
Q 928 2841 928 2578 
Q 928 2378 1081 2264 
Q 1234 2150 1697 2047 
L 1894 2003 
Q 2506 1872 2764 1633 
Q 3022 1394 3022 966 
Q 3022 478 2636 193 
Q 2250 -91 1575 -91 
Q 1294 -91 989 -36 
Q 684 19 347 128 
L 347 722 
Q 666 556 975 473 
Q 1284 391 1588 391 
Q 1994 391 2212 530 
Q 2431 669 2431 922 
Q 2431 1156 2273 1281 
Q 2116 1406 1581 1522 
L 1381 1569 
Q 847 1681 609 1914 
Q 372 2147 372 2553 
Q 372 3047 722 3315 
Q 1072 3584 1716 3584 
Q 2034 3584 2315 3537 
Q 2597 3491 2834 3397 
z
" transform="scale(0.015625)"/>
       <path id="DejaVuSans-70" d="M 1159 525 
L 1159 -1331 
L 581 -1331 
L 581 3500 
L 1159 3500 
L 1159 2969 
Q 1341 3281 1617 3432 
Q 1894 3584 2278 3584 
Q 2916 3584 3314 3078 
Q 3713 2572 3713 1747 
Q 3713 922 3314 415 
Q 2916 -91 2278 -91 
Q 1894 -91 1617 61 
Q 1341 213 1159 525 
z
M 3116 1747 
Q 3116 2381 2855 2742 
Q 2594 3103 2138 3103 
Q 1681 3103 1420 2742 
Q 1159 2381 1159 1747 
Q 1159 1113 1420 752 
Q 1681 391 2138 391 
Q 2594 391 2855 752 
Q 3116 1113 3116 1747 
z
" transform="scale(0.015625)"/>
       <path id="DejaVuSans-63" d="M 3122 3366 
L 3122 2828 
Q 2878 2963 2633 3030 
Q 2388 3097 2138 3097 
Q 1578 3097 1268 2742 
Q 959 2388 959 1747 
Q 959 1106 1268 751 
Q 1578 397 2138 397 
Q 2388 397 2633 464 
Q 2878 531 3122 666 
L 3122 134 
Q 2881 22 2623 -34 
Q 2366 -91 2075 -91 
Q 1284 -91 818 406 
Q 353 903 353 1747 
Q 353 2603 823 3093 
Q 1294 3584 2113 3584 
Q 2378 3584 2631 3529 
Q 2884 3475 3122 3366 
z
" transform="scale(0.015625)"/>
       <path id="DejaVuSans-65" d="M 3597 1894 
L 3597 1613 
L 953 1613 
Q 991 1019 1311 708 
Q 1631 397 2203 397 
Q 2534 397 2845 478 
Q 3156 559 3463 722 
L 3463 178 
Q 3153 47 2828 -22 
Q 2503 -91 2169 -91 
Q 1331 -91 842 396 
Q 353 884 353 1716 
Q 353 2575 817 3079 
Q 1281 3584 2069 3584 
Q 2775 3584 3186 3129 
Q 3597 2675 3597 1894 
z
M 3022 2063 
Q 3016 2534 2758 2815 
Q 2500 3097 2075 3097 
Q 1594 3097 1305 2825 
Q 1016 2553 972 2059 
L 3022 2063 
z
" transform="scale(0.015625)"/>
       <path id="DejaVuSans-64" d="M 2906 2969 
L 2906 4863 
L 3481 4863 
L 3481 0 
L 2906 0 
L 2906 525 
Q 2725 213 2448 61 
Q 2172 -91 1784 -91 
Q 1150 -91 751 415 
Q 353 922 353 1747 
Q 353 2572 751 3078 
Q 1150 3584 1784 3584 
Q 2172 3584 2448 3432 
Q 2725 3281 2906 2969 
z
M 947 1747 
Q 947 1113 1208 752 
Q 1469 391 1925 391 
Q 2381 391 2643 752 
Q 2906 1113 2906 1747 
Q 2906 2381 2643 2742 
Q 2381 3103 1925 3103 
Q 1469 3103 1208 2742 
Q 947 2381 947 1747 
z
" transform="scale(0.015625)"/>
       <path id="DejaVuSans-28" d="M 1984 4856 
Q 1566 4138 1362 3434 
Q 1159 2731 1159 2009 
Q 1159 1288 1364 580 
Q 1569 -128 1984 -844 
L 1484 -844 
Q 1016 -109 783 600 
Q 550 1309 550 2009 
Q 550 2706 781 3412 
Q 1013 4119 1484 4856 
L 1984 4856 
z
" transform="scale(0.015625)"/>
       <path id="DejaVuSans-6e" d="M 3513 2113 
L 3513 0 
L 2938 0 
L 2938 2094 
Q 2938 2591 2744 2837 
Q 2550 3084 2163 3084 
Q 1697 3084 1428 2787 
Q 1159 2491 1159 1978 
L 1159 0 
L 581 0 
L 581 3500 
L 1159 3500 
L 1159 2956 
Q 1366 3272 1645 3428 
Q 1925 3584 2291 3584 
Q 2894 3584 3203 3211 
Q 3513 2838 3513 2113 
z
" transform="scale(0.015625)"/>
       <path id="DejaVuSans-6d" d="M 3328 2828 
Q 3544 3216 3844 3400 
Q 4144 3584 4550 3584 
Q 5097 3584 5394 3201 
Q 5691 2819 5691 2113 
L 5691 0 
L 5113 0 
L 5113 2094 
Q 5113 2597 4934 2840 
Q 4756 3084 4391 3084 
Q 3944 3084 3684 2787 
Q 3425 2491 3425 1978 
L 3425 0 
L 2847 0 
L 2847 2094 
Q 2847 2600 2669 2842 
Q 2491 3084 2119 3084 
Q 1678 3084 1418 2786 
Q 1159 2488 1159 1978 
L 1159 0 
L 581 0 
L 581 3500 
L 1159 3500 
L 1159 2956 
Q 1356 3278 1631 3431 
Q 1906 3584 2284 3584 
Q 2666 3584 2933 3390 
Q 3200 3197 3328 2828 
z
" transform="scale(0.015625)"/>
       <path id="DejaVuSans-66" d="M 2375 4863 
L 2375 4384 
L 1825 4384 
Q 1516 4384 1395 4259 
Q 1275 4134 1275 3809 
L 1275 3500 
L 2222 3500 
L 2222 3053 
L 1275 3053 
L 1275 0 
L 697 0 
L 697 3053 
L 147 3053 
L 147 3500 
L 697 3500 
L 697 3744 
Q 697 4328 969 4595 
Q 1241 4863 1831 4863 
L 2375 4863 
z
" transform="scale(0.015625)"/>
       <path id="DejaVuSans-29" d="M 513 4856 
L 1013 4856 
Q 1481 4119 1714 3412 
Q 1947 2706 1947 2009 
Q 1947 1309 1714 600 
Q 1481 -109 1013 -844 
L 513 -844 
Q 928 -128 1133 580 
Q 1338 1288 1338 2009 
Q 1338 2731 1133 3434 
Q 928 4138 513 4856 
z
" transform="scale(0.015625)"/>
      </defs>
      <use xlink:href="#DejaVuSans-54"/>
      <use xlink:href="#DejaVuSans-6f" transform="translate(44.083984 0)"/>
      <use xlink:href="#DejaVuSans-74" transform="translate(105.265625 0)"/>
      <use xlink:href="#DejaVuSans-61" transform="translate(144.474609 0)"/>
      <use xlink:href="#DejaVuSans-6c" transform="translate(205.753906 0)"/>
      <use xlink:href="#DejaVuSans-20" transform="translate(233.537109 0)"/>
      <use xlink:href="#DejaVuSans-44" transform="translate(265.324219 0)"/>
      <use xlink:href="#DejaVuSans-69" transform="translate(342.326172 0)"/>
      <use xlink:href="#DejaVuSans-73" transform="translate(370.109375 0)"/>
      <use xlink:href="#DejaVuSans-70" transform="translate(422.208984 0)"/>
      <use xlink:href="#DejaVuSans-6c" transform="translate(485.685547 0)"/>
      <use xlink:href="#DejaVuSans-61" transform="translate(513.46875 0)"/>
      <use xlink:href="#DejaVuSans-63" transform="translate(574.748047 0)"/>
      <use xlink:href="#DejaVuSans-65" transform="translate(629.728516 0)"/>
      <use xlink:href="#DejaVuSans-64" transform="translate(691.251953 0)"/>
      <use xlink:href="#DejaVuSans-20" transform="translate(754.728516 0)"/>
      <use xlink:href="#DejaVuSans-28" transform="translate(786.515625 0)"/>
      <use xlink:href="#DejaVuSans-69" transform="translate(825.529297 0)"/>
      <use xlink:href="#DejaVuSans-6e" transform="translate(853.3125 0)"/>
      <use xlink:href="#DejaVuSans-20" transform="translate(916.691406 0)"/>
      <use xlink:href="#DejaVuSans-6d" transform="translate(948.478516 0)"/>
      <use xlink:href="#DejaVuSans-69" transform="translate(1045.890625 0)"/>
      <use xlink:href="#DejaVuSans-6c" transform="translate(1073.673828 0)"/>
      <use xlink:href="#DejaVuSans-6c" transform="translate(1101.457031 0)"/>
      <use xlink:href="#DejaVuSans-69" transform="translate(1129.240234 0)"/>
      <use xlink:href="#DejaVuSans-6f" transform="translate(1157.023438 0)"/>
      <use xlink:href="#DejaVuSans-6e" transform="translate(1218.205078 0)"/>
      <use xlink:href="#DejaVuSans-73" transform="translate(1281.583984 0)"/>
      <use xlink:href="#DejaVuSans-20" transform="translate(1333.683594 0)"/>
      <use xlink:href="#DejaVuSans-6f" transform="translate(1365.470703 0)"/>
      <use xlink:href="#DejaVuSans-66" transform="translate(1426.652344 0)"/>
      <use xlink:href="#DejaVuSans-20" transform="translate(1461.857422 0)"/>
      <use xlink:href="#DejaVuSans-70" transform="translate(1493.644531 0)"/>
      <use xlink:href="#DejaVuSans-65" transform="translate(1557.121094 0)"/>
      <use xlink:href="#DejaVuSans-6f" transform="translate(1618.644531 0)"/>
      <use xlink:href="#DejaVuSans-70" transform="translate(1679.826172 0)"/>
      <use xlink:href="#DejaVuSans-6c" transform="translate(1743.302734 0)"/>
      <use xlink:href="#DejaVuSans-65" transform="translate(1771.085938 0)"/>
      <use xlink:href="#DejaVuSans-29" transform="translate(1832.609375 0)"/>
     </g>
    </g>
   </g>
   <g id="matplotlib.axis_2">
    <g id="ytick_1">
     <g id="line2d_21">
      <defs>
       <path id="m1e006acb29" d="M 0 0 
L -3.5 0 
" style="stroke: #000000; stroke-width: 0.8"/>
      </defs>
      <g>
       <use xlink:href="#m1e006acb29" x="139.84" y="61.114799" style="stroke: #000000; stroke-width: 0.8"/>
      </g>
     </g>
     <g id="text_12">
      <!-- Syria (2011-2025) -->
      <g transform="translate(52.8025 64.799174) scale(0.1 -0.1)">
       <defs>
        <path id="Helvetica-53" d="M 894 1481 
Q 916 1091 1078 847 
Q 1388 391 2169 391 
Q 2519 391 2806 491 
Q 3363 684 3363 1184 
Q 3363 1559 3128 1719 
Q 2891 1875 2384 1991 
L 1763 2131 
Q 1153 2269 900 2434 
Q 463 2722 463 3294 
Q 463 3913 891 4309 
Q 1319 4706 2103 4706 
Q 2825 4706 3329 4357 
Q 3834 4009 3834 3244 
L 3250 3244 
Q 3203 3613 3050 3809 
Q 2766 4169 2084 4169 
Q 1534 4169 1293 3937 
Q 1053 3706 1053 3400 
Q 1053 3063 1334 2906 
Q 1519 2806 2169 2656 
L 2813 2509 
Q 3278 2403 3531 2219 
Q 3969 1897 3969 1284 
Q 3969 522 3414 194 
Q 2859 -134 2125 -134 
Q 1269 -134 784 303 
Q 300 738 309 1481 
L 894 1481 
z
M 2150 4716 
L 2150 4716 
z
" transform="scale(0.015625)"/>
        <path id="Helvetica-79" d="M 2503 3347 
L 3125 3347 
Q 3006 3025 2597 1878 
Q 2291 1016 2084 472 
Q 1597 -809 1397 -1090 
Q 1197 -1372 709 -1372 
Q 591 -1372 527 -1362 
Q 463 -1353 369 -1328 
L 369 -816 
Q 516 -856 581 -865 
Q 647 -875 697 -875 
Q 853 -875 926 -823 
Q 1000 -772 1050 -697 
Q 1066 -672 1162 -440 
Q 1259 -209 1303 -97 
L 66 3347 
L 703 3347 
L 1600 622 
L 2503 3347 
z
M 1597 3428 
L 1597 3428 
z
" transform="scale(0.015625)"/>
        <path id="Helvetica-72" d="M 428 3347 
L 963 3347 
L 963 2769 
Q 1028 2938 1284 3180 
Q 1541 3422 1875 3422 
Q 1891 3422 1928 3419 
Q 1966 3416 2056 3406 
L 2056 2813 
Q 2006 2822 1964 2825 
Q 1922 2828 1872 2828 
Q 1447 2828 1219 2554 
Q 991 2281 991 1925 
L 991 0 
L 428 0 
L 428 3347 
z
" transform="scale(0.015625)"/>
        <path id="Helvetica-69" d="M 413 3331 
L 984 3331 
L 984 0 
L 413 0 
L 413 3331 
z
M 413 4591 
L 984 4591 
L 984 3953 
L 413 3953 
L 413 4591 
z
" transform="scale(0.015625)"/>
        <path id="Helvetica-61" d="M 844 891 
Q 844 647 1022 506 
Q 1200 366 1444 366 
Q 1741 366 2019 503 
Q 2488 731 2488 1250 
L 2488 1703 
Q 2384 1638 2221 1594 
Q 2059 1550 1903 1531 
L 1563 1488 
Q 1256 1447 1103 1359 
Q 844 1213 844 891 
z
M 2206 2028 
Q 2400 2053 2466 2191 
Q 2503 2266 2503 2406 
Q 2503 2694 2298 2823 
Q 2094 2953 1713 2953 
Q 1272 2953 1088 2716 
Q 984 2584 953 2325 
L 428 2325 
Q 444 2944 830 3186 
Q 1216 3428 1725 3428 
Q 2316 3428 2684 3203 
Q 3050 2978 3050 2503 
L 3050 575 
Q 3050 488 3086 434 
Q 3122 381 3238 381 
Q 3275 381 3322 386 
Q 3369 391 3422 400 
L 3422 -16 
Q 3291 -53 3222 -62 
Q 3153 -72 3034 -72 
Q 2744 -72 2613 134 
Q 2544 244 2516 444 
Q 2344 219 2022 53 
Q 1700 -113 1313 -113 
Q 847 -113 551 170 
Q 256 453 256 878 
Q 256 1344 547 1600 
Q 838 1856 1309 1916 
L 2206 2028 
z
M 1741 3428 
L 1741 3428 
z
" transform="scale(0.015625)"/>
        <path id="Helvetica-20" transform="scale(0.015625)"/>
        <path id="Helvetica-28" d="M 1894 4666 
Q 1403 3713 1256 3263 
Q 1034 2578 1034 1681 
Q 1034 775 1288 25 
Q 1444 -438 1903 -1306 
L 1525 -1306 
Q 1069 -594 959 -397 
Q 850 -200 722 138 
Q 547 600 478 1125 
Q 444 1397 444 1644 
Q 444 2569 734 3291 
Q 919 3750 1503 4666 
L 1894 4666 
z
" transform="scale(0.015625)"/>
        <path id="Helvetica-2d" d="M 266 2072 
L 1834 2072 
L 1834 1494 
L 266 1494 
L 266 2072 
z
" transform="scale(0.015625)"/>
        <path id="Helvetica-29" d="M 222 -1306 
Q 719 -338 863 106 
Q 1081 778 1081 1681 
Q 1081 2584 828 3334 
Q 672 3797 213 4666 
L 591 4666 
Q 1072 3897 1173 3717 
Q 1275 3538 1394 3222 
Q 1544 2831 1608 2450 
Q 1672 2069 1672 1716 
Q 1672 791 1378 66 
Q 1194 -400 613 -1306 
L 222 -1306 
z
" transform="scale(0.015625)"/>
       </defs>
       <use xlink:href="#Helvetica-53"/>
       <use xlink:href="#Helvetica-79" transform="translate(66.699219 0)"/>
       <use xlink:href="#Helvetica-72" transform="translate(116.699219 0)"/>
       <use xlink:href="#Helvetica-69" transform="translate(150 0)"/>
       <use xlink:href="#Helvetica-61" transform="translate(172.216797 0)"/>
       <use xlink:href="#Helvetica-20" transform="translate(227.832031 0)"/>
       <use xlink:href="#Helvetica-28" transform="translate(255.615234 0)"/>
       <use xlink:href="#Helvetica-32" transform="translate(288.916016 0)"/>
       <use xlink:href="#Helvetica-30" transform="translate(344.53125 0)"/>
       <use xlink:href="#Helvetica-31" transform="translate(400.146484 0)"/>
       <use xlink:href="#Helvetica-31" transform="translate(455.761719 0)"/>
       <use xlink:href="#Helvetica-2d" transform="translate(511.376953 0)"/>
       <use xlink:href="#Helvetica-32" transform="translate(544.677734 0)"/>
       <use xlink:href="#Helvetica-30" transform="translate(600.292969 0)"/>
       <use xlink:href="#Helvetica-32" transform="translate(655.908203 0)"/>
       <use xlink:href="#Helvetica-35" transform="translate(711.523438 0)"/>
       <use xlink:href="#Helvetica-29" transform="translate(767.138672 0)"/>
      </g>
     </g>
    </g>
    <g id="ytick_2">
     <g id="line2d_22">
      <g>
       <use xlink:href="#m1e006acb29" x="139.84" y="88.047676" style="stroke: #000000; stroke-width: 0.8"/>
      </g>
     </g>
     <g id="text_13">
      <!-- Venezuela (2015-2025) -->
      <g transform="translate(28.3275 91.671114) scale(0.1 -0.1)">
       <defs>
        <path id="Helvetica-56" d="M 850 4591 
L 2169 681 
L 3472 4591 
L 4169 4591 
L 2494 0 
L 1834 0 
L 163 4591 
L 850 4591 
z
" transform="scale(0.015625)"/>
        <path id="Helvetica-65" d="M 1806 3422 
Q 2163 3422 2497 3255 
Q 2831 3088 3006 2822 
Q 3175 2569 3231 2231 
Q 3281 2000 3281 1494 
L 828 1494 
Q 844 984 1069 676 
Q 1294 369 1766 369 
Q 2206 369 2469 659 
Q 2619 828 2681 1050 
L 3234 1050 
Q 3213 866 3089 639 
Q 2966 413 2813 269 
Q 2556 19 2178 -69 
Q 1975 -119 1719 -119 
Q 1094 -119 659 336 
Q 225 791 225 1609 
Q 225 2416 662 2919 
Q 1100 3422 1806 3422 
z
M 2703 1941 
Q 2669 2306 2544 2525 
Q 2313 2931 1772 2931 
Q 1384 2931 1121 2651 
Q 859 2372 844 1941 
L 2703 1941 
z
M 1753 3428 
L 1753 3428 
z
" transform="scale(0.015625)"/>
        <path id="Helvetica-6e" d="M 413 3347 
L 947 3347 
L 947 2872 
Q 1184 3166 1450 3294 
Q 1716 3422 2041 3422 
Q 2753 3422 3003 2925 
Q 3141 2653 3141 2147 
L 3141 0 
L 2569 0 
L 2569 2109 
Q 2569 2416 2478 2603 
Q 2328 2916 1934 2916 
Q 1734 2916 1606 2875 
Q 1375 2806 1200 2600 
Q 1059 2434 1017 2257 
Q 975 2081 975 1753 
L 975 0 
L 413 0 
L 413 3347 
z
M 1734 3428 
L 1734 3428 
z
" transform="scale(0.015625)"/>
        <path id="Helvetica-7a" d="M 163 444 
L 2147 2844 
L 309 2844 
L 309 3347 
L 2903 3347 
L 2903 2888 
L 931 503 
L 2963 503 
L 2963 0 
L 163 0 
L 163 444 
z
M 1609 3428 
L 1609 3428 
z
" transform="scale(0.015625)"/>
        <path id="Helvetica-75" d="M 975 3347 
L 975 1125 
Q 975 869 1056 706 
Q 1206 406 1616 406 
Q 2203 406 2416 931 
Q 2531 1213 2531 1703 
L 2531 3347 
L 3094 3347 
L 3094 0 
L 2563 0 
L 2569 494 
Q 2459 303 2297 172 
Q 1975 -91 1516 -91 
Q 800 -91 541 388 
Q 400 644 400 1072 
L 400 3347 
L 975 3347 
z
M 1747 3428 
L 1747 3428 
z
" transform="scale(0.015625)"/>
        <path id="Helvetica-6c" d="M 428 4591 
L 991 4591 
L 991 0 
L 428 0 
L 428 4591 
z
" transform="scale(0.015625)"/>
       </defs>
       <use xlink:href="#Helvetica-56"/>
       <use xlink:href="#Helvetica-65" transform="translate(66.699219 0)"/>
       <use xlink:href="#Helvetica-6e" transform="translate(122.314453 0)"/>
       <use xlink:href="#Helvetica-65" transform="translate(177.929688 0)"/>
       <use xlink:href="#Helvetica-7a" transform="translate(233.544922 0)"/>
       <use xlink:href="#Helvetica-75" transform="translate(283.544922 0)"/>
       <use xlink:href="#Helvetica-65" transform="translate(339.160156 0)"/>
       <use xlink:href="#Helvetica-6c" transform="translate(394.775391 0)"/>
       <use xlink:href="#Helvetica-61" transform="translate(416.992188 0)"/>
       <use xlink:href="#Helvetica-20" transform="translate(472.607422 0)"/>
       <use xlink:href="#Helvetica-28" transform="translate(500.390625 0)"/>
       <use xlink:href="#Helvetica-32" transform="translate(533.691406 0)"/>
       <use xlink:href="#Helvetica-30" transform="translate(589.306641 0)"/>
       <use xlink:href="#Helvetica-31" transform="translate(644.921875 0)"/>
       <use xlink:href="#Helvetica-35" transform="translate(700.537109 0)"/>
       <use xlink:href="#Helvetica-2d" transform="translate(756.152344 0)"/>
       <use xlink:href="#Helvetica-32" transform="translate(789.453125 0)"/>
       <use xlink:href="#Helvetica-30" transform="translate(845.068359 0)"/>
       <use xlink:href="#Helvetica-32" transform="translate(900.683594 0)"/>
       <use xlink:href="#Helvetica-35" transform="translate(956.298828 0)"/>
       <use xlink:href="#Helvetica-29" transform="translate(1011.914062 0)"/>
      </g>
     </g>
    </g>
    <g id="ytick_3">
     <g id="line2d_23">
      <g>
       <use xlink:href="#m1e006acb29" x="139.84" y="114.980554" style="stroke: #000000; stroke-width: 0.8"/>
      </g>
     </g>
     <g id="text_14">
      <!-- Ukraine (2022-2025) -->
      <g transform="translate(41.129063 118.603991) scale(0.1 -0.1)">
       <defs>
        <path id="Helvetica-55" d="M 1163 4591 
L 1163 1753 
Q 1163 1253 1350 922 
Q 1628 422 2288 422 
Q 3078 422 3363 963 
Q 3516 1256 3516 1753 
L 3516 4591 
L 4147 4591 
L 4147 2013 
Q 4147 1166 3919 709 
Q 3500 -122 2338 -122 
Q 1175 -122 759 709 
Q 531 1166 531 2013 
L 531 4591 
L 1163 4591 
z
M 2341 4591 
L 2341 4591 
z
" transform="scale(0.015625)"/>
        <path id="Helvetica-6b" d="M 400 4591 
L 941 4591 
L 941 1925 
L 2384 3347 
L 3103 3347 
L 1822 2094 
L 3175 0 
L 2456 0 
L 1413 1688 
L 941 1256 
L 941 0 
L 400 0 
L 400 4591 
z
" transform="scale(0.015625)"/>
       </defs>
       <use xlink:href="#Helvetica-55"/>
       <use xlink:href="#Helvetica-6b" transform="translate(72.216797 0)"/>
       <use xlink:href="#Helvetica-72" transform="translate(122.216797 0)"/>
       <use xlink:href="#Helvetica-61" transform="translate(155.517578 0)"/>
       <use xlink:href="#Helvetica-69" transform="translate(211.132812 0)"/>
       <use xlink:href="#Helvetica-6e" transform="translate(233.349609 0)"/>
       <use xlink:href="#Helvetica-65" transform="translate(288.964844 0)"/>
       <use xlink:href="#Helvetica-20" transform="translate(344.580078 0)"/>
       <use xlink:href="#Helvetica-28" transform="translate(372.363281 0)"/>
       <use xlink:href="#Helvetica-32" transform="translate(405.664062 0)"/>
       <use xlink:href="#Helvetica-30" transform="translate(461.279297 0)"/>
       <use xlink:href="#Helvetica-32" transform="translate(516.894531 0)"/>
       <use xlink:href="#Helvetica-32" transform="translate(572.509766 0)"/>
       <use xlink:href="#Helvetica-2d" transform="translate(628.125 0)"/>
       <use xlink:href="#Helvetica-32" transform="translate(661.425781 0)"/>
       <use xlink:href="#Helvetica-30" transform="translate(717.041016 0)"/>
       <use xlink:href="#Helvetica-32" transform="translate(772.65625 0)"/>
       <use xlink:href="#Helvetica-35" transform="translate(828.271484 0)"/>
       <use xlink:href="#Helvetica-29" transform="translate(883.886719 0)"/>
      </g>
     </g>
    </g>
    <g id="ytick_4">
     <g id="line2d_24">
      <g>
       <use xlink:href="#m1e006acb29" x="139.84" y="141.913431" style="stroke: #000000; stroke-width: 0.8"/>
      </g>
     </g>
     <g id="text_15">
      <!-- Afghanistan (1999-2024) -->
      <g transform="translate(22.77125 145.558744) scale(0.1 -0.1)">
       <defs>
        <path id="Helvetica-41" d="M 2844 1881 
L 2147 3909 
L 1406 1881 
L 2844 1881 
z
M 1822 4591 
L 2525 4591 
L 4191 0 
L 3509 0 
L 3044 1375 
L 1228 1375 
L 731 0 
L 94 0 
L 1822 4591 
z
" transform="scale(0.015625)"/>
        <path id="Helvetica-66" d="M 553 3856 
Q 566 4206 675 4369 
Q 872 4656 1434 4656 
Q 1488 4656 1544 4653 
Q 1600 4650 1672 4644 
L 1672 4131 
Q 1584 4138 1545 4139 
Q 1506 4141 1472 4141 
Q 1216 4141 1166 4008 
Q 1116 3875 1116 3331 
L 1672 3331 
L 1672 2888 
L 1109 2888 
L 1109 0 
L 553 0 
L 553 2888 
L 88 2888 
L 88 3331 
L 553 3331 
L 553 3856 
z
" transform="scale(0.015625)"/>
        <path id="Helvetica-67" d="M 1594 3406 
Q 1988 3406 2281 3213 
Q 2441 3103 2606 2894 
L 2606 3316 
L 3125 3316 
L 3125 272 
Q 3125 -366 2938 -734 
Q 2588 -1416 1616 -1416 
Q 1075 -1416 706 -1173 
Q 338 -931 294 -416 
L 866 -416 
Q 906 -641 1028 -763 
Q 1219 -950 1628 -950 
Q 2275 -950 2475 -494 
Q 2594 -225 2584 466 
Q 2416 209 2178 84 
Q 1941 -41 1550 -41 
Q 1006 -41 598 345 
Q 191 731 191 1622 
Q 191 2463 602 2934 
Q 1013 3406 1594 3406 
z
M 2606 1688 
Q 2606 2309 2350 2609 
Q 2094 2909 1697 2909 
Q 1103 2909 884 2353 
Q 769 2056 769 1575 
Q 769 1009 998 714 
Q 1228 419 1616 419 
Q 2222 419 2469 966 
Q 2606 1275 2606 1688 
z
M 1659 3428 
L 1659 3428 
z
" transform="scale(0.015625)"/>
        <path id="Helvetica-68" d="M 413 4606 
L 975 4606 
L 975 2894 
Q 1175 3147 1334 3250 
Q 1606 3428 2013 3428 
Q 2741 3428 3000 2919 
Q 3141 2641 3141 2147 
L 3141 0 
L 2563 0 
L 2563 2109 
Q 2563 2478 2469 2650 
Q 2316 2925 1894 2925 
Q 1544 2925 1259 2684 
Q 975 2444 975 1775 
L 975 0 
L 413 0 
L 413 4606 
z
" transform="scale(0.015625)"/>
        <path id="Helvetica-73" d="M 747 1050 
Q 772 769 888 619 
Q 1100 347 1625 347 
Q 1938 347 2175 483 
Q 2413 619 2413 903 
Q 2413 1119 2222 1231 
Q 2100 1300 1741 1391 
L 1294 1503 
Q 866 1609 663 1741 
Q 300 1969 300 2372 
Q 300 2847 642 3140 
Q 984 3434 1563 3434 
Q 2319 3434 2653 2991 
Q 2863 2709 2856 2384 
L 2325 2384 
Q 2309 2575 2191 2731 
Q 1997 2953 1519 2953 
Q 1200 2953 1036 2831 
Q 872 2709 872 2509 
Q 872 2291 1088 2159 
Q 1213 2081 1456 2022 
L 1828 1931 
Q 2434 1784 2641 1647 
Q 2969 1431 2969 969 
Q 2969 522 2630 197 
Q 2291 -128 1597 -128 
Q 850 -128 539 211 
Q 228 550 206 1050 
L 747 1050 
z
M 1578 3428 
L 1578 3428 
z
" transform="scale(0.015625)"/>
        <path id="Helvetica-74" d="M 525 4281 
L 1094 4281 
L 1094 3347 
L 1628 3347 
L 1628 2888 
L 1094 2888 
L 1094 703 
Q 1094 528 1213 469 
Q 1278 434 1431 434 
Q 1472 434 1519 436 
Q 1566 438 1628 444 
L 1628 0 
Q 1531 -28 1426 -40 
Q 1322 -53 1200 -53 
Q 806 -53 665 148 
Q 525 350 525 672 
L 525 2888 
L 72 2888 
L 72 3347 
L 525 3347 
L 525 4281 
z
" transform="scale(0.015625)"/>
       </defs>
       <use xlink:href="#Helvetica-41"/>
       <use xlink:href="#Helvetica-66" transform="translate(66.699219 0)"/>
       <use xlink:href="#Helvetica-67" transform="translate(94.482422 0)"/>
       <use xlink:href="#Helvetica-68" transform="translate(150.097656 0)"/>
       <use xlink:href="#Helvetica-61" transform="translate(205.712891 0)"/>
       <use xlink:href="#Helvetica-6e" transform="translate(261.328125 0)"/>
       <use xlink:href="#Helvetica-69" transform="translate(316.943359 0)"/>
       <use xlink:href="#Helvetica-73" transform="translate(339.160156 0)"/>
       <use xlink:href="#Helvetica-74" transform="translate(389.160156 0)"/>
       <use xlink:href="#Helvetica-61" transform="translate(416.943359 0)"/>
       <use xlink:href="#Helvetica-6e" transform="translate(472.558594 0)"/>
       <use xlink:href="#Helvetica-20" transform="translate(528.173828 0)"/>
       <use xlink:href="#Helvetica-28" transform="translate(555.957031 0)"/>
       <use xlink:href="#Helvetica-31" transform="translate(589.257812 0)"/>
       <use xlink:href="#Helvetica-39" transform="translate(644.873047 0)"/>
       <use xlink:href="#Helvetica-39" transform="translate(700.488281 0)"/>
       <use xlink:href="#Helvetica-39" transform="translate(756.103516 0)"/>
       <use xlink:href="#Helvetica-2d" transform="translate(811.71875 0)"/>
       <use xlink:href="#Helvetica-32" transform="translate(845.019531 0)"/>
       <use xlink:href="#Helvetica-30" transform="translate(900.634766 0)"/>
       <use xlink:href="#Helvetica-32" transform="translate(956.25 0)"/>
       <use xlink:href="#Helvetica-34" transform="translate(1011.865234 0)"/>
       <use xlink:href="#Helvetica-29" transform="translate(1067.480469 0)"/>
      </g>
     </g>
    </g>
    <g id="ytick_5">
     <g id="line2d_25">
      <g>
       <use xlink:href="#m1e006acb29" x="139.84" y="168.846309" style="stroke: #000000; stroke-width: 0.8"/>
      </g>
     </g>
     <g id="text_16">
      <!-- Afghanistan (1980-1988) -->
      <g transform="translate(22.77125 172.491621) scale(0.1 -0.1)">
       <use xlink:href="#Helvetica-41"/>
       <use xlink:href="#Helvetica-66" transform="translate(66.699219 0)"/>
       <use xlink:href="#Helvetica-67" transform="translate(94.482422 0)"/>
       <use xlink:href="#Helvetica-68" transform="translate(150.097656 0)"/>
       <use xlink:href="#Helvetica-61" transform="translate(205.712891 0)"/>
       <use xlink:href="#Helvetica-6e" transform="translate(261.328125 0)"/>
       <use xlink:href="#Helvetica-69" transform="translate(316.943359 0)"/>
       <use xlink:href="#Helvetica-73" transform="translate(339.160156 0)"/>
       <use xlink:href="#Helvetica-74" transform="translate(389.160156 0)"/>
       <use xlink:href="#Helvetica-61" transform="translate(416.943359 0)"/>
       <use xlink:href="#Helvetica-6e" transform="translate(472.558594 0)"/>
       <use xlink:href="#Helvetica-20" transform="translate(528.173828 0)"/>
       <use xlink:href="#Helvetica-28" transform="translate(555.957031 0)"/>
       <use xlink:href="#Helvetica-31" transform="translate(589.257812 0)"/>
       <use xlink:href="#Helvetica-39" transform="translate(644.873047 0)"/>
       <use xlink:href="#Helvetica-38" transform="translate(700.488281 0)"/>
       <use xlink:href="#Helvetica-30" transform="translate(756.103516 0)"/>
       <use xlink:href="#Helvetica-2d" transform="translate(811.71875 0)"/>
       <use xlink:href="#Helvetica-31" transform="translate(845.019531 0)"/>
       <use xlink:href="#Helvetica-39" transform="translate(900.634766 0)"/>
       <use xlink:href="#Helvetica-38" transform="translate(956.25 0)"/>
       <use xlink:href="#Helvetica-38" transform="translate(1011.865234 0)"/>
       <use xlink:href="#Helvetica-29" transform="translate(1067.480469 0)"/>
      </g>
     </g>
    </g>
    <g id="ytick_6">
     <g id="line2d_26">
      <g>
       <use xlink:href="#m1e006acb29" x="139.84" y="195.779186" style="stroke: #000000; stroke-width: 0.8"/>
      </g>
     </g>
     <g id="text_17">
      <!-- South Sudan (2014-2018) -->
      <g transform="translate(17.761875 199.441686) scale(0.1 -0.1)">
       <defs>
        <path id="Helvetica-6f" d="M 1741 363 
Q 2300 363 2508 786 
Q 2716 1209 2716 1728 
Q 2716 2197 2566 2491 
Q 2328 2953 1747 2953 
Q 1231 2953 997 2559 
Q 763 2166 763 1609 
Q 763 1075 997 719 
Q 1231 363 1741 363 
z
M 1763 3444 
Q 2409 3444 2856 3012 
Q 3303 2581 3303 1744 
Q 3303 934 2909 406 
Q 2516 -122 1688 -122 
Q 997 -122 590 345 
Q 184 813 184 1600 
Q 184 2444 612 2944 
Q 1041 3444 1763 3444 
z
M 1744 3428 
L 1744 3428 
z
" transform="scale(0.015625)"/>
        <path id="Helvetica-64" d="M 769 1634 
Q 769 1097 997 734 
Q 1225 372 1728 372 
Q 2119 372 2370 708 
Q 2622 1044 2622 1672 
Q 2622 2306 2362 2611 
Q 2103 2916 1722 2916 
Q 1297 2916 1033 2591 
Q 769 2266 769 1634 
z
M 1616 3406 
Q 2000 3406 2259 3244 
Q 2409 3150 2600 2916 
L 2600 4606 
L 3141 4606 
L 3141 0 
L 2634 0 
L 2634 466 
Q 2438 156 2169 18 
Q 1900 -119 1553 -119 
Q 994 -119 584 351 
Q 175 822 175 1603 
Q 175 2334 548 2870 
Q 922 3406 1616 3406 
z
" transform="scale(0.015625)"/>
       </defs>
       <use xlink:href="#Helvetica-53"/>
       <use xlink:href="#Helvetica-6f" transform="translate(66.699219 0)"/>
       <use xlink:href="#Helvetica-75" transform="translate(122.314453 0)"/>
       <use xlink:href="#Helvetica-74" transform="translate(177.929688 0)"/>
       <use xlink:href="#Helvetica-68" transform="translate(205.712891 0)"/>
       <use xlink:href="#Helvetica-20" transform="translate(261.328125 0)"/>
       <use xlink:href="#Helvetica-53" transform="translate(289.111328 0)"/>
       <use xlink:href="#Helvetica-75" transform="translate(355.810547 0)"/>
       <use xlink:href="#Helvetica-64" transform="translate(411.425781 0)"/>
       <use xlink:href="#Helvetica-61" transform="translate(467.041016 0)"/>
       <use xlink:href="#Helvetica-6e" transform="translate(522.65625 0)"/>
       <use xlink:href="#Helvetica-20" transform="translate(578.271484 0)"/>
       <use xlink:href="#Helvetica-28" transform="translate(606.054688 0)"/>
       <use xlink:href="#Helvetica-32" transform="translate(639.355469 0)"/>
       <use xlink:href="#Helvetica-30" transform="translate(694.970703 0)"/>
       <use xlink:href="#Helvetica-31" transform="translate(750.585938 0)"/>
       <use xlink:href="#Helvetica-34" transform="translate(806.201172 0)"/>
       <use xlink:href="#Helvetica-2d" transform="translate(861.816406 0)"/>
       <use xlink:href="#Helvetica-32" transform="translate(895.117188 0)"/>
       <use xlink:href="#Helvetica-30" transform="translate(950.732422 0)"/>
       <use xlink:href="#Helvetica-31" transform="translate(1006.347656 0)"/>
       <use xlink:href="#Helvetica-38" transform="translate(1061.962891 0)"/>
       <use xlink:href="#Helvetica-29" transform="translate(1117.578125 0)"/>
      </g>
     </g>
    </g>
    <g id="ytick_7">
     <g id="line2d_27">
      <g>
       <use xlink:href="#m1e006acb29" x="139.84" y="222.712064" style="stroke: #000000; stroke-width: 0.8"/>
      </g>
     </g>
     <g id="text_18">
      <!-- Sudan (2022-2025) -->
      <g transform="translate(46.67125 226.374564) scale(0.1 -0.1)">
       <use xlink:href="#Helvetica-53"/>
       <use xlink:href="#Helvetica-75" transform="translate(66.699219 0)"/>
       <use xlink:href="#Helvetica-64" transform="translate(122.314453 0)"/>
       <use xlink:href="#Helvetica-61" transform="translate(177.929688 0)"/>
       <use xlink:href="#Helvetica-6e" transform="translate(233.544922 0)"/>
       <use xlink:href="#Helvetica-20" transform="translate(289.160156 0)"/>
       <use xlink:href="#Helvetica-28" transform="translate(316.943359 0)"/>
       <use xlink:href="#Helvetica-32" transform="translate(350.244141 0)"/>
       <use xlink:href="#Helvetica-30" transform="translate(405.859375 0)"/>
       <use xlink:href="#Helvetica-32" transform="translate(461.474609 0)"/>
       <use xlink:href="#Helvetica-32" transform="translate(517.089844 0)"/>
       <use xlink:href="#Helvetica-2d" transform="translate(572.705078 0)"/>
       <use xlink:href="#Helvetica-32" transform="translate(606.005859 0)"/>
       <use xlink:href="#Helvetica-30" transform="translate(661.621094 0)"/>
       <use xlink:href="#Helvetica-32" transform="translate(717.236328 0)"/>
       <use xlink:href="#Helvetica-35" transform="translate(772.851562 0)"/>
       <use xlink:href="#Helvetica-29" transform="translate(828.466797 0)"/>
      </g>
     </g>
    </g>
    <g id="ytick_8">
     <g id="line2d_28">
      <g>
       <use xlink:href="#m1e006acb29" x="139.84" y="249.644941" style="stroke: #000000; stroke-width: 0.8"/>
      </g>
     </g>
     <g id="text_19">
      <!-- Rwanda (1994-1996) -->
      <g transform="translate(38.897813 253.268379) scale(0.1 -0.1)">
       <defs>
        <path id="Helvetica-52" d="M 2622 2488 
Q 3059 2488 3314 2663 
Q 3569 2838 3569 3294 
Q 3569 3784 3213 3963 
Q 3022 4056 2703 4056 
L 1184 4056 
L 1184 2488 
L 2622 2488 
z
M 563 4591 
L 2688 4591 
Q 3213 4591 3553 4438 
Q 4200 4144 4200 3353 
Q 4200 2941 4029 2678 
Q 3859 2416 3553 2256 
Q 3822 2147 3958 1969 
Q 4094 1791 4109 1391 
L 4131 775 
Q 4141 513 4175 384 
Q 4231 166 4375 103 
L 4375 0 
L 3613 0 
Q 3581 59 3562 153 
Q 3544 247 3531 516 
L 3494 1281 
Q 3472 1731 3159 1884 
Q 2981 1969 2600 1969 
L 1184 1969 
L 1184 0 
L 563 0 
L 563 4591 
z
" transform="scale(0.015625)"/>
        <path id="Helvetica-77" d="M 672 3347 
L 1316 709 
L 1969 3347 
L 2600 3347 
L 3256 725 
L 3941 3347 
L 4503 3347 
L 3531 0 
L 2947 0 
L 2266 2591 
L 1606 0 
L 1022 0 
L 56 3347 
L 672 3347 
z
" transform="scale(0.015625)"/>
       </defs>
       <use xlink:href="#Helvetica-52"/>
       <use xlink:href="#Helvetica-77" transform="translate(72.216797 0)"/>
       <use xlink:href="#Helvetica-61" transform="translate(144.433594 0)"/>
       <use xlink:href="#Helvetica-6e" transform="translate(200.048828 0)"/>
       <use xlink:href="#Helvetica-64" transform="translate(255.664062 0)"/>
       <use xlink:href="#Helvetica-61" transform="translate(311.279297 0)"/>
       <use xlink:href="#Helvetica-20" transform="translate(366.894531 0)"/>
       <use xlink:href="#Helvetica-28" transform="translate(394.677734 0)"/>
       <use xlink:href="#Helvetica-31" transform="translate(427.978516 0)"/>
       <use xlink:href="#Helvetica-39" transform="translate(483.59375 0)"/>
       <use xlink:href="#Helvetica-39" transform="translate(539.208984 0)"/>
       <use xlink:href="#Helvetica-34" transform="translate(594.824219 0)"/>
       <use xlink:href="#Helvetica-2d" transform="translate(650.439453 0)"/>
       <use xlink:href="#Helvetica-31" transform="translate(683.740234 0)"/>
       <use xlink:href="#Helvetica-39" transform="translate(739.355469 0)"/>
       <use xlink:href="#Helvetica-39" transform="translate(794.970703 0)"/>
       <use xlink:href="#Helvetica-36" transform="translate(850.585938 0)"/>
       <use xlink:href="#Helvetica-29" transform="translate(906.201172 0)"/>
      </g>
     </g>
    </g>
    <g id="ytick_9">
     <g id="line2d_29">
      <g>
       <use xlink:href="#m1e006acb29" x="139.84" y="276.577819" style="stroke: #000000; stroke-width: 0.8"/>
      </g>
     </g>
     <g id="text_20">
      <!-- Ethiopia (1977-1980) -->
      <g transform="translate(39.449375 280.223131) scale(0.1 -0.1)">
       <defs>
        <path id="Helvetica-45" d="M 547 4591 
L 3894 4591 
L 3894 4028 
L 1153 4028 
L 1153 2634 
L 3688 2634 
L 3688 2103 
L 1153 2103 
L 1153 547 
L 3941 547 
L 3941 0 
L 547 0 
L 547 4591 
z
M 2244 4591 
L 2244 4591 
z
" transform="scale(0.015625)"/>
        <path id="Helvetica-70" d="M 1825 378 
Q 2219 378 2480 708 
Q 2741 1038 2741 1694 
Q 2741 2094 2625 2381 
Q 2406 2934 1825 2934 
Q 1241 2934 1025 2350 
Q 909 2038 909 1556 
Q 909 1169 1025 897 
Q 1244 378 1825 378 
z
M 369 3331 
L 916 3331 
L 916 2888 
Q 1084 3116 1284 3241 
Q 1569 3428 1953 3428 
Q 2522 3428 2919 2992 
Q 3316 2556 3316 1747 
Q 3316 653 2744 184 
Q 2381 -113 1900 -113 
Q 1522 -113 1266 53 
Q 1116 147 931 375 
L 931 -1334 
L 369 -1334 
L 369 3331 
z
" transform="scale(0.015625)"/>
       </defs>
       <use xlink:href="#Helvetica-45"/>
       <use xlink:href="#Helvetica-74" transform="translate(66.699219 0)"/>
       <use xlink:href="#Helvetica-68" transform="translate(94.482422 0)"/>
       <use xlink:href="#Helvetica-69" transform="translate(150.097656 0)"/>
       <use xlink:href="#Helvetica-6f" transform="translate(172.314453 0)"/>
       <use xlink:href="#Helvetica-70" transform="translate(227.929688 0)"/>
       <use xlink:href="#Helvetica-69" transform="translate(283.544922 0)"/>
       <use xlink:href="#Helvetica-61" transform="translate(305.761719 0)"/>
       <use xlink:href="#Helvetica-20" transform="translate(361.376953 0)"/>
       <use xlink:href="#Helvetica-28" transform="translate(389.160156 0)"/>
       <use xlink:href="#Helvetica-31" transform="translate(422.460938 0)"/>
       <use xlink:href="#Helvetica-39" transform="translate(478.076172 0)"/>
       <use xlink:href="#Helvetica-37" transform="translate(533.691406 0)"/>
       <use xlink:href="#Helvetica-37" transform="translate(589.306641 0)"/>
       <use xlink:href="#Helvetica-2d" transform="translate(644.921875 0)"/>
       <use xlink:href="#Helvetica-31" transform="translate(678.222656 0)"/>
       <use xlink:href="#Helvetica-39" transform="translate(733.837891 0)"/>
       <use xlink:href="#Helvetica-38" transform="translate(789.453125 0)"/>
       <use xlink:href="#Helvetica-30" transform="translate(845.068359 0)"/>
       <use xlink:href="#Helvetica-29" transform="translate(900.683594 0)"/>
      </g>
     </g>
    </g>
    <g id="ytick_10">
     <g id="line2d_30">
      <g>
       <use xlink:href="#m1e006acb29" x="139.84" y="303.510696" style="stroke: #000000; stroke-width: 0.8"/>
      </g>
     </g>
     <g id="text_21">
      <!-- Serbia/Kosovo (1988-2006) -->
      <g transform="translate(10.549375 307.173196) scale(0.1 -0.1)">
       <defs>
        <path id="Helvetica-62" d="M 369 4606 
L 916 4606 
L 916 2941 
Q 1100 3181 1356 3307 
Q 1613 3434 1913 3434 
Q 2538 3434 2927 3004 
Q 3316 2575 3316 1738 
Q 3316 944 2931 419 
Q 2547 -106 1866 -106 
Q 1484 -106 1222 78 
Q 1066 188 888 428 
L 888 0 
L 369 0 
L 369 4606 
z
M 1831 391 
Q 2288 391 2514 753 
Q 2741 1116 2741 1709 
Q 2741 2238 2514 2584 
Q 2288 2931 1847 2931 
Q 1463 2931 1173 2647 
Q 884 2363 884 1709 
Q 884 1238 1003 944 
Q 1225 391 1831 391 
z
" transform="scale(0.015625)"/>
        <path id="Helvetica-2f" d="M 1456 4591 
L 1931 4591 
L 475 0 
L 0 0 
L 1456 4591 
z
" transform="scale(0.015625)"/>
        <path id="Helvetica-4b" d="M 488 4591 
L 1094 4591 
L 1094 2353 
L 3331 4591 
L 4191 4591 
L 2281 2741 
L 4244 0 
L 3434 0 
L 1828 2303 
L 1094 1600 
L 1094 0 
L 488 0 
L 488 4591 
z
" transform="scale(0.015625)"/>
        <path id="Helvetica-76" d="M 688 3347 
L 1581 622 
L 2516 3347 
L 3131 3347 
L 1869 0 
L 1269 0 
L 34 3347 
L 688 3347 
z
" transform="scale(0.015625)"/>
       </defs>
       <use xlink:href="#Helvetica-53"/>
       <use xlink:href="#Helvetica-65" transform="translate(66.699219 0)"/>
       <use xlink:href="#Helvetica-72" transform="translate(122.314453 0)"/>
       <use xlink:href="#Helvetica-62" transform="translate(155.615234 0)"/>
       <use xlink:href="#Helvetica-69" transform="translate(211.230469 0)"/>
       <use xlink:href="#Helvetica-61" transform="translate(233.447266 0)"/>
       <use xlink:href="#Helvetica-2f" transform="translate(289.0625 0)"/>
       <use xlink:href="#Helvetica-4b" transform="translate(316.845703 0)"/>
       <use xlink:href="#Helvetica-6f" transform="translate(383.544922 0)"/>
       <use xlink:href="#Helvetica-73" transform="translate(439.160156 0)"/>
       <use xlink:href="#Helvetica-6f" transform="translate(489.160156 0)"/>
       <use xlink:href="#Helvetica-76" transform="translate(544.775391 0)"/>
       <use xlink:href="#Helvetica-6f" transform="translate(594.775391 0)"/>
       <use xlink:href="#Helvetica-20" transform="translate(650.390625 0)"/>
       <use xlink:href="#Helvetica-28" transform="translate(678.173828 0)"/>
       <use xlink:href="#Helvetica-31" transform="translate(711.474609 0)"/>
       <use xlink:href="#Helvetica-39" transform="translate(767.089844 0)"/>
       <use xlink:href="#Helvetica-38" transform="translate(822.705078 0)"/>
       <use xlink:href="#Helvetica-38" transform="translate(878.320312 0)"/>
       <use xlink:href="#Helvetica-2d" transform="translate(933.935547 0)"/>
       <use xlink:href="#Helvetica-32" transform="translate(967.236328 0)"/>
       <use xlink:href="#Helvetica-30" transform="translate(1022.851562 0)"/>
       <use xlink:href="#Helvetica-30" transform="translate(1078.466797 0)"/>
       <use xlink:href="#Helvetica-36" transform="translate(1134.082031 0)"/>
       <use xlink:href="#Helvetica-29" transform="translate(1189.697266 0)"/>
      </g>
     </g>
    </g>
    <g id="ytick_11">
     <g id="line2d_31">
      <g>
       <use xlink:href="#m1e006acb29" x="139.84" y="330.443574" style="stroke: #000000; stroke-width: 0.8"/>
      </g>
     </g>
     <g id="text_22">
      <!-- Iraq (1991-1991) -->
      <g transform="translate(58.355625 334.088886) scale(0.1 -0.1)">
       <defs>
        <path id="Helvetica-49" d="M 628 4591 
L 1256 4591 
L 1256 0 
L 628 0 
L 628 4591 
z
" transform="scale(0.015625)"/>
        <path id="Helvetica-71" d="M 775 1628 
Q 775 1194 897 900 
Q 1113 378 1669 378 
Q 2256 378 2478 928 
Q 2600 1231 2600 1703 
Q 2600 2138 2466 2428 
Q 2238 2925 1663 2925 
Q 1297 2925 1036 2608 
Q 775 2291 775 1628 
z
M 1606 3422 
Q 2022 3422 2306 3213 
Q 2463 3100 2606 2881 
L 2606 3347 
L 3141 3347 
L 3141 -1334 
L 2575 -1334 
L 2575 384 
Q 2434 159 2186 26 
Q 1938 -106 1566 -106 
Q 1031 -106 609 312 
Q 188 731 188 1588 
Q 188 2391 583 2906 
Q 978 3422 1606 3422 
z
" transform="scale(0.015625)"/>
       </defs>
       <use xlink:href="#Helvetica-49"/>
       <use xlink:href="#Helvetica-72" transform="translate(27.783203 0)"/>
       <use xlink:href="#Helvetica-61" transform="translate(61.083984 0)"/>
       <use xlink:href="#Helvetica-71" transform="translate(116.699219 0)"/>
       <use xlink:href="#Helvetica-20" transform="translate(172.314453 0)"/>
       <use xlink:href="#Helvetica-28" transform="translate(200.097656 0)"/>
       <use xlink:href="#Helvetica-31" transform="translate(233.398438 0)"/>
       <use xlink:href="#Helvetica-39" transform="translate(289.013672 0)"/>
       <use xlink:href="#Helvetica-39" transform="translate(344.628906 0)"/>
       <use xlink:href="#Helvetica-31" transform="translate(400.244141 0)"/>
       <use xlink:href="#Helvetica-2d" transform="translate(455.859375 0)"/>
       <use xlink:href="#Helvetica-31" transform="translate(489.160156 0)"/>
       <use xlink:href="#Helvetica-39" transform="translate(544.775391 0)"/>
       <use xlink:href="#Helvetica-39" transform="translate(600.390625 0)"/>
       <use xlink:href="#Helvetica-31" transform="translate(656.005859 0)"/>
       <use xlink:href="#Helvetica-29" transform="translate(711.621094 0)"/>
      </g>
     </g>
    </g>
    <g id="ytick_12">
     <g id="line2d_32">
      <g>
       <use xlink:href="#m1e006acb29" x="139.84" y="357.376451" style="stroke: #000000; stroke-width: 0.8"/>
      </g>
     </g>
     <g id="text_23">
      <!-- Somalia (2005-2014) -->
      <g transform="translate(39.45875 361.038951) scale(0.1 -0.1)">
       <defs>
        <path id="Helvetica-6d" d="M 413 3347 
L 969 3347 
L 969 2872 
Q 1169 3119 1331 3231 
Q 1609 3422 1963 3422 
Q 2363 3422 2606 3225 
Q 2744 3113 2856 2894 
Q 3044 3163 3297 3292 
Q 3550 3422 3866 3422 
Q 4541 3422 4784 2934 
Q 4916 2672 4916 2228 
L 4916 0 
L 4331 0 
L 4331 2325 
Q 4331 2659 4164 2784 
Q 3997 2909 3756 2909 
Q 3425 2909 3186 2687 
Q 2947 2466 2947 1947 
L 2947 0 
L 2375 0 
L 2375 2184 
Q 2375 2525 2294 2681 
Q 2166 2916 1816 2916 
Q 1497 2916 1236 2669 
Q 975 2422 975 1775 
L 975 0 
L 413 0 
L 413 3347 
z
" transform="scale(0.015625)"/>
       </defs>
       <use xlink:href="#Helvetica-53"/>
       <use xlink:href="#Helvetica-6f" transform="translate(66.699219 0)"/>
       <use xlink:href="#Helvetica-6d" transform="translate(122.314453 0)"/>
       <use xlink:href="#Helvetica-61" transform="translate(205.615234 0)"/>
       <use xlink:href="#Helvetica-6c" transform="translate(261.230469 0)"/>
       <use xlink:href="#Helvetica-69" transform="translate(283.447266 0)"/>
       <use xlink:href="#Helvetica-61" transform="translate(305.664062 0)"/>
       <use xlink:href="#Helvetica-20" transform="translate(361.279297 0)"/>
       <use xlink:href="#Helvetica-28" transform="translate(389.0625 0)"/>
       <use xlink:href="#Helvetica-32" transform="translate(422.363281 0)"/>
       <use xlink:href="#Helvetica-30" transform="translate(477.978516 0)"/>
       <use xlink:href="#Helvetica-30" transform="translate(533.59375 0)"/>
       <use xlink:href="#Helvetica-35" transform="translate(589.208984 0)"/>
       <use xlink:href="#Helvetica-2d" transform="translate(644.824219 0)"/>
       <use xlink:href="#Helvetica-32" transform="translate(678.125 0)"/>
       <use xlink:href="#Helvetica-30" transform="translate(733.740234 0)"/>
       <use xlink:href="#Helvetica-31" transform="translate(789.355469 0)"/>
       <use xlink:href="#Helvetica-34" transform="translate(844.970703 0)"/>
       <use xlink:href="#Helvetica-29" transform="translate(900.585938 0)"/>
      </g>
     </g>
    </g>
   </g>
   <g id="patch_27">
    <path d="M 139.84 384.04 
L 139.84 34.45125 
" style="fill: none; opacity: 0.2; stroke: #000000; stroke-width: 0.8; stroke-linejoin: miter; stroke-linecap: square"/>
   </g>
   <g id="patch_28">
    <path d="M 853.2 384.04 
L 853.2 34.45125 
" style="fill: none; opacity: 0.2; stroke: #000000; stroke-width: 0.8; stroke-linejoin: miter; stroke-linecap: square"/>
   </g>
   <g id="patch_29">
    <path d="M 139.84 384.04 
L 853.2 384.04 
" style="fill: none; opacity: 0.2; stroke: #000000; stroke-width: 0.8; stroke-linejoin: miter; stroke-linecap: square"/>
   </g>
   <g id="patch_30">
    <path d="M 139.84 34.45125 
L 853.2 34.45125 
" style="fill: none; opacity: 0.2; stroke: #000000; stroke-width: 0.8; stroke-linejoin: miter; stroke-linecap: square"/>
   </g>
   <g id="text_24">
    <!-- Top 12 Episodes by Total Displaced -->
    <g transform="translate(400.473125 19.45125) scale(0.12 -0.12)">
     <defs>
      <path id="Helvetica-54" d="M 3828 4591 
L 3828 4044 
L 2281 4044 
L 2281 0 
L 1650 0 
L 1650 4044 
L 103 4044 
L 103 4591 
L 3828 4591 
z
" transform="scale(0.015625)"/>
      <path id="Helvetica-44" d="M 2250 531 
Q 2566 531 2769 597 
Q 3131 719 3363 1066 
Q 3547 1344 3628 1778 
Q 3675 2038 3675 2259 
Q 3675 3113 3336 3584 
Q 2997 4056 2244 4056 
L 1141 4056 
L 1141 531 
L 2250 531 
z
M 516 4591 
L 2375 4591 
Q 3322 4591 3844 3919 
Q 4309 3313 4309 2366 
Q 4309 1634 4034 1044 
Q 3550 0 2369 0 
L 516 0 
L 516 4591 
z
" transform="scale(0.015625)"/>
      <path id="Helvetica-63" d="M 1703 3444 
Q 2269 3444 2623 3169 
Q 2978 2894 3050 2222 
L 2503 2222 
Q 2453 2531 2275 2736 
Q 2097 2941 1703 2941 
Q 1166 2941 934 2416 
Q 784 2075 784 1575 
Q 784 1072 996 728 
Q 1209 384 1666 384 
Q 2016 384 2220 598 
Q 2425 813 2503 1184 
L 3050 1184 
Q 2956 519 2581 211 
Q 2206 -97 1622 -97 
Q 966 -97 575 383 
Q 184 863 184 1581 
Q 184 2463 612 2953 
Q 1041 3444 1703 3444 
z
M 1616 3428 
L 1616 3428 
z
" transform="scale(0.015625)"/>
     </defs>
     <use xlink:href="#Helvetica-54"/>
     <use xlink:href="#Helvetica-6f" transform="translate(61.083984 0)"/>
     <use xlink:href="#Helvetica-70" transform="translate(116.699219 0)"/>
     <use xlink:href="#Helvetica-20" transform="translate(172.314453 0)"/>
     <use xlink:href="#Helvetica-31" transform="translate(200.097656 0)"/>
     <use xlink:href="#Helvetica-32" transform="translate(255.712891 0)"/>
     <use xlink:href="#Helvetica-20" transform="translate(311.328125 0)"/>
     <use xlink:href="#Helvetica-45" transform="translate(339.111328 0)"/>
     <use xlink:href="#Helvetica-70" transform="translate(405.810547 0)"/>
     <use xlink:href="#Helvetica-69" transform="translate(461.425781 0)"/>
     <use xlink:href="#Helvetica-73" transform="translate(483.642578 0)"/>
     <use xlink:href="#Helvetica-6f" transform="translate(533.642578 0)"/>
     <use xlink:href="#Helvetica-64" transform="translate(589.257812 0)"/>
     <use xlink:href="#Helvetica-65" transform="translate(644.873047 0)"/>
     <use xlink:href="#Helvetica-73" transform="translate(700.488281 0)"/>
     <use xlink:href="#Helvetica-20" transform="translate(750.488281 0)"/>
     <use xlink:href="#Helvetica-62" transform="translate(778.271484 0)"/>
     <use xlink:href="#Helvetica-79" transform="translate(833.886719 0)"/>
     <use xlink:href="#Helvetica-20" transform="translate(883.886719 0)"/>
     <use xlink:href="#Helvetica-54" transform="translate(911.669922 0)"/>
     <use xlink:href="#Helvetica-6f" transform="translate(972.753906 0)"/>
     <use xlink:href="#Helvetica-74" transform="translate(1028.369141 0)"/>
     <use xlink:href="#Helvetica-61" transform="translate(1056.152344 0)"/>
     <use xlink:href="#Helvetica-6c" transform="translate(1111.767578 0)"/>
     <use xlink:href="#Helvetica-20" transform="translate(1133.984375 0)"/>
     <use xlink:href="#Helvetica-44" transform="translate(1161.767578 0)"/>
     <use xlink:href="#Helvetica-69" transform="translate(1233.984375 0)"/>
     <use xlink:href="#Helvetica-73" transform="translate(1256.201172 0)"/>
     <use xlink:href="#Helvetica-70" transform="translate(1306.201172 0)"/>
     <use xlink:href="#Helvetica-6c" transform="translate(1361.816406 0)"/>
     <use xlink:href="#Helvetica-61" transform="translate(1384.033203 0)"/>
     <use xlink:href="#Helvetica-63" transform="translate(1439.648438 0)"/>
     <use xlink:href="#Helvetica-65" transform="translate(1489.648438 0)"/>
     <use xlink:href="#Helvetica-64" transform="translate(1545.263672 0)"/>
    </g>
   </g>
  </g>
 </g>
 <defs>
  <clipPath id="pc2944a33bf">
   <rect x="139.84" y="34.45125" width="713.36" height="349.58875"/>
  </clipPath>
 </defs>
</svg>
