<?xml version="1.0" encoding="utf-8" standalone="no"?>
<!DOCTYPE svg PUBLIC "-//W3C//DTD SVG 1.1//EN"
  "http://www.w3.org/Graphics/SVG/1.1/DTD/svg11.dtd">
<svg xmlns:xlink="http://www.w3.org/1999/xlink" width="864pt" height="432pt" viewBox="0 0 864 432" xmlns="http://www.w3.org/2000/svg" version="1.1">
 <metadata>
  <rdf:RDF xmlns:dc="http://purl.org/dc/elements/1.1/" xmlns:cc="http://creativecommons.org/ns#" xmlns:rdf="http://www.w3.org/1999/02/22-rdf-syntax-ns#">
   <cc:Work>
    <dc:type rdf:resource="http://purl.org/dc/dcmitype/StillImage"/>
    <dc:date>2026-03-30T15:09:51.171559</dc:date>
    <dc:format>image/svg+xml</dc:format>
    <dc:creator>
     <cc:Agent>
      <dc:title>Matplotlib v3.10.8, https://matplotlib.org/</dc:title>
     </cc:Agent>
    </dc:creator>
   </cc:Work>
  </rdf:RDF>
 </metadata>
 <defs>
  <style type="text/css">*{stroke-linejoin: round; stroke-linecap: butt}</style>
 </defs>
 <g id="figure_1">
  <g id="patch_1">
   <path d="M 0 432 
L 864 432 
L 864 0 
L 0 0 
z
" style="fill: #ffffff"/>
  </g>
  <g id="axes_1">
   <g id="patch_2">
    <path d="M 68.17 350.999873 
L 711.198 350.999873 
L 711.198 35.88 
L 68.17 35.88 
z
" style="fill: #ffffff"/>
   </g>
   <g id="matplotlib.axis_1">
    <g id="xtick_1">
     <g id="line2d_1">
      <path d="M 68.17 350.999873 
L 68.17 35.88 
" clip-path="url(#pe66419fcc3)" style="fill: none; stroke: #b0b0b0; stroke-opacity: 0.2; stroke-width: 0.8; stroke-linecap: square"/>
     </g>
     <g id="line2d_2">
      <defs>
       <path id="m8c1b16b8b1" d="M 0 0 
L 0 3.5 
" style="stroke: #000000; stroke-width: 0.8"/>
      </defs>
      <g>
       <use xlink:href="#m8c1b16b8b1" x="68.17" y="350.999873" style="stroke: #000000; stroke-width: 0.8"/>
      </g>
     </g>
     <g id="text_1">
      <!-- Jul -->
      <g transform="translate(65.85533 371.904465) rotate(-45) scale(0.1 -0.1)">
       <defs>
        <path id="DejaVuSans-4a" d="M 628 4666 
L 1259 4666 
L 1259 325 
Q 1259 -519 939 -900 
Q 619 -1281 -91 -1281 
L -331 -1281 
L -331 -750 
L -134 -750 
Q 284 -750 456 -515 
Q 628 -281 628 325 
L 628 4666 
z
" transform="scale(0.015625)"/>
        <path id="DejaVuSans-75" d="M 544 1381 
L 544 3500 
L 1119 3500 
L 1119 1403 
Q 1119 906 1312 657 
Q 1506 409 1894 409 
Q 2359 409 2629 706 
Q 2900 1003 2900 1516 
L 2900 3500 
L 3475 3500 
L 3475 0 
L 2900 0 
L 2900 538 
Q 2691 219 2414 64 
Q 2138 -91 1772 -91 
Q 1169 -91 856 284 
Q 544 659 544 1381 
z
M 1991 3584 
L 1991 3584 
z
" transform="scale(0.015625)"/>
        <path id="DejaVuSans-6c" d="M 603 4863 
L 1178 4863 
L 1178 0 
L 603 0 
L 603 4863 
z
" transform="scale(0.015625)"/>
       </defs>
       <use xlink:href="#DejaVuSans-4a"/>
       <use xlink:href="#DejaVuSans-75" transform="translate(29.492188 0)"/>
       <use xlink:href="#DejaVuSans-6c" transform="translate(92.871094 0)"/>
      </g>
     </g>
    </g>
    <g id="xtick_2">
     <g id="line2d_3">
      <path d="M 96.127739 350.999873 
L 96.127739 35.88 
" clip-path="url(#pe66419fcc3)" style="fill: none; stroke: #b0b0b0; stroke-opacity: 0.2; stroke-width: 0.8; stroke-linecap: square"/>
     </g>
     <g id="line2d_4">
      <g>
       <use xlink:href="#m8c1b16b8b1" x="96.127739" y="350.999873" style="stroke: #000000; stroke-width: 0.8"/>
      </g>
     </g>
     <g id="text_2">
      <!-- Aug -->
      <g transform="translate(91.17523 377.180145) rotate(-45) scale(0.1 -0.1)">
       <defs>
        <path id="DejaVuSans-41" d="M 2188 4044 
L 1331 1722 
L 3047 1722 
L 2188 4044 
z
M 1831 4666 
L 2547 4666 
L 4325 0 
L 3669 0 
L 3244 1197 
L 1141 1197 
L 716 0 
L 50 0 
L 1831 4666 
z
" transform="scale(0.015625)"/>
        <path id="DejaVuSans-67" d="M 2906 1791 
Q 2906 2416 2648 2759 
Q 2391 3103 1925 3103 
Q 1463 3103 1205 2759 
Q 947 2416 947 1791 
Q 947 1169 1205 825 
Q 1463 481 1925 481 
Q 2391 481 2648 825 
Q 2906 1169 2906 1791 
z
M 3481 434 
Q 3481 -459 3084 -895 
Q 2688 -1331 1869 -1331 
Q 1566 -1331 1297 -1286 
Q 1028 -1241 775 -1147 
L 775 -588 
Q 1028 -725 1275 -790 
Q 1522 -856 1778 -856 
Q 2344 -856 2625 -561 
Q 2906 -266 2906 331 
L 2906 616 
Q 2728 306 2450 153 
Q 2172 0 1784 0 
Q 1141 0 747 490 
Q 353 981 353 1791 
Q 353 2603 747 3093 
Q 1141 3584 1784 3584 
Q 2172 3584 2450 3431 
Q 2728 3278 2906 2969 
L 2906 3500 
L 3481 3500 
L 3481 434 
z
" transform="scale(0.015625)"/>
       </defs>
       <use xlink:href="#DejaVuSans-41"/>
       <use xlink:href="#DejaVuSans-75" transform="translate(68.408203 0)"/>
       <use xlink:href="#DejaVuSans-67" transform="translate(131.787109 0)"/>
      </g>
     </g>
    </g>
    <g id="xtick_3">
     <g id="line2d_5">
      <path d="M 124.085478 350.999873 
L 124.085478 35.88 
" clip-path="url(#pe66419fcc3)" style="fill: none; stroke: #b0b0b0; stroke-opacity: 0.2; stroke-width: 0.8; stroke-linecap: square"/>
     </g>
     <g id="line2d_6">
      <g>
       <use xlink:href="#m8c1b16b8b1" x="124.085478" y="350.999873" style="stroke: #000000; stroke-width: 0.8"/>
      </g>
     </g>
     <g id="text_3">
      <!-- Sep -->
      <g transform="translate(119.37217 376.701743) rotate(-45) scale(0.1 -0.1)">
       <defs>
        <path id="DejaVuSans-53" d="M 3425 4513 
L 3425 3897 
Q 3066 4069 2747 4153 
Q 2428 4238 2131 4238 
Q 1616 4238 1336 4038 
Q 1056 3838 1056 3469 
Q 1056 3159 1242 3001 
Q 1428 2844 1947 2747 
L 2328 2669 
Q 3034 2534 3370 2195 
Q 3706 1856 3706 1288 
Q 3706 609 3251 259 
Q 2797 -91 1919 -91 
Q 1588 -91 1214 -16 
Q 841 59 441 206 
L 441 856 
Q 825 641 1194 531 
Q 1563 422 1919 422 
Q 2459 422 2753 634 
Q 3047 847 3047 1241 
Q 3047 1584 2836 1778 
Q 2625 1972 2144 2069 
L 1759 2144 
Q 1053 2284 737 2584 
Q 422 2884 422 3419 
Q 422 4038 858 4394 
Q 1294 4750 2059 4750 
Q 2388 4750 2728 4690 
Q 3069 4631 3425 4513 
z
" transform="scale(0.015625)"/>
        <path id="DejaVuSans-65" d="M 3597 1894 
L 3597 1613 
L 953 1613 
Q 991 1019 1311 708 
Q 1631 397 2203 397 
Q 2534 397 2845 478 
Q 3156 559 3463 722 
L 3463 178 
Q 3153 47 2828 -22 
Q 2503 -91 2169 -91 
Q 1331 -91 842 396 
Q 353 884 353 1716 
Q 353 2575 817 3079 
Q 1281 3584 2069 3584 
Q 2775 3584 3186 3129 
Q 3597 2675 3597 1894 
z
M 3022 2063 
Q 3016 2534 2758 2815 
Q 2500 3097 2075 3097 
Q 1594 3097 1305 2825 
Q 1016 2553 972 2059 
L 3022 2063 
z
" transform="scale(0.015625)"/>
        <path id="DejaVuSans-70" d="M 1159 525 
L 1159 -1331 
L 581 -1331 
L 581 3500 
L 1159 3500 
L 1159 2969 
Q 1341 3281 1617 3432 
Q 1894 3584 2278 3584 
Q 2916 3584 3314 3078 
Q 3713 2572 3713 1747 
Q 3713 922 3314 415 
Q 2916 -91 2278 -91 
Q 1894 -91 1617 61 
Q 1341 213 1159 525 
z
M 3116 1747 
Q 3116 2381 2855 2742 
Q 2594 3103 2138 3103 
Q 1681 3103 1420 2742 
Q 1159 2381 1159 1747 
Q 1159 1113 1420 752 
Q 1681 391 2138 391 
Q 2594 391 2855 752 
Q 3116 1113 3116 1747 
z
" transform="scale(0.015625)"/>
       </defs>
       <use xlink:href="#DejaVuSans-53"/>
       <use xlink:href="#DejaVuSans-65" transform="translate(63.476562 0)"/>
       <use xlink:href="#DejaVuSans-70" transform="translate(125 0)"/>
      </g>
     </g>
    </g>
    <g id="xtick_4">
     <g id="line2d_7">
      <path d="M 152.043217 350.999873 
L 152.043217 35.88 
" clip-path="url(#pe66419fcc3)" style="fill: none; stroke: #b0b0b0; stroke-opacity: 0.2; stroke-width: 0.8; stroke-linecap: square"/>
     </g>
     <g id="line2d_8">
      <g>
       <use xlink:href="#m8c1b16b8b1" x="152.043217" y="350.999873" style="stroke: #000000; stroke-width: 0.8"/>
      </g>
     </g>
     <g id="text_4">
      <!-- Oct -->
      <g transform="translate(147.881231 375.599098) rotate(-45) scale(0.1 -0.1)">
       <defs>
        <path id="DejaVuSans-4f" d="M 2522 4238 
Q 1834 4238 1429 3725 
Q 1025 3213 1025 2328 
Q 1025 1447 1429 934 
Q 1834 422 2522 422 
Q 3209 422 3611 934 
Q 4013 1447 4013 2328 
Q 4013 3213 3611 3725 
Q 3209 4238 2522 4238 
z
M 2522 4750 
Q 3503 4750 4090 4092 
Q 4678 3434 4678 2328 
Q 4678 1225 4090 567 
Q 3503 -91 2522 -91 
Q 1538 -91 948 565 
Q 359 1222 359 2328 
Q 359 3434 948 4092 
Q 1538 4750 2522 4750 
z
" transform="scale(0.015625)"/>
        <path id="DejaVuSans-63" d="M 3122 3366 
L 3122 2828 
Q 2878 2963 2633 3030 
Q 2388 3097 2138 3097 
Q 1578 3097 1268 2742 
Q 959 2388 959 1747 
Q 959 1106 1268 751 
Q 1578 397 2138 397 
Q 2388 397 2633 464 
Q 2878 531 3122 666 
L 3122 134 
Q 2881 22 2623 -34 
Q 2366 -91 2075 -91 
Q 1284 -91 818 406 
Q 353 903 353 1747 
Q 353 2603 823 3093 
Q 1294 3584 2113 3584 
Q 2378 3584 2631 3529 
Q 2884 3475 3122 3366 
z
" transform="scale(0.015625)"/>
        <path id="DejaVuSans-74" d="M 1172 4494 
L 1172 3500 
L 2356 3500 
L 2356 3053 
L 1172 3053 
L 1172 1153 
Q 1172 725 1289 603 
Q 1406 481 1766 481 
L 2356 481 
L 2356 0 
L 1766 0 
Q 1100 0 847 248 
Q 594 497 594 1153 
L 594 3053 
L 172 3053 
L 172 3500 
L 594 3500 
L 594 4494 
L 1172 4494 
z
" transform="scale(0.015625)"/>
       </defs>
       <use xlink:href="#DejaVuSans-4f"/>
       <use xlink:href="#DejaVuSans-63" transform="translate(78.710938 0)"/>
       <use xlink:href="#DejaVuSans-74" transform="translate(133.691406 0)"/>
      </g>
     </g>
    </g>
    <g id="xtick_5">
     <g id="line2d_9">
      <path d="M 180.000957 350.999873 
L 180.000957 35.88 
" clip-path="url(#pe66419fcc3)" style="fill: none; stroke: #b0b0b0; stroke-opacity: 0.2; stroke-width: 0.8; stroke-linecap: square"/>
     </g>
     <g id="line2d_10">
      <g>
       <use xlink:href="#m8c1b16b8b1" x="180.000957" y="350.999873" style="stroke: #000000; stroke-width: 0.8"/>
      </g>
     </g>
     <g id="text_5">
      <!-- Nov -->
      <g transform="translate(175.051209 377.174621) rotate(-45) scale(0.1 -0.1)">
       <defs>
        <path id="DejaVuSans-4e" d="M 628 4666 
L 1478 4666 
L 3547 763 
L 3547 4666 
L 4159 4666 
L 4159 0 
L 3309 0 
L 1241 3903 
L 1241 0 
L 628 0 
L 628 4666 
z
" transform="scale(0.015625)"/>
        <path id="DejaVuSans-6f" d="M 1959 3097 
Q 1497 3097 1228 2736 
Q 959 2375 959 1747 
Q 959 1119 1226 758 
Q 1494 397 1959 397 
Q 2419 397 2687 759 
Q 2956 1122 2956 1747 
Q 2956 2369 2687 2733 
Q 2419 3097 1959 3097 
z
M 1959 3584 
Q 2709 3584 3137 3096 
Q 3566 2609 3566 1747 
Q 3566 888 3137 398 
Q 2709 -91 1959 -91 
Q 1206 -91 779 398 
Q 353 888 353 1747 
Q 353 2609 779 3096 
Q 1206 3584 1959 3584 
z
" transform="scale(0.015625)"/>
        <path id="DejaVuSans-76" d="M 191 3500 
L 800 3500 
L 1894 563 
L 2988 3500 
L 3597 3500 
L 2284 0 
L 1503 0 
L 191 3500 
z
" transform="scale(0.015625)"/>
       </defs>
       <use xlink:href="#DejaVuSans-4e"/>
       <use xlink:href="#DejaVuSans-6f" transform="translate(74.804688 0)"/>
       <use xlink:href="#DejaVuSans-76" transform="translate(135.986328 0)"/>
      </g>
     </g>
    </g>
    <g id="xtick_6">
     <g id="line2d_11">
      <path d="M 207.958696 350.999873 
L 207.958696 35.88 
" clip-path="url(#pe66419fcc3)" style="fill: none; stroke: #b0b0b0; stroke-opacity: 0.2; stroke-width: 0.8; stroke-linecap: square"/>
     </g>
     <g id="line2d_12">
      <g>
       <use xlink:href="#m8c1b16b8b1" x="207.958696" y="350.999873" style="stroke: #000000; stroke-width: 0.8"/>
      </g>
     </g>
     <g id="text_6">
      <!-- Dec -->
      <g transform="translate(203.068058 377.056401) rotate(-45) scale(0.1 -0.1)">
       <defs>
        <path id="DejaVuSans-44" d="M 1259 4147 
L 1259 519 
L 2022 519 
Q 2988 519 3436 956 
Q 3884 1394 3884 2338 
Q 3884 3275 3436 3711 
Q 2988 4147 2022 4147 
L 1259 4147 
z
M 628 4666 
L 1925 4666 
Q 3281 4666 3915 4102 
Q 4550 3538 4550 2338 
Q 4550 1131 3912 565 
Q 3275 0 1925 0 
L 628 0 
L 628 4666 
z
" transform="scale(0.015625)"/>
       </defs>
       <use xlink:href="#DejaVuSans-44"/>
       <use xlink:href="#DejaVuSans-65" transform="translate(77.001953 0)"/>
       <use xlink:href="#DejaVuSans-63" transform="translate(138.525391 0)"/>
      </g>
     </g>
    </g>
    <g id="xtick_7">
     <g id="line2d_13">
      <path d="M 235.916435 350.999873 
L 235.916435 35.88 
" clip-path="url(#pe66419fcc3)" style="fill: none; stroke: #b0b0b0; stroke-opacity: 0.2; stroke-width: 0.8; stroke-linecap: square"/>
     </g>
     <g id="line2d_14">
      <g>
       <use xlink:href="#m8c1b16b8b1" x="235.916435" y="350.999873" style="stroke: #000000; stroke-width: 0.8"/>
      </g>
     </g>
     <g id="text_7">
      <!-- Jan 2020 -->
      <g transform="translate(222.29579 394.516414) rotate(-45) scale(0.1 -0.1)">
       <defs>
        <path id="DejaVuSans-61" d="M 2194 1759 
Q 1497 1759 1228 1600 
Q 959 1441 959 1056 
Q 959 750 1161 570 
Q 1363 391 1709 391 
Q 2188 391 2477 730 
Q 2766 1069 2766 1631 
L 2766 1759 
L 2194 1759 
z
M 3341 1997 
L 3341 0 
L 2766 0 
L 2766 531 
Q 2569 213 2275 61 
Q 1981 -91 1556 -91 
Q 1019 -91 701 211 
Q 384 513 384 1019 
Q 384 1609 779 1909 
Q 1175 2209 1959 2209 
L 2766 2209 
L 2766 2266 
Q 2766 2663 2505 2880 
Q 2244 3097 1772 3097 
Q 1472 3097 1187 3025 
Q 903 2953 641 2809 
L 641 3341 
Q 956 3463 1253 3523 
Q 1550 3584 1831 3584 
Q 2591 3584 2966 3190 
Q 3341 2797 3341 1997 
z
" transform="scale(0.015625)"/>
        <path id="DejaVuSans-6e" d="M 3513 2113 
L 3513 0 
L 2938 0 
L 2938 2094 
Q 2938 2591 2744 2837 
Q 2550 3084 2163 3084 
Q 1697 3084 1428 2787 
Q 1159 2491 1159 1978 
L 1159 0 
L 581 0 
L 581 3500 
L 1159 3500 
L 1159 2956 
Q 1366 3272 1645 3428 
Q 1925 3584 2291 3584 
Q 2894 3584 3203 3211 
Q 3513 2838 3513 2113 
z
" transform="scale(0.015625)"/>
        <path id="DejaVuSans-20" transform="scale(0.015625)"/>
        <path id="DejaVuSans-32" d="M 1228 531 
L 3431 531 
L 3431 0 
L 469 0 
L 469 531 
Q 828 903 1448 1529 
Q 2069 2156 2228 2338 
Q 2531 2678 2651 2914 
Q 2772 3150 2772 3378 
Q 2772 3750 2511 3984 
Q 2250 4219 1831 4219 
Q 1534 4219 1204 4116 
Q 875 4013 500 3803 
L 500 4441 
Q 881 4594 1212 4672 
Q 1544 4750 1819 4750 
Q 2544 4750 2975 4387 
Q 3406 4025 3406 3419 
Q 3406 3131 3298 2873 
Q 3191 2616 2906 2266 
Q 2828 2175 2409 1742 
Q 1991 1309 1228 531 
z
" transform="scale(0.015625)"/>
        <path id="DejaVuSans-30" d="M 2034 4250 
Q 1547 4250 1301 3770 
Q 1056 3291 1056 2328 
Q 1056 1369 1301 889 
Q 1547 409 2034 409 
Q 2525 409 2770 889 
Q 3016 1369 3016 2328 
Q 3016 3291 2770 3770 
Q 2525 4250 2034 4250 
z
M 2034 4750 
Q 2819 4750 3233 4129 
Q 3647 3509 3647 2328 
Q 3647 1150 3233 529 
Q 2819 -91 2034 -91 
Q 1250 -91 836 529 
Q 422 1150 422 2328 
Q 422 3509 836 4129 
Q 1250 4750 2034 4750 
z
" transform="scale(0.015625)"/>
       </defs>
       <use xlink:href="#DejaVuSans-4a"/>
       <use xlink:href="#DejaVuSans-61" transform="translate(29.492188 0)"/>
       <use xlink:href="#DejaVuSans-6e" transform="translate(90.771484 0)"/>
       <use xlink:href="#DejaVuSans-20" transform="translate(154.150391 0)"/>
       <use xlink:href="#DejaVuSans-32" transform="translate(185.9375 0)"/>
       <use xlink:href="#DejaVuSans-30" transform="translate(249.560547 0)"/>
       <use xlink:href="#DejaVuSans-32" transform="translate(313.183594 0)"/>
       <use xlink:href="#DejaVuSans-30" transform="translate(376.806641 0)"/>
      </g>
     </g>
    </g>
    <g id="xtick_8">
     <g id="line2d_15">
      <path d="M 263.874174 350.999873 
L 263.874174 35.88 
" clip-path="url(#pe66419fcc3)" style="fill: none; stroke: #b0b0b0; stroke-opacity: 0.2; stroke-width: 0.8; stroke-linecap: square"/>
     </g>
     <g id="line2d_16">
      <g>
       <use xlink:href="#m8c1b16b8b1" x="263.874174" y="350.999873" style="stroke: #000000; stroke-width: 0.8"/>
      </g>
     </g>
     <g id="text_8">
      <!-- Feb -->
      <g transform="translate(259.566347 375.89078) rotate(-45) scale(0.1 -0.1)">
       <defs>
        <path id="DejaVuSans-46" d="M 628 4666 
L 3309 4666 
L 3309 4134 
L 1259 4134 
L 1259 2759 
L 3109 2759 
L 3109 2228 
L 1259 2228 
L 1259 0 
L 628 0 
L 628 4666 
z
" transform="scale(0.015625)"/>
        <path id="DejaVuSans-62" d="M 3116 1747 
Q 3116 2381 2855 2742 
Q 2594 3103 2138 3103 
Q 1681 3103 1420 2742 
Q 1159 2381 1159 1747 
Q 1159 1113 1420 752 
Q 1681 391 2138 391 
Q 2594 391 2855 752 
Q 3116 1113 3116 1747 
z
M 1159 2969 
Q 1341 3281 1617 3432 
Q 1894 3584 2278 3584 
Q 2916 3584 3314 3078 
Q 3713 2572 3713 1747 
Q 3713 922 3314 415 
Q 2916 -91 2278 -91 
Q 1894 -91 1617 61 
Q 1341 213 1159 525 
L 1159 0 
L 581 0 
L 581 4863 
L 1159 4863 
L 1159 2969 
z
" transform="scale(0.015625)"/>
       </defs>
       <use xlink:href="#DejaVuSans-46"/>
       <use xlink:href="#DejaVuSans-65" transform="translate(52.019531 0)"/>
       <use xlink:href="#DejaVuSans-62" transform="translate(113.542969 0)"/>
      </g>
     </g>
    </g>
    <g id="xtick_9">
     <g id="line2d_17">
      <path d="M 291.831913 350.999873 
L 291.831913 35.88 
" clip-path="url(#pe66419fcc3)" style="fill: none; stroke: #b0b0b0; stroke-opacity: 0.2; stroke-width: 0.8; stroke-linecap: square"/>
     </g>
     <g id="line2d_18">
      <g>
       <use xlink:href="#m8c1b16b8b1" x="291.831913" y="350.999873" style="stroke: #000000; stroke-width: 0.8"/>
      </g>
     </g>
     <g id="text_9">
      <!-- Mar -->
      <g transform="translate(287.112528 376.713896) rotate(-45) scale(0.1 -0.1)">
       <defs>
        <path id="DejaVuSans-4d" d="M 628 4666 
L 1569 4666 
L 2759 1491 
L 3956 4666 
L 4897 4666 
L 4897 0 
L 4281 0 
L 4281 4097 
L 3078 897 
L 2444 897 
L 1241 4097 
L 1241 0 
L 628 0 
L 628 4666 
z
" transform="scale(0.015625)"/>
        <path id="DejaVuSans-72" d="M 2631 2963 
Q 2534 3019 2420 3045 
Q 2306 3072 2169 3072 
Q 1681 3072 1420 2755 
Q 1159 2438 1159 1844 
L 1159 0 
L 581 0 
L 581 3500 
L 1159 3500 
L 1159 2956 
Q 1341 3275 1631 3429 
Q 1922 3584 2338 3584 
Q 2397 3584 2469 3576 
Q 2541 3569 2628 3553 
L 2631 2963 
z
" transform="scale(0.015625)"/>
       </defs>
       <use xlink:href="#DejaVuSans-4d"/>
       <use xlink:href="#DejaVuSans-61" transform="translate(86.279297 0)"/>
       <use xlink:href="#DejaVuSans-72" transform="translate(147.558594 0)"/>
      </g>
     </g>
    </g>
    <g id="xtick_10">
     <g id="line2d_19">
      <path d="M 319.789652 350.999873 
L 319.789652 35.88 
" clip-path="url(#pe66419fcc3)" style="fill: none; stroke: #b0b0b0; stroke-opacity: 0.2; stroke-width: 0.8; stroke-linecap: square"/>
     </g>
     <g id="line2d_20">
      <g>
       <use xlink:href="#m8c1b16b8b1" x="319.789652" y="350.999873" style="stroke: #000000; stroke-width: 0.8"/>
      </g>
     </g>
     <g id="text_10">
      <!-- Apr -->
      <g transform="translate(315.624351 375.605727) rotate(-45) scale(0.1 -0.1)">
       <use xlink:href="#DejaVuSans-41"/>
       <use xlink:href="#DejaVuSans-70" transform="translate(68.408203 0)"/>
       <use xlink:href="#DejaVuSans-72" transform="translate(131.884766 0)"/>
      </g>
     </g>
    </g>
    <g id="xtick_11">
     <g id="line2d_21">
      <path d="M 347.747391 350.999873 
L 347.747391 35.88 
" clip-path="url(#pe66419fcc3)" style="fill: none; stroke: #b0b0b0; stroke-opacity: 0.2; stroke-width: 0.8; stroke-linecap: square"/>
     </g>
     <g id="line2d_22">
      <g>
       <use xlink:href="#m8c1b16b8b1" x="347.747391" y="350.999873" style="stroke: #000000; stroke-width: 0.8"/>
      </g>
     </g>
     <g id="text_11">
      <!-- May -->
      <g transform="translate(342.388848 377.992213) rotate(-45) scale(0.1 -0.1)">
       <defs>
        <path id="DejaVuSans-79" d="M 2059 -325 
Q 1816 -950 1584 -1140 
Q 1353 -1331 966 -1331 
L 506 -1331 
L 506 -850 
L 844 -850 
Q 1081 -850 1212 -737 
Q 1344 -625 1503 -206 
L 1606 56 
L 191 3500 
L 800 3500 
L 1894 763 
L 2988 3500 
L 3597 3500 
L 2059 -325 
z
" transform="scale(0.015625)"/>
       </defs>
       <use xlink:href="#DejaVuSans-4d"/>
       <use xlink:href="#DejaVuSans-61" transform="translate(86.279297 0)"/>
       <use xlink:href="#DejaVuSans-79" transform="translate(147.558594 0)"/>
      </g>
     </g>
    </g>
    <g id="xtick_12">
     <g id="line2d_23">
      <path d="M 375.70513 350.999873 
L 375.70513 35.88 
" clip-path="url(#pe66419fcc3)" style="fill: none; stroke: #b0b0b0; stroke-opacity: 0.2; stroke-width: 0.8; stroke-linecap: square"/>
     </g>
     <g id="line2d_24">
      <g>
       <use xlink:href="#m8c1b16b8b1" x="375.70513" y="350.999873" style="stroke: #000000; stroke-width: 0.8"/>
      </g>
     </g>
     <g id="text_12">
      <!-- Jun -->
      <g transform="translate(372.132031 374.421324) rotate(-45) scale(0.1 -0.1)">
       <use xlink:href="#DejaVuSans-4a"/>
       <use xlink:href="#DejaVuSans-75" transform="translate(29.492188 0)"/>
       <use xlink:href="#DejaVuSans-6e" transform="translate(92.871094 0)"/>
      </g>
     </g>
    </g>
    <g id="xtick_13">
     <g id="line2d_25">
      <path d="M 403.66287 350.999873 
L 403.66287 35.88 
" clip-path="url(#pe66419fcc3)" style="fill: none; stroke: #b0b0b0; stroke-opacity: 0.2; stroke-width: 0.8; stroke-linecap: square"/>
     </g>
     <g id="line2d_26">
      <g>
       <use xlink:href="#m8c1b16b8b1" x="403.66287" y="350.999873" style="stroke: #000000; stroke-width: 0.8"/>
      </g>
     </g>
     <g id="text_13">
      <!-- Jul -->
      <g transform="translate(401.3482 371.904465) rotate(-45) scale(0.1 -0.1)">
       <use xlink:href="#DejaVuSans-4a"/>
       <use xlink:href="#DejaVuSans-75" transform="translate(29.492188 0)"/>
       <use xlink:href="#DejaVuSans-6c" transform="translate(92.871094 0)"/>
      </g>
     </g>
    </g>
    <g id="xtick_14">
     <g id="line2d_27">
      <path d="M 431.620609 350.999873 
L 431.620609 35.88 
" clip-path="url(#pe66419fcc3)" style="fill: none; stroke: #b0b0b0; stroke-opacity: 0.2; stroke-width: 0.8; stroke-linecap: square"/>
     </g>
     <g id="line2d_28">
      <g>
       <use xlink:href="#m8c1b16b8b1" x="431.620609" y="350.999873" style="stroke: #000000; stroke-width: 0.8"/>
      </g>
     </g>
     <g id="text_14">
      <!-- Aug -->
      <g transform="translate(426.668099 377.180145) rotate(-45) scale(0.1 -0.1)">
       <use xlink:href="#DejaVuSans-41"/>
       <use xlink:href="#DejaVuSans-75" transform="translate(68.408203 0)"/>
       <use xlink:href="#DejaVuSans-67" transform="translate(131.787109 0)"/>
      </g>
     </g>
    </g>
    <g id="xtick_15">
     <g id="line2d_29">
      <path d="M 459.578348 350.999873 
L 459.578348 35.88 
" clip-path="url(#pe66419fcc3)" style="fill: none; stroke: #b0b0b0; stroke-opacity: 0.2; stroke-width: 0.8; stroke-linecap: square"/>
     </g>
     <g id="line2d_30">
      <g>
       <use xlink:href="#m8c1b16b8b1" x="459.578348" y="350.999873" style="stroke: #000000; stroke-width: 0.8"/>
      </g>
     </g>
     <g id="text_15">
      <!-- Sep -->
      <g transform="translate(454.865039 376.701743) rotate(-45) scale(0.1 -0.1)">
       <use xlink:href="#DejaVuSans-53"/>
       <use xlink:href="#DejaVuSans-65" transform="translate(63.476562 0)"/>
       <use xlink:href="#DejaVuSans-70" transform="translate(125 0)"/>
      </g>
     </g>
    </g>
    <g id="xtick_16">
     <g id="line2d_31">
      <path d="M 487.536087 350.999873 
L 487.536087 35.88 
" clip-path="url(#pe66419fcc3)" style="fill: none; stroke: #b0b0b0; stroke-opacity: 0.2; stroke-width: 0.8; stroke-linecap: square"/>
     </g>
     <g id="line2d_32">
      <g>
       <use xlink:href="#m8c1b16b8b1" x="487.536087" y="350.999873" style="stroke: #000000; stroke-width: 0.8"/>
      </g>
     </g>
     <g id="text_16">
      <!-- Oct -->
      <g transform="translate(483.374101 375.599098) rotate(-45) scale(0.1 -0.1)">
       <use xlink:href="#DejaVuSans-4f"/>
       <use xlink:href="#DejaVuSans-63" transform="translate(78.710938 0)"/>
       <use xlink:href="#DejaVuSans-74" transform="translate(133.691406 0)"/>
      </g>
     </g>
    </g>
    <g id="xtick_17">
     <g id="line2d_33">
      <path d="M 515.493826 350.999873 
L 515.493826 35.88 
" clip-path="url(#pe66419fcc3)" style="fill: none; stroke: #b0b0b0; stroke-opacity: 0.2; stroke-width: 0.8; stroke-linecap: square"/>
     </g>
     <g id="line2d_34">
      <g>
       <use xlink:href="#m8c1b16b8b1" x="515.493826" y="350.999873" style="stroke: #000000; stroke-width: 0.8"/>
      </g>
     </g>
     <g id="text_17">
      <!-- Nov -->
      <g transform="translate(510.544079 377.174621) rotate(-45) scale(0.1 -0.1)">
       <use xlink:href="#DejaVuSans-4e"/>
       <use xlink:href="#DejaVuSans-6f" transform="translate(74.804688 0)"/>
       <use xlink:href="#DejaVuSans-76" transform="translate(135.986328 0)"/>
      </g>
     </g>
    </g>
    <g id="xtick_18">
     <g id="line2d_35">
      <path d="M 543.451565 350.999873 
L 543.451565 35.88 
" clip-path="url(#pe66419fcc3)" style="fill: none; stroke: #b0b0b0; stroke-opacity: 0.2; stroke-width: 0.8; stroke-linecap: square"/>
     </g>
     <g id="line2d_36">
      <g>
       <use xlink:href="#m8c1b16b8b1" x="543.451565" y="350.999873" style="stroke: #000000; stroke-width: 0.8"/>
      </g>
     </g>
     <g id="text_18">
      <!-- Dec -->
      <g transform="translate(538.560927 377.056401) rotate(-45) scale(0.1 -0.1)">
       <use xlink:href="#DejaVuSans-44"/>
       <use xlink:href="#DejaVuSans-65" transform="translate(77.001953 0)"/>
       <use xlink:href="#DejaVuSans-63" transform="translate(138.525391 0)"/>
      </g>
     </g>
    </g>
    <g id="xtick_19">
     <g id="line2d_37">
      <path d="M 571.409304 350.999873 
L 571.409304 35.88 
" clip-path="url(#pe66419fcc3)" style="fill: none; stroke: #b0b0b0; stroke-opacity: 0.2; stroke-width: 0.8; stroke-linecap: square"/>
     </g>
     <g id="line2d_38">
      <g>
       <use xlink:href="#m8c1b16b8b1" x="571.409304" y="350.999873" style="stroke: #000000; stroke-width: 0.8"/>
      </g>
     </g>
     <g id="text_19">
      <!-- Jan 2021 -->
      <g transform="translate(557.78866 394.516414) rotate(-45) scale(0.1 -0.1)">
       <defs>
        <path id="DejaVuSans-31" d="M 794 531 
L 1825 531 
L 1825 4091 
L 703 3866 
L 703 4441 
L 1819 4666 
L 2450 4666 
L 2450 531 
L 3481 531 
L 3481 0 
L 794 0 
L 794 531 
z
" transform="scale(0.015625)"/>
       </defs>
       <use xlink:href="#DejaVuSans-4a"/>
       <use xlink:href="#DejaVuSans-61" transform="translate(29.492188 0)"/>
       <use xlink:href="#DejaVuSans-6e" transform="translate(90.771484 0)"/>
       <use xlink:href="#DejaVuSans-20" transform="translate(154.150391 0)"/>
       <use xlink:href="#DejaVuSans-32" transform="translate(185.9375 0)"/>
       <use xlink:href="#DejaVuSans-30" transform="translate(249.560547 0)"/>
       <use xlink:href="#DejaVuSans-32" transform="translate(313.183594 0)"/>
       <use xlink:href="#DejaVuSans-31" transform="translate(376.806641 0)"/>
      </g>
     </g>
    </g>
    <g id="xtick_20">
     <g id="line2d_39">
      <path d="M 599.367043 350.999873 
L 599.367043 35.88 
" clip-path="url(#pe66419fcc3)" style="fill: none; stroke: #b0b0b0; stroke-opacity: 0.2; stroke-width: 0.8; stroke-linecap: square"/>
     </g>
     <g id="line2d_40">
      <g>
       <use xlink:href="#m8c1b16b8b1" x="599.367043" y="350.999873" style="stroke: #000000; stroke-width: 0.8"/>
      </g>
     </g>
     <g id="text_20">
      <!-- Feb -->
      <g transform="translate(595.059216 375.89078) rotate(-45) scale(0.1 -0.1)">
       <use xlink:href="#DejaVuSans-46"/>
       <use xlink:href="#DejaVuSans-65" transform="translate(52.019531 0)"/>
       <use xlink:href="#DejaVuSans-62" transform="translate(113.542969 0)"/>
      </g>
     </g>
    </g>
    <g id="xtick_21">
     <g id="line2d_41">
      <path d="M 627.324783 350.999873 
L 627.324783 35.88 
" clip-path="url(#pe66419fcc3)" style="fill: none; stroke: #b0b0b0; stroke-opacity: 0.2; stroke-width: 0.8; stroke-linecap: square"/>
     </g>
     <g id="line2d_42">
      <g>
       <use xlink:href="#m8c1b16b8b1" x="627.324783" y="350.999873" style="stroke: #000000; stroke-width: 0.8"/>
      </g>
     </g>
     <g id="text_21">
      <!-- Mar -->
      <g transform="translate(622.605397 376.713896) rotate(-45) scale(0.1 -0.1)">
       <use xlink:href="#DejaVuSans-4d"/>
       <use xlink:href="#DejaVuSans-61" transform="translate(86.279297 0)"/>
       <use xlink:href="#DejaVuSans-72" transform="translate(147.558594 0)"/>
      </g>
     </g>
    </g>
    <g id="xtick_22">
     <g id="line2d_43">
      <path d="M 655.282522 350.999873 
L 655.282522 35.88 
" clip-path="url(#pe66419fcc3)" style="fill: none; stroke: #b0b0b0; stroke-opacity: 0.2; stroke-width: 0.8; stroke-linecap: square"/>
     </g>
     <g id="line2d_44">
      <g>
       <use xlink:href="#m8c1b16b8b1" x="655.282522" y="350.999873" style="stroke: #000000; stroke-width: 0.8"/>
      </g>
     </g>
     <g id="text_22">
      <!-- Apr -->
      <g transform="translate(651.117221 375.605727) rotate(-45) scale(0.1 -0.1)">
       <use xlink:href="#DejaVuSans-41"/>
       <use xlink:href="#DejaVuSans-70" transform="translate(68.408203 0)"/>
       <use xlink:href="#DejaVuSans-72" transform="translate(131.884766 0)"/>
      </g>
     </g>
    </g>
    <g id="xtick_23">
     <g id="line2d_45">
      <path d="M 683.240261 350.999873 
L 683.240261 35.88 
" clip-path="url(#pe66419fcc3)" style="fill: none; stroke: #b0b0b0; stroke-opacity: 0.2; stroke-width: 0.8; stroke-linecap: square"/>
     </g>
     <g id="line2d_46">
      <g>
       <use xlink:href="#m8c1b16b8b1" x="683.240261" y="350.999873" style="stroke: #000000; stroke-width: 0.8"/>
      </g>
     </g>
     <g id="text_23">
      <!-- May -->
      <g transform="translate(677.881717 377.992213) rotate(-45) scale(0.1 -0.1)">
       <use xlink:href="#DejaVuSans-4d"/>
       <use xlink:href="#DejaVuSans-61" transform="translate(86.279297 0)"/>
       <use xlink:href="#DejaVuSans-79" transform="translate(147.558594 0)"/>
      </g>
     </g>
    </g>
    <g id="xtick_24">
     <g id="line2d_47">
      <path d="M 711.198 350.999873 
L 711.198 35.88 
" clip-path="url(#pe66419fcc3)" style="fill: none; stroke: #b0b0b0; stroke-opacity: 0.2; stroke-width: 0.8; stroke-linecap: square"/>
     </g>
     <g id="line2d_48">
      <g>
       <use xlink:href="#m8c1b16b8b1" x="711.198" y="350.999873" style="stroke: #000000; stroke-width: 0.8"/>
      </g>
     </g>
     <g id="text_24">
      <!-- Jun -->
      <g transform="translate(707.624901 374.421324) rotate(-45) scale(0.1 -0.1)">
       <use xlink:href="#DejaVuSans-4a"/>
       <use xlink:href="#DejaVuSans-75" transform="translate(29.492188 0)"/>
       <use xlink:href="#DejaVuSans-6e" transform="translate(92.871094 0)"/>
      </g>
     </g>
    </g>
    <g id="text_25">
     <!-- Month -->
     <g transform="translate(374.012906 418.585413) scale(0.1 -0.1)">
      <defs>
       <path id="DejaVuSans-68" d="M 3513 2113 
L 3513 0 
L 2938 0 
L 2938 2094 
Q 2938 2591 2744 2837 
Q 2550 3084 2163 3084 
Q 1697 3084 1428 2787 
Q 1159 2491 1159 1978 
L 1159 0 
L 581 0 
L 581 4863 
L 1159 4863 
L 1159 2956 
Q 1366 3272 1645 3428 
Q 1925 3584 2291 3584 
Q 2894 3584 3203 3211 
Q 3513 2838 3513 2113 
z
" transform="scale(0.015625)"/>
      </defs>
      <use xlink:href="#DejaVuSans-4d"/>
      <use xlink:href="#DejaVuSans-6f" transform="translate(86.279297 0)"/>
      <use xlink:href="#DejaVuSans-6e" transform="translate(147.460938 0)"/>
      <use xlink:href="#DejaVuSans-74" transform="translate(210.839844 0)"/>
      <use xlink:href="#DejaVuSans-68" transform="translate(250.048828 0)"/>
     </g>
    </g>
   </g>
   <g id="matplotlib.axis_2">
    <g id="ytick_1">
     <g id="line2d_49">
      <path d="M 68.17 338.580619 
L 711.198 338.580619 
" clip-path="url(#pe66419fcc3)" style="fill: none; stroke: #b0b0b0; stroke-opacity: 0.2; stroke-width: 0.8; stroke-linecap: square"/>
     </g>
     <g id="line2d_50">
      <defs>
       <path id="m05b0dad61f" d="M 0 0 
L -3.5 0 
" style="stroke: #000000; stroke-width: 0.8"/>
      </defs>
      <g>
       <use xlink:href="#m05b0dad61f" x="68.17" y="338.580619" style="stroke: #000000; stroke-width: 0.8"/>
      </g>
     </g>
     <g id="text_26">
      <!-- 0 -->
      <g transform="translate(54.8075 342.379838) scale(0.1 -0.1)">
       <use xlink:href="#DejaVuSans-30"/>
      </g>
     </g>
    </g>
    <g id="ytick_2">
     <g id="line2d_51">
      <path d="M 68.17 284.169867 
L 711.198 284.169867 
" clip-path="url(#pe66419fcc3)" style="fill: none; stroke: #b0b0b0; stroke-opacity: 0.2; stroke-width: 0.8; stroke-linecap: square"/>
     </g>
     <g id="line2d_52">
      <g>
       <use xlink:href="#m05b0dad61f" x="68.17" y="284.169867" style="stroke: #000000; stroke-width: 0.8"/>
      </g>
     </g>
     <g id="text_27">
      <!-- 200 -->
      <g transform="translate(42.0825 287.969085) scale(0.1 -0.1)">
       <use xlink:href="#DejaVuSans-32"/>
       <use xlink:href="#DejaVuSans-30" transform="translate(63.623047 0)"/>
       <use xlink:href="#DejaVuSans-30" transform="translate(127.246094 0)"/>
      </g>
     </g>
    </g>
    <g id="ytick_3">
     <g id="line2d_53">
      <path d="M 68.17 229.759114 
L 711.198 229.759114 
" clip-path="url(#pe66419fcc3)" style="fill: none; stroke: #b0b0b0; stroke-opacity: 0.2; stroke-width: 0.8; stroke-linecap: square"/>
     </g>
     <g id="line2d_54">
      <g>
       <use xlink:href="#m05b0dad61f" x="68.17" y="229.759114" style="stroke: #000000; stroke-width: 0.8"/>
      </g>
     </g>
     <g id="text_28">
      <!-- 400 -->
      <g transform="translate(42.0825 233.558333) scale(0.1 -0.1)">
       <defs>
        <path id="DejaVuSans-34" d="M 2419 4116 
L 825 1625 
L 2419 1625 
L 2419 4116 
z
M 2253 4666 
L 3047 4666 
L 3047 1625 
L 3713 1625 
L 3713 1100 
L 3047 1100 
L 3047 0 
L 2419 0 
L 2419 1100 
L 313 1100 
L 313 1709 
L 2253 4666 
z
" transform="scale(0.015625)"/>
       </defs>
       <use xlink:href="#DejaVuSans-34"/>
       <use xlink:href="#DejaVuSans-30" transform="translate(63.623047 0)"/>
       <use xlink:href="#DejaVuSans-30" transform="translate(127.246094 0)"/>
      </g>
     </g>
    </g>
    <g id="ytick_4">
     <g id="line2d_55">
      <path d="M 68.17 175.348361 
L 711.198 175.348361 
" clip-path="url(#pe66419fcc3)" style="fill: none; stroke: #b0b0b0; stroke-opacity: 0.2; stroke-width: 0.8; stroke-linecap: square"/>
     </g>
     <g id="line2d_56">
      <g>
       <use xlink:href="#m05b0dad61f" x="68.17" y="175.348361" style="stroke: #000000; stroke-width: 0.8"/>
      </g>
     </g>
     <g id="text_29">
      <!-- 600 -->
      <g transform="translate(42.0825 179.14758) scale(0.1 -0.1)">
       <defs>
        <path id="DejaVuSans-36" d="M 2113 2584 
Q 1688 2584 1439 2293 
Q 1191 2003 1191 1497 
Q 1191 994 1439 701 
Q 1688 409 2113 409 
Q 2538 409 2786 701 
Q 3034 994 3034 1497 
Q 3034 2003 2786 2293 
Q 2538 2584 2113 2584 
z
M 3366 4563 
L 3366 3988 
Q 3128 4100 2886 4159 
Q 2644 4219 2406 4219 
Q 1781 4219 1451 3797 
Q 1122 3375 1075 2522 
Q 1259 2794 1537 2939 
Q 1816 3084 2150 3084 
Q 2853 3084 3261 2657 
Q 3669 2231 3669 1497 
Q 3669 778 3244 343 
Q 2819 -91 2113 -91 
Q 1303 -91 875 529 
Q 447 1150 447 2328 
Q 447 3434 972 4092 
Q 1497 4750 2381 4750 
Q 2619 4750 2861 4703 
Q 3103 4656 3366 4563 
z
" transform="scale(0.015625)"/>
       </defs>
       <use xlink:href="#DejaVuSans-36"/>
       <use xlink:href="#DejaVuSans-30" transform="translate(63.623047 0)"/>
       <use xlink:href="#DejaVuSans-30" transform="translate(127.246094 0)"/>
      </g>
     </g>
    </g>
    <g id="ytick_5">
     <g id="line2d_57">
      <path d="M 68.17 120.937609 
L 711.198 120.937609 
" clip-path="url(#pe66419fcc3)" style="fill: none; stroke: #b0b0b0; stroke-opacity: 0.2; stroke-width: 0.8; stroke-linecap: square"/>
     </g>
     <g id="line2d_58">
      <g>
       <use xlink:href="#m05b0dad61f" x="68.17" y="120.937609" style="stroke: #000000; stroke-width: 0.8"/>
      </g>
     </g>
     <g id="text_30">
      <!-- 800 -->
      <g transform="translate(42.0825 124.736828) scale(0.1 -0.1)">
       <defs>
        <path id="DejaVuSans-38" d="M 2034 2216 
Q 1584 2216 1326 1975 
Q 1069 1734 1069 1313 
Q 1069 891 1326 650 
Q 1584 409 2034 409 
Q 2484 409 2743 651 
Q 3003 894 3003 1313 
Q 3003 1734 2745 1975 
Q 2488 2216 2034 2216 
z
M 1403 2484 
Q 997 2584 770 2862 
Q 544 3141 544 3541 
Q 544 4100 942 4425 
Q 1341 4750 2034 4750 
Q 2731 4750 3128 4425 
Q 3525 4100 3525 3541 
Q 3525 3141 3298 2862 
Q 3072 2584 2669 2484 
Q 3125 2378 3379 2068 
Q 3634 1759 3634 1313 
Q 3634 634 3220 271 
Q 2806 -91 2034 -91 
Q 1263 -91 848 271 
Q 434 634 434 1313 
Q 434 1759 690 2068 
Q 947 2378 1403 2484 
z
M 1172 3481 
Q 1172 3119 1398 2916 
Q 1625 2713 2034 2713 
Q 2441 2713 2670 2916 
Q 2900 3119 2900 3481 
Q 2900 3844 2670 4047 
Q 2441 4250 2034 4250 
Q 1625 4250 1398 4047 
Q 1172 3844 1172 3481 
z
" transform="scale(0.015625)"/>
       </defs>
       <use xlink:href="#DejaVuSans-38"/>
       <use xlink:href="#DejaVuSans-30" transform="translate(63.623047 0)"/>
       <use xlink:href="#DejaVuSans-30" transform="translate(127.246094 0)"/>
      </g>
     </g>
    </g>
    <g id="ytick_6">
     <g id="line2d_59">
      <path d="M 68.17 66.526856 
L 711.198 66.526856 
" clip-path="url(#pe66419fcc3)" style="fill: none; stroke: #b0b0b0; stroke-opacity: 0.2; stroke-width: 0.8; stroke-linecap: square"/>
     </g>
     <g id="line2d_60">
      <g>
       <use xlink:href="#m05b0dad61f" x="68.17" y="66.526856" style="stroke: #000000; stroke-width: 0.8"/>
      </g>
     </g>
     <g id="text_31">
      <!-- 1000 -->
      <g transform="translate(35.72 70.326075) scale(0.1 -0.1)">
       <use xlink:href="#DejaVuSans-31"/>
       <use xlink:href="#DejaVuSans-30" transform="translate(63.623047 0)"/>
       <use xlink:href="#DejaVuSans-30" transform="translate(127.246094 0)"/>
       <use xlink:href="#DejaVuSans-30" transform="translate(190.869141 0)"/>
      </g>
     </g>
    </g>
    <g id="text_32">
     <!-- Number of Incidents -->
     <g transform="translate(18.640312 244.289937) rotate(-90) scale(0.1 -0.1)">
      <defs>
       <path id="DejaVuSans-6d" d="M 3328 2828 
Q 3544 3216 3844 3400 
Q 4144 3584 4550 3584 
Q 5097 3584 5394 3201 
Q 5691 2819 5691 2113 
L 5691 0 
L 5113 0 
L 5113 2094 
Q 5113 2597 4934 2840 
Q 4756 3084 4391 3084 
Q 3944 3084 3684 2787 
Q 3425 2491 3425 1978 
L 3425 0 
L 2847 0 
L 2847 2094 
Q 2847 2600 2669 2842 
Q 2491 3084 2119 3084 
Q 1678 3084 1418 2786 
Q 1159 2488 1159 1978 
L 1159 0 
L 581 0 
L 581 3500 
L 1159 3500 
L 1159 2956 
Q 1356 3278 1631 3431 
Q 1906 3584 2284 3584 
Q 2666 3584 2933 3390 
Q 3200 3197 3328 2828 
z
" transform="scale(0.015625)"/>
       <path id="DejaVuSans-66" d="M 2375 4863 
L 2375 4384 
L 1825 4384 
Q 1516 4384 1395 4259 
Q 1275 4134 1275 3809 
L 1275 3500 
L 2222 3500 
L 2222 3053 
L 1275 3053 
L 1275 0 
L 697 0 
L 697 3053 
L 147 3053 
L 147 3500 
L 697 3500 
L 697 3744 
Q 697 4328 969 4595 
Q 1241 4863 1831 4863 
L 2375 4863 
z
" transform="scale(0.015625)"/>
       <path id="DejaVuSans-49" d="M 628 4666 
L 1259 4666 
L 1259 0 
L 628 0 
L 628 4666 
z
" transform="scale(0.015625)"/>
       <path id="DejaVuSans-69" d="M 603 3500 
L 1178 3500 
L 1178 0 
L 603 0 
L 603 3500 
z
M 603 4863 
L 1178 4863 
L 1178 4134 
L 603 4134 
L 603 4863 
z
" transform="scale(0.015625)"/>
       <path id="DejaVuSans-64" d="M 2906 2969 
L 2906 4863 
L 3481 4863 
L 3481 0 
L 2906 0 
L 2906 525 
Q 2725 213 2448 61 
Q 2172 -91 1784 -91 
Q 1150 -91 751 415 
Q 353 922 353 1747 
Q 353 2572 751 3078 
Q 1150 3584 1784 3584 
Q 2172 3584 2448 3432 
Q 2725 3281 2906 2969 
z
M 947 1747 
Q 947 1113 1208 752 
Q 1469 391 1925 391 
Q 2381 391 2643 752 
Q 2906 1113 2906 1747 
Q 2906 2381 2643 2742 
Q 2381 3103 1925 3103 
Q 1469 3103 1208 2742 
Q 947 2381 947 1747 
z
" transform="scale(0.015625)"/>
       <path id="DejaVuSans-73" d="M 2834 3397 
L 2834 2853 
Q 2591 2978 2328 3040 
Q 2066 3103 1784 3103 
Q 1356 3103 1142 2972 
Q 928 2841 928 2578 
Q 928 2378 1081 2264 
Q 1234 2150 1697 2047 
L 1894 2003 
Q 2506 1872 2764 1633 
Q 3022 1394 3022 966 
Q 3022 478 2636 193 
Q 2250 -91 1575 -91 
Q 1294 -91 989 -36 
Q 684 19 347 128 
L 347 722 
Q 666 556 975 473 
Q 1284 391 1588 391 
Q 1994 391 2212 530 
Q 2431 669 2431 922 
Q 2431 1156 2273 1281 
Q 2116 1406 1581 1522 
L 1381 1569 
Q 847 1681 609 1914 
Q 372 2147 372 2553 
Q 372 3047 722 3315 
Q 1072 3584 1716 3584 
Q 2034 3584 2315 3537 
Q 2597 3491 2834 3397 
z
" transform="scale(0.015625)"/>
      </defs>
      <use xlink:href="#DejaVuSans-4e"/>
      <use xlink:href="#DejaVuSans-75" transform="translate(74.804688 0)"/>
      <use xlink:href="#DejaVuSans-6d" transform="translate(138.183594 0)"/>
      <use xlink:href="#DejaVuSans-62" transform="translate(235.595703 0)"/>
      <use xlink:href="#DejaVuSans-65" transform="translate(299.072266 0)"/>
      <use xlink:href="#DejaVuSans-72" transform="translate(360.595703 0)"/>
      <use xlink:href="#DejaVuSans-20" transform="translate(401.708984 0)"/>
      <use xlink:href="#DejaVuSans-6f" transform="translate(433.496094 0)"/>
      <use xlink:href="#DejaVuSans-66" transform="translate(494.677734 0)"/>
      <use xlink:href="#DejaVuSans-20" transform="translate(529.882812 0)"/>
      <use xlink:href="#DejaVuSans-49" transform="translate(561.669922 0)"/>
      <use xlink:href="#DejaVuSans-6e" transform="translate(591.162109 0)"/>
      <use xlink:href="#DejaVuSans-63" transform="translate(654.541016 0)"/>
      <use xlink:href="#DejaVuSans-69" transform="translate(709.521484 0)"/>
      <use xlink:href="#DejaVuSans-64" transform="translate(737.304688 0)"/>
      <use xlink:href="#DejaVuSans-65" transform="translate(800.78125 0)"/>
      <use xlink:href="#DejaVuSans-6e" transform="translate(862.304688 0)"/>
      <use xlink:href="#DejaVuSans-74" transform="translate(925.683594 0)"/>
      <use xlink:href="#DejaVuSans-73" transform="translate(964.892578 0)"/>
     </g>
    </g>
   </g>
   <g id="line2d_61">
    <path d="M 68.17 97.268932 
L 96.127739 67.615071 
L 124.085478 88.835265 
L 152.043217 91.555803 
L 180.000957 117.672964 
L 207.958696 118.761179 
L 235.916435 136.716727 
L 263.874174 111.143673 
L 291.831913 138.893157 
L 319.789652 181.061491 
L 347.747391 168.819071 
L 375.70513 154.672276 
L 403.66287 148.959146 
L 431.620609 154.944329 
L 459.578348 131.547706 
L 487.536087 125.018415 
L 515.493826 138.621104 
L 543.451565 145.422448 
L 571.409304 149.2312 
L 599.367043 170.451394 
L 627.324783 147.870931 
L 655.282522 138.621104 
L 683.240261 113.592157 
L 711.198 132.635921 
" clip-path="url(#pe66419fcc3)" style="fill: none; stroke: #1f77b4; stroke-width: 1.5; stroke-linecap: square"/>
    <defs>
     <path id="ma0ca2db387" d="M 0 1.5 
C 0.397805 1.5 0.77937 1.341951 1.06066 1.06066 
C 1.341951 0.77937 1.5 0.397805 1.5 0 
C 1.5 -0.397805 1.341951 -0.77937 1.06066 -1.06066 
C 0.77937 -1.341951 0.397805 -1.5 0 -1.5 
C -0.397805 -1.5 -0.77937 -1.341951 -1.06066 -1.06066 
C -1.341951 -0.77937 -1.5 -0.397805 -1.5 0 
C -1.5 0.397805 -1.341951 0.77937 -1.06066 1.06066 
C -0.77937 1.341951 -0.397805 1.5 0 1.5 
z
" style="stroke: #1f77b4"/>
    </defs>
    <g clip-path="url(#pe66419fcc3)">
     <use xlink:href="#ma0ca2db387" x="68.17" y="97.268932" style="fill: #1f77b4; stroke: #1f77b4"/>
     <use xlink:href="#ma0ca2db387" x="96.127739" y="67.615071" style="fill: #1f77b4; stroke: #1f77b4"/>
     <use xlink:href="#ma0ca2db387" x="124.085478" y="88.835265" style="fill: #1f77b4; stroke: #1f77b4"/>
     <use xlink:href="#ma0ca2db387" x="152.043217" y="91.555803" style="fill: #1f77b4; stroke: #1f77b4"/>
     <use xlink:href="#ma0ca2db387" x="180.000957" y="117.672964" style="fill: #1f77b4; stroke: #1f77b4"/>
     <use xlink:href="#ma0ca2db387" x="207.958696" y="118.761179" style="fill: #1f77b4; stroke: #1f77b4"/>
     <use xlink:href="#ma0ca2db387" x="235.916435" y="136.716727" style="fill: #1f77b4; stroke: #1f77b4"/>
     <use xlink:href="#ma0ca2db387" x="263.874174" y="111.143673" style="fill: #1f77b4; stroke: #1f77b4"/>
     <use xlink:href="#ma0ca2db387" x="291.831913" y="138.893157" style="fill: #1f77b4; stroke: #1f77b4"/>
     <use xlink:href="#ma0ca2db387" x="319.789652" y="181.061491" style="fill: #1f77b4; stroke: #1f77b4"/>
     <use xlink:href="#ma0ca2db387" x="347.747391" y="168.819071" style="fill: #1f77b4; stroke: #1f77b4"/>
     <use xlink:href="#ma0ca2db387" x="375.70513" y="154.672276" style="fill: #1f77b4; stroke: #1f77b4"/>
     <use xlink:href="#ma0ca2db387" x="403.66287" y="148.959146" style="fill: #1f77b4; stroke: #1f77b4"/>
     <use xlink:href="#ma0ca2db387" x="431.620609" y="154.944329" style="fill: #1f77b4; stroke: #1f77b4"/>
     <use xlink:href="#ma0ca2db387" x="459.578348" y="131.547706" style="fill: #1f77b4; stroke: #1f77b4"/>
     <use xlink:href="#ma0ca2db387" x="487.536087" y="125.018415" style="fill: #1f77b4; stroke: #1f77b4"/>
     <use xlink:href="#ma0ca2db387" x="515.493826" y="138.621104" style="fill: #1f77b4; stroke: #1f77b4"/>
     <use xlink:href="#ma0ca2db387" x="543.451565" y="145.422448" style="fill: #1f77b4; stroke: #1f77b4"/>
     <use xlink:href="#ma0ca2db387" x="571.409304" y="149.2312" style="fill: #1f77b4; stroke: #1f77b4"/>
     <use xlink:href="#ma0ca2db387" x="599.367043" y="170.451394" style="fill: #1f77b4; stroke: #1f77b4"/>
     <use xlink:href="#ma0ca2db387" x="627.324783" y="147.870931" style="fill: #1f77b4; stroke: #1f77b4"/>
     <use xlink:href="#ma0ca2db387" x="655.282522" y="138.621104" style="fill: #1f77b4; stroke: #1f77b4"/>
     <use xlink:href="#ma0ca2db387" x="683.240261" y="113.592157" style="fill: #1f77b4; stroke: #1f77b4"/>
     <use xlink:href="#ma0ca2db387" x="711.198" y="132.635921" style="fill: #1f77b4; stroke: #1f77b4"/>
    </g>
   </g>
   <g id="line2d_62">
    <path d="M 68.17 191.943641 
L 96.127739 194.120071 
L 124.085478 212.619727 
L 152.043217 203.914007 
L 180.000957 203.369899 
L 207.958696 198.200878 
L 235.916435 176.70863 
L 263.874174 199.017039 
L 291.831913 193.575964 
L 319.789652 131.003598 
L 347.747391 50.203631 
L 375.70513 115.496534 
L 403.66287 91.555803 
L 431.620609 125.290469 
L 459.578348 143.518071 
L 487.536087 131.003598 
L 515.493826 126.378684 
L 543.451565 76.864899 
L 571.409304 68.703286 
L 599.367043 118.489125 
L 627.324783 144.87834 
L 655.282522 154.672276 
L 683.240261 146.510663 
L 711.198 147.870931 
" clip-path="url(#pe66419fcc3)" style="fill: none; stroke: #ff7f0e; stroke-width: 1.5; stroke-linecap: square"/>
    <defs>
     <path id="md2e127e759" d="M 0 1.5 
C 0.397805 1.5 0.77937 1.341951 1.06066 1.06066 
C 1.341951 0.77937 1.5 0.397805 1.5 0 
C 1.5 -0.397805 1.341951 -0.77937 1.06066 -1.06066 
C 0.77937 -1.341951 0.397805 -1.5 0 -1.5 
C -0.397805 -1.5 -0.77937 -1.341951 -1.06066 -1.06066 
C -1.341951 -0.77937 -1.5 -0.397805 -1.5 0 
C -1.5 0.397805 -1.341951 0.77937 -1.06066 1.06066 
C -0.77937 1.341951 -0.397805 1.5 0 1.5 
z
" style="stroke: #ff7f0e"/>
    </defs>
    <g clip-path="url(#pe66419fcc3)">
     <use xlink:href="#md2e127e759" x="68.17" y="191.943641" style="fill: #ff7f0e; stroke: #ff7f0e"/>
     <use xlink:href="#md2e127e759" x="96.127739" y="194.120071" style="fill: #ff7f0e; stroke: #ff7f0e"/>
     <use xlink:href="#md2e127e759" x="124.085478" y="212.619727" style="fill: #ff7f0e; stroke: #ff7f0e"/>
     <use xlink:href="#md2e127e759" x="152.043217" y="203.914007" style="fill: #ff7f0e; stroke: #ff7f0e"/>
     <use xlink:href="#md2e127e759" x="180.000957" y="203.369899" style="fill: #ff7f0e; stroke: #ff7f0e"/>
     <use xlink:href="#md2e127e759" x="207.958696" y="198.200878" style="fill: #ff7f0e; stroke: #ff7f0e"/>
     <use xlink:href="#md2e127e759" x="235.916435" y="176.70863" style="fill: #ff7f0e; stroke: #ff7f0e"/>
     <use xlink:href="#md2e127e759" x="263.874174" y="199.017039" style="fill: #ff7f0e; stroke: #ff7f0e"/>
     <use xlink:href="#md2e127e759" x="291.831913" y="193.575964" style="fill: #ff7f0e; stroke: #ff7f0e"/>
     <use xlink:href="#md2e127e759" x="319.789652" y="131.003598" style="fill: #ff7f0e; stroke: #ff7f0e"/>
     <use xlink:href="#md2e127e759" x="347.747391" y="50.203631" style="fill: #ff7f0e; stroke: #ff7f0e"/>
     <use xlink:href="#md2e127e759" x="375.70513" y="115.496534" style="fill: #ff7f0e; stroke: #ff7f0e"/>
     <use xlink:href="#md2e127e759" x="403.66287" y="91.555803" style="fill: #ff7f0e; stroke: #ff7f0e"/>
     <use xlink:href="#md2e127e759" x="431.620609" y="125.290469" style="fill: #ff7f0e; stroke: #ff7f0e"/>
     <use xlink:href="#md2e127e759" x="459.578348" y="143.518071" style="fill: #ff7f0e; stroke: #ff7f0e"/>
     <use xlink:href="#md2e127e759" x="487.536087" y="131.003598" style="fill: #ff7f0e; stroke: #ff7f0e"/>
     <use xlink:href="#md2e127e759" x="515.493826" y="126.378684" style="fill: #ff7f0e; stroke: #ff7f0e"/>
     <use xlink:href="#md2e127e759" x="543.451565" y="76.864899" style="fill: #ff7f0e; stroke: #ff7f0e"/>
     <use xlink:href="#md2e127e759" x="571.409304" y="68.703286" style="fill: #ff7f0e; stroke: #ff7f0e"/>
     <use xlink:href="#md2e127e759" x="599.367043" y="118.489125" style="fill: #ff7f0e; stroke: #ff7f0e"/>
     <use xlink:href="#md2e127e759" x="627.324783" y="144.87834" style="fill: #ff7f0e; stroke: #ff7f0e"/>
     <use xlink:href="#md2e127e759" x="655.282522" y="154.672276" style="fill: #ff7f0e; stroke: #ff7f0e"/>
     <use xlink:href="#md2e127e759" x="683.240261" y="146.510663" style="fill: #ff7f0e; stroke: #ff7f0e"/>
     <use xlink:href="#md2e127e759" x="711.198" y="147.870931" style="fill: #ff7f0e; stroke: #ff7f0e"/>
    </g>
   </g>
   <g id="line2d_63">
    <path d="M 68.17 247.714662 
L 96.127739 264.309942 
L 124.085478 252.883684 
L 152.043217 259.685028 
L 180.000957 262.405566 
L 207.958696 261.589404 
L 235.916435 261.045297 
L 263.874174 252.067523 
L 291.831913 296.140232 
L 319.789652 316.544264 
L 347.747391 281.177275 
L 375.70513 273.831824 
L 403.66287 280.08906 
L 431.620609 274.647985 
L 459.578348 281.721383 
L 487.536087 285.530135 
L 515.493826 299.948985 
L 543.451565 288.522727 
L 571.409304 277.368523 
L 599.367043 281.177275 
L 627.324783 298.044609 
L 655.282522 281.177275 
L 683.240261 310.559082 
L 711.198 289.338888 
" clip-path="url(#pe66419fcc3)" style="fill: none; stroke: #2ca02c; stroke-width: 1.5; stroke-linecap: square"/>
    <defs>
     <path id="mef160bb4c1" d="M 0 1.5 
C 0.397805 1.5 0.77937 1.341951 1.06066 1.06066 
C 1.341951 0.77937 1.5 0.397805 1.5 0 
C 1.5 -0.397805 1.341951 -0.77937 1.06066 -1.06066 
C 0.77937 -1.341951 0.397805 -1.5 0 -1.5 
C -0.397805 -1.5 -0.77937 -1.341951 -1.06066 -1.06066 
C -1.341951 -0.77937 -1.5 -0.397805 -1.5 0 
C -1.5 0.397805 -1.341951 0.77937 -1.06066 1.06066 
C -0.77937 1.341951 -0.397805 1.5 0 1.5 
z
" style="stroke: #2ca02c"/>
    </defs>
    <g clip-path="url(#pe66419fcc3)">
     <use xlink:href="#mef160bb4c1" x="68.17" y="247.714662" style="fill: #2ca02c; stroke: #2ca02c"/>
     <use xlink:href="#mef160bb4c1" x="96.127739" y="264.309942" style="fill: #2ca02c; stroke: #2ca02c"/>
     <use xlink:href="#mef160bb4c1" x="124.085478" y="252.883684" style="fill: #2ca02c; stroke: #2ca02c"/>
     <use xlink:href="#mef160bb4c1" x="152.043217" y="259.685028" style="fill: #2ca02c; stroke: #2ca02c"/>
     <use xlink:href="#mef160bb4c1" x="180.000957" y="262.405566" style="fill: #2ca02c; stroke: #2ca02c"/>
     <use xlink:href="#mef160bb4c1" x="207.958696" y="261.589404" style="fill: #2ca02c; stroke: #2ca02c"/>
     <use xlink:href="#mef160bb4c1" x="235.916435" y="261.045297" style="fill: #2ca02c; stroke: #2ca02c"/>
     <use xlink:href="#mef160bb4c1" x="263.874174" y="252.067523" style="fill: #2ca02c; stroke: #2ca02c"/>
     <use xlink:href="#mef160bb4c1" x="291.831913" y="296.140232" style="fill: #2ca02c; stroke: #2ca02c"/>
     <use xlink:href="#mef160bb4c1" x="319.789652" y="316.544264" style="fill: #2ca02c; stroke: #2ca02c"/>
     <use xlink:href="#mef160bb4c1" x="347.747391" y="281.177275" style="fill: #2ca02c; stroke: #2ca02c"/>
     <use xlink:href="#mef160bb4c1" x="375.70513" y="273.831824" style="fill: #2ca02c; stroke: #2ca02c"/>
     <use xlink:href="#mef160bb4c1" x="403.66287" y="280.08906" style="fill: #2ca02c; stroke: #2ca02c"/>
     <use xlink:href="#mef160bb4c1" x="431.620609" y="274.647985" style="fill: #2ca02c; stroke: #2ca02c"/>
     <use xlink:href="#mef160bb4c1" x="459.578348" y="281.721383" style="fill: #2ca02c; stroke: #2ca02c"/>
     <use xlink:href="#mef160bb4c1" x="487.536087" y="285.530135" style="fill: #2ca02c; stroke: #2ca02c"/>
     <use xlink:href="#mef160bb4c1" x="515.493826" y="299.948985" style="fill: #2ca02c; stroke: #2ca02c"/>
     <use xlink:href="#mef160bb4c1" x="543.451565" y="288.522727" style="fill: #2ca02c; stroke: #2ca02c"/>
     <use xlink:href="#mef160bb4c1" x="571.409304" y="277.368523" style="fill: #2ca02c; stroke: #2ca02c"/>
     <use xlink:href="#mef160bb4c1" x="599.367043" y="281.177275" style="fill: #2ca02c; stroke: #2ca02c"/>
     <use xlink:href="#mef160bb4c1" x="627.324783" y="298.044609" style="fill: #2ca02c; stroke: #2ca02c"/>
     <use xlink:href="#mef160bb4c1" x="655.282522" y="281.177275" style="fill: #2ca02c; stroke: #2ca02c"/>
     <use xlink:href="#mef160bb4c1" x="683.240261" y="310.559082" style="fill: #2ca02c; stroke: #2ca02c"/>
     <use xlink:href="#mef160bb4c1" x="711.198" y="289.338888" style="fill: #2ca02c; stroke: #2ca02c"/>
    </g>
   </g>
   <g id="line2d_64">
    <path d="M 68.17 200.377308 
L 96.127739 217.516695 
L 124.085478 212.347673 
L 152.043217 219.149017 
L 180.000957 215.884372 
L 207.958696 220.509286 
L 235.916435 208.266867 
L 263.874174 234.384028 
L 291.831913 234.384028 
L 319.789652 267.846641 
L 347.747391 258.596813 
L 375.70513 240.641265 
L 403.66287 216.42848 
L 431.620609 238.736888 
L 459.578348 224.862146 
L 487.536087 223.229824 
L 515.493826 249.074931 
L 543.451565 258.324759 
L 571.409304 237.920727 
L 599.367043 254.243953 
L 627.324783 246.898501 
L 655.282522 246.898501 
L 683.240261 250.163146 
L 711.198 246.354394 
" clip-path="url(#pe66419fcc3)" style="fill: none; stroke: #d62728; stroke-width: 1.5; stroke-linecap: square"/>
    <defs>
     <path id="m9bf9a1fcb7" d="M 0 1.5 
C 0.397805 1.5 0.77937 1.341951 1.06066 1.06066 
C 1.341951 0.77937 1.5 0.397805 1.5 0 
C 1.5 -0.397805 1.341951 -0.77937 1.06066 -1.06066 
C 0.77937 -1.341951 0.397805 -1.5 0 -1.5 
C -0.397805 -1.5 -0.77937 -1.341951 -1.06066 -1.06066 
C -1.341951 -0.77937 -1.5 -0.397805 -1.5 0 
C -1.5 0.397805 -1.341951 0.77937 -1.06066 1.06066 
C -0.77937 1.341951 -0.397805 1.5 0 1.5 
z
" style="stroke: #d62728"/>
    </defs>
    <g clip-path="url(#pe66419fcc3)">
     <use xlink:href="#m9bf9a1fcb7" x="68.17" y="200.377308" style="fill: #d62728; stroke: #d62728"/>
     <use xlink:href="#m9bf9a1fcb7" x="96.127739" y="217.516695" style="fill: #d62728; stroke: #d62728"/>
     <use xlink:href="#m9bf9a1fcb7" x="124.085478" y="212.347673" style="fill: #d62728; stroke: #d62728"/>
     <use xlink:href="#m9bf9a1fcb7" x="152.043217" y="219.149017" style="fill: #d62728; stroke: #d62728"/>
     <use xlink:href="#m9bf9a1fcb7" x="180.000957" y="215.884372" style="fill: #d62728; stroke: #d62728"/>
     <use xlink:href="#m9bf9a1fcb7" x="207.958696" y="220.509286" style="fill: #d62728; stroke: #d62728"/>
     <use xlink:href="#m9bf9a1fcb7" x="235.916435" y="208.266867" style="fill: #d62728; stroke: #d62728"/>
     <use xlink:href="#m9bf9a1fcb7" x="263.874174" y="234.384028" style="fill: #d62728; stroke: #d62728"/>
     <use xlink:href="#m9bf9a1fcb7" x="291.831913" y="234.384028" style="fill: #d62728; stroke: #d62728"/>
     <use xlink:href="#m9bf9a1fcb7" x="319.789652" y="267.846641" style="fill: #d62728; stroke: #d62728"/>
     <use xlink:href="#m9bf9a1fcb7" x="347.747391" y="258.596813" style="fill: #d62728; stroke: #d62728"/>
     <use xlink:href="#m9bf9a1fcb7" x="375.70513" y="240.641265" style="fill: #d62728; stroke: #d62728"/>
     <use xlink:href="#m9bf9a1fcb7" x="403.66287" y="216.42848" style="fill: #d62728; stroke: #d62728"/>
     <use xlink:href="#m9bf9a1fcb7" x="431.620609" y="238.736888" style="fill: #d62728; stroke: #d62728"/>
     <use xlink:href="#m9bf9a1fcb7" x="459.578348" y="224.862146" style="fill: #d62728; stroke: #d62728"/>
     <use xlink:href="#m9bf9a1fcb7" x="487.536087" y="223.229824" style="fill: #d62728; stroke: #d62728"/>
     <use xlink:href="#m9bf9a1fcb7" x="515.493826" y="249.074931" style="fill: #d62728; stroke: #d62728"/>
     <use xlink:href="#m9bf9a1fcb7" x="543.451565" y="258.324759" style="fill: #d62728; stroke: #d62728"/>
     <use xlink:href="#m9bf9a1fcb7" x="571.409304" y="237.920727" style="fill: #d62728; stroke: #d62728"/>
     <use xlink:href="#m9bf9a1fcb7" x="599.367043" y="254.243953" style="fill: #d62728; stroke: #d62728"/>
     <use xlink:href="#m9bf9a1fcb7" x="627.324783" y="246.898501" style="fill: #d62728; stroke: #d62728"/>
     <use xlink:href="#m9bf9a1fcb7" x="655.282522" y="246.898501" style="fill: #d62728; stroke: #d62728"/>
     <use xlink:href="#m9bf9a1fcb7" x="683.240261" y="250.163146" style="fill: #d62728; stroke: #d62728"/>
     <use xlink:href="#m9bf9a1fcb7" x="711.198" y="246.354394" style="fill: #d62728; stroke: #d62728"/>
    </g>
   </g>
   <g id="line2d_65">
    <path d="M 68.17 335.04392 
L 96.127739 330.963114 
L 124.085478 335.588028 
L 152.043217 334.771866 
L 180.000957 332.051329 
L 207.958696 332.595436 
L 235.916435 332.323383 
L 263.874174 333.683651 
L 291.831913 334.227759 
L 319.789652 336.676243 
L 347.747391 334.227759 
L 375.70513 335.04392 
L 403.66287 334.499813 
L 431.620609 332.595436 
L 459.578348 334.771866 
L 487.536087 334.771866 
L 515.493826 333.955705 
L 543.451565 335.588028 
L 571.409304 333.683651 
L 599.367043 335.315974 
L 627.324783 335.588028 
L 655.282522 334.499813 
L 683.240261 335.315974 
L 711.198 333.411598 
" clip-path="url(#pe66419fcc3)" style="fill: none; stroke: #9467bd; stroke-width: 1.5; stroke-linecap: square"/>
    <defs>
     <path id="m84e872b721" d="M 0 1.5 
C 0.397805 1.5 0.77937 1.341951 1.06066 1.06066 
C 1.341951 0.77937 1.5 0.397805 1.5 0 
C 1.5 -0.397805 1.341951 -0.77937 1.06066 -1.06066 
C 0.77937 -1.341951 0.397805 -1.5 0 -1.5 
C -0.397805 -1.5 -0.77937 -1.341951 -1.06066 -1.06066 
C -1.341951 -0.77937 -1.5 -0.397805 -1.5 0 
C -1.5 0.397805 -1.341951 0.77937 -1.06066 1.06066 
C -0.77937 1.341951 -0.397805 1.5 0 1.5 
z
" style="stroke: #9467bd"/>
    </defs>
    <g clip-path="url(#pe66419fcc3)">
     <use xlink:href="#m84e872b721" x="68.17" y="335.04392" style="fill: #9467bd; stroke: #9467bd"/>
     <use xlink:href="#m84e872b721" x="96.127739" y="330.963114" style="fill: #9467bd; stroke: #9467bd"/>
     <use xlink:href="#m84e872b721" x="124.085478" y="335.588028" style="fill: #9467bd; stroke: #9467bd"/>
     <use xlink:href="#m84e872b721" x="152.043217" y="334.771866" style="fill: #9467bd; stroke: #9467bd"/>
     <use xlink:href="#m84e872b721" x="180.000957" y="332.051329" style="fill: #9467bd; stroke: #9467bd"/>
     <use xlink:href="#m84e872b721" x="207.958696" y="332.595436" style="fill: #9467bd; stroke: #9467bd"/>
     <use xlink:href="#m84e872b721" x="235.916435" y="332.323383" style="fill: #9467bd; stroke: #9467bd"/>
     <use xlink:href="#m84e872b721" x="263.874174" y="333.683651" style="fill: #9467bd; stroke: #9467bd"/>
     <use xlink:href="#m84e872b721" x="291.831913" y="334.227759" style="fill: #9467bd; stroke: #9467bd"/>
     <use xlink:href="#m84e872b721" x="319.789652" y="336.676243" style="fill: #9467bd; stroke: #9467bd"/>
     <use xlink:href="#m84e872b721" x="347.747391" y="334.227759" style="fill: #9467bd; stroke: #9467bd"/>
     <use xlink:href="#m84e872b721" x="375.70513" y="335.04392" style="fill: #9467bd; stroke: #9467bd"/>
     <use xlink:href="#m84e872b721" x="403.66287" y="334.499813" style="fill: #9467bd; stroke: #9467bd"/>
     <use xlink:href="#m84e872b721" x="431.620609" y="332.595436" style="fill: #9467bd; stroke: #9467bd"/>
     <use xlink:href="#m84e872b721" x="459.578348" y="334.771866" style="fill: #9467bd; stroke: #9467bd"/>
     <use xlink:href="#m84e872b721" x="487.536087" y="334.771866" style="fill: #9467bd; stroke: #9467bd"/>
     <use xlink:href="#m84e872b721" x="515.493826" y="333.955705" style="fill: #9467bd; stroke: #9467bd"/>
     <use xlink:href="#m84e872b721" x="543.451565" y="335.588028" style="fill: #9467bd; stroke: #9467bd"/>
     <use xlink:href="#m84e872b721" x="571.409304" y="333.683651" style="fill: #9467bd; stroke: #9467bd"/>
     <use xlink:href="#m84e872b721" x="599.367043" y="335.315974" style="fill: #9467bd; stroke: #9467bd"/>
     <use xlink:href="#m84e872b721" x="627.324783" y="335.588028" style="fill: #9467bd; stroke: #9467bd"/>
     <use xlink:href="#m84e872b721" x="655.282522" y="334.499813" style="fill: #9467bd; stroke: #9467bd"/>
     <use xlink:href="#m84e872b721" x="683.240261" y="335.315974" style="fill: #9467bd; stroke: #9467bd"/>
     <use xlink:href="#m84e872b721" x="711.198" y="333.411598" style="fill: #9467bd; stroke: #9467bd"/>
    </g>
   </g>
   <g id="line2d_66">
    <path d="M 68.17 286.346297 
L 96.127739 284.44192 
L 124.085478 288.250673 
L 152.043217 283.897813 
L 180.000957 287.162458 
L 207.958696 298.86077 
L 235.916435 287.706566 
L 263.874174 288.522727 
L 291.831913 305.662114 
L 319.789652 314.911942 
L 347.747391 317.360426 
L 375.70513 319.80891 
L 403.66287 316.000157 
L 431.620609 311.103189 
L 459.578348 305.934168 
L 487.536087 305.934168 
L 515.493826 307.022383 
L 543.451565 305.118006 
L 571.409304 295.868178 
L 599.367043 302.125415 
L 627.324783 299.404877 
L 655.282522 305.118006 
L 683.240261 315.456049 
L 711.198 313.279619 
" clip-path="url(#pe66419fcc3)" style="fill: none; stroke: #8c564b; stroke-width: 1.5; stroke-linecap: square"/>
    <defs>
     <path id="m2166515429" d="M 0 1.5 
C 0.397805 1.5 0.77937 1.341951 1.06066 1.06066 
C 1.341951 0.77937 1.5 0.397805 1.5 0 
C 1.5 -0.397805 1.341951 -0.77937 1.06066 -1.06066 
C 0.77937 -1.341951 0.397805 -1.5 0 -1.5 
C -0.397805 -1.5 -0.77937 -1.341951 -1.06066 -1.06066 
C -1.341951 -0.77937 -1.5 -0.397805 -1.5 0 
C -1.5 0.397805 -1.341951 0.77937 -1.06066 1.06066 
C -0.77937 1.341951 -0.397805 1.5 0 1.5 
z
" style="stroke: #8c564b"/>
    </defs>
    <g clip-path="url(#pe66419fcc3)">
     <use xlink:href="#m2166515429" x="68.17" y="286.346297" style="fill: #8c564b; stroke: #8c564b"/>
     <use xlink:href="#m2166515429" x="96.127739" y="284.44192" style="fill: #8c564b; stroke: #8c564b"/>
     <use xlink:href="#m2166515429" x="124.085478" y="288.250673" style="fill: #8c564b; stroke: #8c564b"/>
     <use xlink:href="#m2166515429" x="152.043217" y="283.897813" style="fill: #8c564b; stroke: #8c564b"/>
     <use xlink:href="#m2166515429" x="180.000957" y="287.162458" style="fill: #8c564b; stroke: #8c564b"/>
     <use xlink:href="#m2166515429" x="207.958696" y="298.86077" style="fill: #8c564b; stroke: #8c564b"/>
     <use xlink:href="#m2166515429" x="235.916435" y="287.706566" style="fill: #8c564b; stroke: #8c564b"/>
     <use xlink:href="#m2166515429" x="263.874174" y="288.522727" style="fill: #8c564b; stroke: #8c564b"/>
     <use xlink:href="#m2166515429" x="291.831913" y="305.662114" style="fill: #8c564b; stroke: #8c564b"/>
     <use xlink:href="#m2166515429" x="319.789652" y="314.911942" style="fill: #8c564b; stroke: #8c564b"/>
     <use xlink:href="#m2166515429" x="347.747391" y="317.360426" style="fill: #8c564b; stroke: #8c564b"/>
     <use xlink:href="#m2166515429" x="375.70513" y="319.80891" style="fill: #8c564b; stroke: #8c564b"/>
     <use xlink:href="#m2166515429" x="403.66287" y="316.000157" style="fill: #8c564b; stroke: #8c564b"/>
     <use xlink:href="#m2166515429" x="431.620609" y="311.103189" style="fill: #8c564b; stroke: #8c564b"/>
     <use xlink:href="#m2166515429" x="459.578348" y="305.934168" style="fill: #8c564b; stroke: #8c564b"/>
     <use xlink:href="#m2166515429" x="487.536087" y="305.934168" style="fill: #8c564b; stroke: #8c564b"/>
     <use xlink:href="#m2166515429" x="515.493826" y="307.022383" style="fill: #8c564b; stroke: #8c564b"/>
     <use xlink:href="#m2166515429" x="543.451565" y="305.118006" style="fill: #8c564b; stroke: #8c564b"/>
     <use xlink:href="#m2166515429" x="571.409304" y="295.868178" style="fill: #8c564b; stroke: #8c564b"/>
     <use xlink:href="#m2166515429" x="599.367043" y="302.125415" style="fill: #8c564b; stroke: #8c564b"/>
     <use xlink:href="#m2166515429" x="627.324783" y="299.404877" style="fill: #8c564b; stroke: #8c564b"/>
     <use xlink:href="#m2166515429" x="655.282522" y="305.118006" style="fill: #8c564b; stroke: #8c564b"/>
     <use xlink:href="#m2166515429" x="683.240261" y="315.456049" style="fill: #8c564b; stroke: #8c564b"/>
     <use xlink:href="#m2166515429" x="711.198" y="313.279619" style="fill: #8c564b; stroke: #8c564b"/>
    </g>
   </g>
   <g id="line2d_67">
    <path d="M 68.17 107.606975 
L 96.127739 117.945018 
L 124.085478 120.393501 
L 152.043217 102.710007 
L 180.000957 141.885749 
L 207.958696 122.569932 
L 235.916435 120.393501 
L 263.874174 136.444673 
L 291.831913 150.319415 
L 319.789652 140.52548 
L 347.747391 119.305286 
L 375.70513 152.767899 
L 403.66287 124.474308 
L 431.620609 120.393501 
L 459.578348 136.444673 
L 487.536087 130.459491 
L 515.493826 148.142985 
L 543.451565 127.738953 
L 571.409304 116.856802 
L 599.367043 130.731544 
L 627.324783 139.437265 
L 655.282522 123.9302 
L 683.240261 96.724824 
L 711.198 63.806319 
" clip-path="url(#pe66419fcc3)" style="fill: none; stroke: #e377c2; stroke-width: 1.5; stroke-linecap: square"/>
    <defs>
     <path id="m8c4a95b9f8" d="M 0 1.5 
C 0.397805 1.5 0.77937 1.341951 1.06066 1.06066 
C 1.341951 0.77937 1.5 0.397805 1.5 0 
C 1.5 -0.397805 1.341951 -0.77937 1.06066 -1.06066 
C 0.77937 -1.341951 0.397805 -1.5 0 -1.5 
C -0.397805 -1.5 -0.77937 -1.341951 -1.06066 -1.06066 
C -1.341951 -0.77937 -1.5 -0.397805 -1.5 0 
C -1.5 0.397805 -1.341951 0.77937 -1.06066 1.06066 
C -0.77937 1.341951 -0.397805 1.5 0 1.5 
z
" style="stroke: #e377c2"/>
    </defs>
    <g clip-path="url(#pe66419fcc3)">
     <use xlink:href="#m8c4a95b9f8" x="68.17" y="107.606975" style="fill: #e377c2; stroke: #e377c2"/>
     <use xlink:href="#m8c4a95b9f8" x="96.127739" y="117.945018" style="fill: #e377c2; stroke: #e377c2"/>
     <use xlink:href="#m8c4a95b9f8" x="124.085478" y="120.393501" style="fill: #e377c2; stroke: #e377c2"/>
     <use xlink:href="#m8c4a95b9f8" x="152.043217" y="102.710007" style="fill: #e377c2; stroke: #e377c2"/>
     <use xlink:href="#m8c4a95b9f8" x="180.000957" y="141.885749" style="fill: #e377c2; stroke: #e377c2"/>
     <use xlink:href="#m8c4a95b9f8" x="207.958696" y="122.569932" style="fill: #e377c2; stroke: #e377c2"/>
     <use xlink:href="#m8c4a95b9f8" x="235.916435" y="120.393501" style="fill: #e377c2; stroke: #e377c2"/>
     <use xlink:href="#m8c4a95b9f8" x="263.874174" y="136.444673" style="fill: #e377c2; stroke: #e377c2"/>
     <use xlink:href="#m8c4a95b9f8" x="291.831913" y="150.319415" style="fill: #e377c2; stroke: #e377c2"/>
     <use xlink:href="#m8c4a95b9f8" x="319.789652" y="140.52548" style="fill: #e377c2; stroke: #e377c2"/>
     <use xlink:href="#m8c4a95b9f8" x="347.747391" y="119.305286" style="fill: #e377c2; stroke: #e377c2"/>
     <use xlink:href="#m8c4a95b9f8" x="375.70513" y="152.767899" style="fill: #e377c2; stroke: #e377c2"/>
     <use xlink:href="#m8c4a95b9f8" x="403.66287" y="124.474308" style="fill: #e377c2; stroke: #e377c2"/>
     <use xlink:href="#m8c4a95b9f8" x="431.620609" y="120.393501" style="fill: #e377c2; stroke: #e377c2"/>
     <use xlink:href="#m8c4a95b9f8" x="459.578348" y="136.444673" style="fill: #e377c2; stroke: #e377c2"/>
     <use xlink:href="#m8c4a95b9f8" x="487.536087" y="130.459491" style="fill: #e377c2; stroke: #e377c2"/>
     <use xlink:href="#m8c4a95b9f8" x="515.493826" y="148.142985" style="fill: #e377c2; stroke: #e377c2"/>
     <use xlink:href="#m8c4a95b9f8" x="543.451565" y="127.738953" style="fill: #e377c2; stroke: #e377c2"/>
     <use xlink:href="#m8c4a95b9f8" x="571.409304" y="116.856802" style="fill: #e377c2; stroke: #e377c2"/>
     <use xlink:href="#m8c4a95b9f8" x="599.367043" y="130.731544" style="fill: #e377c2; stroke: #e377c2"/>
     <use xlink:href="#m8c4a95b9f8" x="627.324783" y="139.437265" style="fill: #e377c2; stroke: #e377c2"/>
     <use xlink:href="#m8c4a95b9f8" x="655.282522" y="123.9302" style="fill: #e377c2; stroke: #e377c2"/>
     <use xlink:href="#m8c4a95b9f8" x="683.240261" y="96.724824" style="fill: #e377c2; stroke: #e377c2"/>
     <use xlink:href="#m8c4a95b9f8" x="711.198" y="63.806319" style="fill: #e377c2; stroke: #e377c2"/>
    </g>
   </g>
   <g id="line2d_68">
    <path d="M 68.17 301.581307 
L 96.127739 305.934168 
L 124.085478 303.21363 
L 152.043217 304.029791 
L 180.000957 316.272211 
L 207.958696 314.639888 
L 235.916435 295.868178 
L 263.874174 304.845953 
L 291.831913 313.279619 
L 319.789652 316.000157 
L 347.747391 302.397469 
L 375.70513 310.559082 
L 403.66287 310.831135 
L 431.620609 308.382651 
L 459.578348 305.39006 
L 487.536087 296.140232 
L 515.493826 300.493092 
L 543.451565 290.427103 
L 571.409304 287.978619 
L 599.367043 292.875587 
L 627.324783 295.596125 
L 655.282522 304.301845 
L 683.240261 292.875587 
L 711.198 300.493092 
" clip-path="url(#pe66419fcc3)" style="fill: none; stroke: #7f7f7f; stroke-width: 1.5; stroke-linecap: square"/>
    <defs>
     <path id="m9c56b85413" d="M 0 1.5 
C 0.397805 1.5 0.77937 1.341951 1.06066 1.06066 
C 1.341951 0.77937 1.5 0.397805 1.5 0 
C 1.5 -0.397805 1.341951 -0.77937 1.06066 -1.06066 
C 0.77937 -1.341951 0.397805 -1.5 0 -1.5 
C -0.397805 -1.5 -0.77937 -1.341951 -1.06066 -1.06066 
C -1.341951 -0.77937 -1.5 -0.397805 -1.5 0 
C -1.5 0.397805 -1.341951 0.77937 -1.06066 1.06066 
C -0.77937 1.341951 -0.397805 1.5 0 1.5 
z
" style="stroke: #7f7f7f"/>
    </defs>
    <g clip-path="url(#pe66419fcc3)">
     <use xlink:href="#m9c56b85413" x="68.17" y="301.581307" style="fill: #7f7f7f; stroke: #7f7f7f"/>
     <use xlink:href="#m9c56b85413" x="96.127739" y="305.934168" style="fill: #7f7f7f; stroke: #7f7f7f"/>
     <use xlink:href="#m9c56b85413" x="124.085478" y="303.21363" style="fill: #7f7f7f; stroke: #7f7f7f"/>
     <use xlink:href="#m9c56b85413" x="152.043217" y="304.029791" style="fill: #7f7f7f; stroke: #7f7f7f"/>
     <use xlink:href="#m9c56b85413" x="180.000957" y="316.272211" style="fill: #7f7f7f; stroke: #7f7f7f"/>
     <use xlink:href="#m9c56b85413" x="207.958696" y="314.639888" style="fill: #7f7f7f; stroke: #7f7f7f"/>
     <use xlink:href="#m9c56b85413" x="235.916435" y="295.868178" style="fill: #7f7f7f; stroke: #7f7f7f"/>
     <use xlink:href="#m9c56b85413" x="263.874174" y="304.845953" style="fill: #7f7f7f; stroke: #7f7f7f"/>
     <use xlink:href="#m9c56b85413" x="291.831913" y="313.279619" style="fill: #7f7f7f; stroke: #7f7f7f"/>
     <use xlink:href="#m9c56b85413" x="319.789652" y="316.000157" style="fill: #7f7f7f; stroke: #7f7f7f"/>
     <use xlink:href="#m9c56b85413" x="347.747391" y="302.397469" style="fill: #7f7f7f; stroke: #7f7f7f"/>
     <use xlink:href="#m9c56b85413" x="375.70513" y="310.559082" style="fill: #7f7f7f; stroke: #7f7f7f"/>
     <use xlink:href="#m9c56b85413" x="403.66287" y="310.831135" style="fill: #7f7f7f; stroke: #7f7f7f"/>
     <use xlink:href="#m9c56b85413" x="431.620609" y="308.382651" style="fill: #7f7f7f; stroke: #7f7f7f"/>
     <use xlink:href="#m9c56b85413" x="459.578348" y="305.39006" style="fill: #7f7f7f; stroke: #7f7f7f"/>
     <use xlink:href="#m9c56b85413" x="487.536087" y="296.140232" style="fill: #7f7f7f; stroke: #7f7f7f"/>
     <use xlink:href="#m9c56b85413" x="515.493826" y="300.493092" style="fill: #7f7f7f; stroke: #7f7f7f"/>
     <use xlink:href="#m9c56b85413" x="543.451565" y="290.427103" style="fill: #7f7f7f; stroke: #7f7f7f"/>
     <use xlink:href="#m9c56b85413" x="571.409304" y="287.978619" style="fill: #7f7f7f; stroke: #7f7f7f"/>
     <use xlink:href="#m9c56b85413" x="599.367043" y="292.875587" style="fill: #7f7f7f; stroke: #7f7f7f"/>
     <use xlink:href="#m9c56b85413" x="627.324783" y="295.596125" style="fill: #7f7f7f; stroke: #7f7f7f"/>
     <use xlink:href="#m9c56b85413" x="655.282522" y="304.301845" style="fill: #7f7f7f; stroke: #7f7f7f"/>
     <use xlink:href="#m9c56b85413" x="683.240261" y="292.875587" style="fill: #7f7f7f; stroke: #7f7f7f"/>
     <use xlink:href="#m9c56b85413" x="711.198" y="300.493092" style="fill: #7f7f7f; stroke: #7f7f7f"/>
    </g>
   </g>
   <g id="line2d_69">
    <path d="M 291.831913 350.999873 
L 291.831913 35.88 
" clip-path="url(#pe66419fcc3)" style="fill: none; stroke-dasharray: 4.44,1.92; stroke-dashoffset: 0; stroke: #ff8c00; stroke-opacity: 0.9; stroke-width: 1.2"/>
   </g>
   <g id="patch_3">
    <path d="M 68.17 350.999873 
L 68.17 35.88 
" style="fill: none; opacity: 0.1; stroke: #000000; stroke-width: 0.8; stroke-linejoin: miter; stroke-linecap: square"/>
   </g>
   <g id="patch_4">
    <path d="M 711.198 350.999873 
L 711.198 35.88 
" style="fill: none; opacity: 0.1; stroke: #000000; stroke-width: 0.8; stroke-linejoin: miter; stroke-linecap: square"/>
   </g>
   <g id="patch_5">
    <path d="M 68.17 350.999873 
L 711.198 350.999873 
" style="fill: none; opacity: 0.1; stroke: #000000; stroke-width: 0.8; stroke-linejoin: miter; stroke-linecap: square"/>
   </g>
   <g id="patch_6">
    <path d="M 68.17 35.88 
L 711.198 35.88 
" style="fill: none; opacity: 0.1; stroke: #000000; stroke-width: 0.8; stroke-linejoin: miter; stroke-linecap: square"/>
   </g>
   <g id="text_33">
    <!-- COVID starts -->
    <g style="fill: #ff8c00" transform="translate(289.960194 105.450212) rotate(-90) scale(0.09 -0.09)">
     <defs>
      <path id="DejaVuSans-43" d="M 4122 4306 
L 4122 3641 
Q 3803 3938 3442 4084 
Q 3081 4231 2675 4231 
Q 1875 4231 1450 3742 
Q 1025 3253 1025 2328 
Q 1025 1406 1450 917 
Q 1875 428 2675 428 
Q 3081 428 3442 575 
Q 3803 722 4122 1019 
L 4122 359 
Q 3791 134 3420 21 
Q 3050 -91 2638 -91 
Q 1578 -91 968 557 
Q 359 1206 359 2328 
Q 359 3453 968 4101 
Q 1578 4750 2638 4750 
Q 3056 4750 3426 4639 
Q 3797 4528 4122 4306 
z
" transform="scale(0.015625)"/>
      <path id="DejaVuSans-56" d="M 1831 0 
L 50 4666 
L 709 4666 
L 2188 738 
L 3669 4666 
L 4325 4666 
L 2547 0 
L 1831 0 
z
" transform="scale(0.015625)"/>
     </defs>
     <use xlink:href="#DejaVuSans-43"/>
     <use xlink:href="#DejaVuSans-4f" transform="translate(69.824219 0)"/>
     <use xlink:href="#DejaVuSans-56" transform="translate(146.785156 0)"/>
     <use xlink:href="#DejaVuSans-49" transform="translate(215.193359 0)"/>
     <use xlink:href="#DejaVuSans-44" transform="translate(244.685547 0)"/>
     <use xlink:href="#DejaVuSans-20" transform="translate(321.6875 0)"/>
     <use xlink:href="#DejaVuSans-73" transform="translate(353.474609 0)"/>
     <use xlink:href="#DejaVuSans-74" transform="translate(405.574219 0)"/>
     <use xlink:href="#DejaVuSans-61" transform="translate(444.783203 0)"/>
     <use xlink:href="#DejaVuSans-72" transform="translate(506.0625 0)"/>
     <use xlink:href="#DejaVuSans-74" transform="translate(547.175781 0)"/>
     <use xlink:href="#DejaVuSans-73" transform="translate(586.384766 0)"/>
    </g>
   </g>
   <g id="text_34">
    <!-- Monthly Count of Selected Crimes in San Francisco (July 2019-June 2021) -->
    <g transform="translate(151.292437 20.88) scale(0.13 -0.13)">
     <defs>
      <path id="DejaVuSans-28" d="M 1984 4856 
Q 1566 4138 1362 3434 
Q 1159 2731 1159 2009 
Q 1159 1288 1364 580 
Q 1569 -128 1984 -844 
L 1484 -844 
Q 1016 -109 783 600 
Q 550 1309 550 2009 
Q 550 2706 781 3412 
Q 1013 4119 1484 4856 
L 1984 4856 
z
" transform="scale(0.015625)"/>
      <path id="DejaVuSans-39" d="M 703 97 
L 703 672 
Q 941 559 1184 500 
Q 1428 441 1663 441 
Q 2288 441 2617 861 
Q 2947 1281 2994 2138 
Q 2813 1869 2534 1725 
Q 2256 1581 1919 1581 
Q 1219 1581 811 2004 
Q 403 2428 403 3163 
Q 403 3881 828 4315 
Q 1253 4750 1959 4750 
Q 2769 4750 3195 4129 
Q 3622 3509 3622 2328 
Q 3622 1225 3098 567 
Q 2575 -91 1691 -91 
Q 1453 -91 1209 -44 
Q 966 3 703 97 
z
M 1959 2075 
Q 2384 2075 2632 2365 
Q 2881 2656 2881 3163 
Q 2881 3666 2632 3958 
Q 2384 4250 1959 4250 
Q 1534 4250 1286 3958 
Q 1038 3666 1038 3163 
Q 1038 2656 1286 2365 
Q 1534 2075 1959 2075 
z
" transform="scale(0.015625)"/>
      <path id="DejaVuSans-2d" d="M 313 2009 
L 1997 2009 
L 1997 1497 
L 313 1497 
L 313 2009 
z
" transform="scale(0.015625)"/>
      <path id="DejaVuSans-29" d="M 513 4856 
L 1013 4856 
Q 1481 4119 1714 3412 
Q 1947 2706 1947 2009 
Q 1947 1309 1714 600 
Q 1481 -109 1013 -844 
L 513 -844 
Q 928 -128 1133 580 
Q 1338 1288 1338 2009 
Q 1338 2731 1133 3434 
Q 928 4138 513 4856 
z
" transform="scale(0.015625)"/>
     </defs>
     <use xlink:href="#DejaVuSans-4d"/>
     <use xlink:href="#DejaVuSans-6f" transform="translate(86.279297 0)"/>
     <use xlink:href="#DejaVuSans-6e" transform="translate(147.460938 0)"/>
     <use xlink:href="#DejaVuSans-74" transform="translate(210.839844 0)"/>
     <use xlink:href="#DejaVuSans-68" transform="translate(250.048828 0)"/>
     <use xlink:href="#DejaVuSans-6c" transform="translate(313.427734 0)"/>
     <use xlink:href="#DejaVuSans-79" transform="translate(341.210938 0)"/>
     <use xlink:href="#DejaVuSans-20" transform="translate(400.390625 0)"/>
     <use xlink:href="#DejaVuSans-43" transform="translate(432.177734 0)"/>
     <use xlink:href="#DejaVuSans-6f" transform="translate(502.001953 0)"/>
     <use xlink:href="#DejaVuSans-75" transform="translate(563.183594 0)"/>
     <use xlink:href="#DejaVuSans-6e" transform="translate(626.5625 0)"/>
     <use xlink:href="#DejaVuSans-74" transform="translate(689.941406 0)"/>
     <use xlink:href="#DejaVuSans-20" transform="translate(729.150391 0)"/>
     <use xlink:href="#DejaVuSans-6f" transform="translate(760.9375 0)"/>
     <use xlink:href="#DejaVuSans-66" transform="translate(822.119141 0)"/>
     <use xlink:href="#DejaVuSans-20" transform="translate(857.324219 0)"/>
     <use xlink:href="#DejaVuSans-53" transform="translate(889.111328 0)"/>
     <use xlink:href="#DejaVuSans-65" transform="translate(952.587891 0)"/>
     <use xlink:href="#DejaVuSans-6c" transform="translate(1014.111328 0)"/>
     <use xlink:href="#DejaVuSans-65" transform="translate(1041.894531 0)"/>
     <use xlink:href="#DejaVuSans-63" transform="translate(1103.417969 0)"/>
     <use xlink:href="#DejaVuSans-74" transform="translate(1158.398438 0)"/>
     <use xlink:href="#DejaVuSans-65" transform="translate(1197.607422 0)"/>
     <use xlink:href="#DejaVuSans-64" transform="translate(1259.130859 0)"/>
     <use xlink:href="#DejaVuSans-20" transform="translate(1322.607422 0)"/>
     <use xlink:href="#DejaVuSans-43" transform="translate(1354.394531 0)"/>
     <use xlink:href="#DejaVuSans-72" transform="translate(1424.21875 0)"/>
     <use xlink:href="#DejaVuSans-69" transform="translate(1465.332031 0)"/>
     <use xlink:href="#DejaVuSans-6d" transform="translate(1493.115234 0)"/>
     <use xlink:href="#DejaVuSans-65" transform="translate(1590.527344 0)"/>
     <use xlink:href="#DejaVuSans-73" transform="translate(1652.050781 0)"/>
     <use xlink:href="#DejaVuSans-20" transform="translate(1704.150391 0)"/>
     <use xlink:href="#DejaVuSans-69" transform="translate(1735.9375 0)"/>
     <use xlink:href="#DejaVuSans-6e" transform="translate(1763.720703 0)"/>
     <use xlink:href="#DejaVuSans-20" transform="translate(1827.099609 0)"/>
     <use xlink:href="#DejaVuSans-53" transform="translate(1858.886719 0)"/>
     <use xlink:href="#DejaVuSans-61" transform="translate(1922.363281 0)"/>
     <use xlink:href="#DejaVuSans-6e" transform="translate(1983.642578 0)"/>
     <use xlink:href="#DejaVuSans-20" transform="translate(2047.021484 0)"/>
     <use xlink:href="#DejaVuSans-46" transform="translate(2078.808594 0)"/>
     <use xlink:href="#DejaVuSans-72" transform="translate(2129.078125 0)"/>
     <use xlink:href="#DejaVuSans-61" transform="translate(2170.191406 0)"/>
     <use xlink:href="#DejaVuSans-6e" transform="translate(2231.470703 0)"/>
     <use xlink:href="#DejaVuSans-63" transform="translate(2294.849609 0)"/>
     <use xlink:href="#DejaVuSans-69" transform="translate(2349.830078 0)"/>
     <use xlink:href="#DejaVuSans-73" transform="translate(2377.613281 0)"/>
     <use xlink:href="#DejaVuSans-63" transform="translate(2429.712891 0)"/>
     <use xlink:href="#DejaVuSans-6f" transform="translate(2484.693359 0)"/>
     <use xlink:href="#DejaVuSans-20" transform="translate(2545.875 0)"/>
     <use xlink:href="#DejaVuSans-28" transform="translate(2577.662109 0)"/>
     <use xlink:href="#DejaVuSans-4a" transform="translate(2616.675781 0)"/>
     <use xlink:href="#DejaVuSans-75" transform="translate(2646.167969 0)"/>
     <use xlink:href="#DejaVuSans-6c" transform="translate(2709.546875 0)"/>
     <use xlink:href="#DejaVuSans-79" transform="translate(2737.330078 0)"/>
     <use xlink:href="#DejaVuSans-20" transform="translate(2796.509766 0)"/>
     <use xlink:href="#DejaVuSans-32" transform="translate(2828.296875 0)"/>
     <use xlink:href="#DejaVuSans-30" transform="translate(2891.919922 0)"/>
     <use xlink:href="#DejaVuSans-31" transform="translate(2955.542969 0)"/>
     <use xlink:href="#DejaVuSans-39" transform="translate(3019.166016 0)"/>
     <use xlink:href="#DejaVuSans-2d" transform="translate(3082.789062 0)"/>
     <use xlink:href="#DejaVuSans-4a" transform="translate(3124.498047 0)"/>
     <use xlink:href="#DejaVuSans-75" transform="translate(3153.990234 0)"/>
     <use xlink:href="#DejaVuSans-6e" transform="translate(3217.369141 0)"/>
     <use xlink:href="#DejaVuSans-65" transform="translate(3280.748047 0)"/>
     <use xlink:href="#DejaVuSans-20" transform="translate(3342.271484 0)"/>
     <use xlink:href="#DejaVuSans-32" transform="translate(3374.058594 0)"/>
     <use xlink:href="#DejaVuSans-30" transform="translate(3437.681641 0)"/>
     <use xlink:href="#DejaVuSans-32" transform="translate(3501.304688 0)"/>
     <use xlink:href="#DejaVuSans-31" transform="translate(3564.927734 0)"/>
     <use xlink:href="#DejaVuSans-29" transform="translate(3628.550781 0)"/>
    </g>
   </g>
   <g id="legend_1">
    <g id="patch_7">
     <path d="M 726.05856 170.983125 
L 850.806997 170.983125 
Q 852.806997 170.983125 852.806997 168.983125 
L 852.806997 37.88 
Q 852.806997 35.88 850.806997 35.88 
L 726.05856 35.88 
Q 724.05856 35.88 724.05856 37.88 
L 724.05856 168.983125 
Q 724.05856 170.983125 726.05856 170.983125 
z
" style="fill: #ffffff; opacity: 0.8; stroke: #cccccc; stroke-linejoin: miter"/>
    </g>
    <g id="text_35">
     <!-- Crime Type -->
     <g transform="translate(760.478091 47.478437) scale(0.1 -0.1)">
      <defs>
       <path id="DejaVuSans-54" d="M -19 4666 
L 3928 4666 
L 3928 4134 
L 2272 4134 
L 2272 0 
L 1638 0 
L 1638 4134 
L -19 4134 
L -19 4666 
z
" transform="scale(0.015625)"/>
      </defs>
      <use xlink:href="#DejaVuSans-43"/>
      <use xlink:href="#DejaVuSans-72" transform="translate(69.824219 0)"/>
      <use xlink:href="#DejaVuSans-69" transform="translate(110.9375 0)"/>
      <use xlink:href="#DejaVuSans-6d" transform="translate(138.720703 0)"/>
      <use xlink:href="#DejaVuSans-65" transform="translate(236.132812 0)"/>
      <use xlink:href="#DejaVuSans-20" transform="translate(297.65625 0)"/>
      <use xlink:href="#DejaVuSans-54" transform="translate(329.443359 0)"/>
      <use xlink:href="#DejaVuSans-79" transform="translate(374.902344 0)"/>
      <use xlink:href="#DejaVuSans-70" transform="translate(434.082031 0)"/>
      <use xlink:href="#DejaVuSans-65" transform="translate(497.558594 0)"/>
     </g>
    </g>
    <g id="line2d_70">
     <path d="M 728.05856 58.656563 
L 738.05856 58.656563 
L 748.05856 58.656563 
" style="fill: none; stroke: #1f77b4; stroke-width: 1.5; stroke-linecap: square"/>
     <g>
      <use xlink:href="#ma0ca2db387" x="738.05856" y="58.656563" style="fill: #1f77b4; stroke: #1f77b4"/>
     </g>
    </g>
    <g id="text_36">
     <!-- Assault -->
     <g transform="translate(756.05856 62.156563) scale(0.1 -0.1)">
      <use xlink:href="#DejaVuSans-41"/>
      <use xlink:href="#DejaVuSans-73" transform="translate(68.408203 0)"/>
      <use xlink:href="#DejaVuSans-73" transform="translate(120.507812 0)"/>
      <use xlink:href="#DejaVuSans-61" transform="translate(172.607422 0)"/>
      <use xlink:href="#DejaVuSans-75" transform="translate(233.886719 0)"/>
      <use xlink:href="#DejaVuSans-6c" transform="translate(297.265625 0)"/>
      <use xlink:href="#DejaVuSans-74" transform="translate(325.048828 0)"/>
     </g>
    </g>
    <g id="line2d_71">
     <path d="M 728.05856 73.334688 
L 738.05856 73.334688 
L 748.05856 73.334688 
" style="fill: none; stroke: #ff7f0e; stroke-width: 1.5; stroke-linecap: square"/>
     <g>
      <use xlink:href="#md2e127e759" x="738.05856" y="73.334688" style="fill: #ff7f0e; stroke: #ff7f0e"/>
     </g>
    </g>
    <g id="text_37">
     <!-- Burglary -->
     <g transform="translate(756.05856 76.834688) scale(0.1 -0.1)">
      <defs>
       <path id="DejaVuSans-42" d="M 1259 2228 
L 1259 519 
L 2272 519 
Q 2781 519 3026 730 
Q 3272 941 3272 1375 
Q 3272 1813 3026 2020 
Q 2781 2228 2272 2228 
L 1259 2228 
z
M 1259 4147 
L 1259 2741 
L 2194 2741 
Q 2656 2741 2882 2914 
Q 3109 3088 3109 3444 
Q 3109 3797 2882 3972 
Q 2656 4147 2194 4147 
L 1259 4147 
z
M 628 4666 
L 2241 4666 
Q 2963 4666 3353 4366 
Q 3744 4066 3744 3513 
Q 3744 3084 3544 2831 
Q 3344 2578 2956 2516 
Q 3422 2416 3680 2098 
Q 3938 1781 3938 1306 
Q 3938 681 3513 340 
Q 3088 0 2303 0 
L 628 0 
L 628 4666 
z
" transform="scale(0.015625)"/>
      </defs>
      <use xlink:href="#DejaVuSans-42"/>
      <use xlink:href="#DejaVuSans-75" transform="translate(68.603516 0)"/>
      <use xlink:href="#DejaVuSans-72" transform="translate(131.982422 0)"/>
      <use xlink:href="#DejaVuSans-67" transform="translate(171.345703 0)"/>
      <use xlink:href="#DejaVuSans-6c" transform="translate(234.822266 0)"/>
      <use xlink:href="#DejaVuSans-61" transform="translate(262.605469 0)"/>
      <use xlink:href="#DejaVuSans-72" transform="translate(323.884766 0)"/>
      <use xlink:href="#DejaVuSans-79" transform="translate(364.998047 0)"/>
     </g>
    </g>
    <g id="line2d_72">
     <path d="M 728.05856 88.012812 
L 738.05856 88.012812 
L 748.05856 88.012812 
" style="fill: none; stroke: #2ca02c; stroke-width: 1.5; stroke-linecap: square"/>
     <g>
      <use xlink:href="#mef160bb4c1" x="738.05856" y="88.012812" style="fill: #2ca02c; stroke: #2ca02c"/>
     </g>
    </g>
    <g id="text_38">
     <!-- Drug Offenses -->
     <g transform="translate(756.05856 91.512812) scale(0.1 -0.1)">
      <use xlink:href="#DejaVuSans-44"/>
      <use xlink:href="#DejaVuSans-72" transform="translate(77.001953 0)"/>
      <use xlink:href="#DejaVuSans-75" transform="translate(118.115234 0)"/>
      <use xlink:href="#DejaVuSans-67" transform="translate(181.494141 0)"/>
      <use xlink:href="#DejaVuSans-20" transform="translate(244.970703 0)"/>
      <use xlink:href="#DejaVuSans-4f" transform="translate(276.757812 0)"/>
      <use xlink:href="#DejaVuSans-66" transform="translate(355.46875 0)"/>
      <use xlink:href="#DejaVuSans-66" transform="translate(390.673828 0)"/>
      <use xlink:href="#DejaVuSans-65" transform="translate(425.878906 0)"/>
      <use xlink:href="#DejaVuSans-6e" transform="translate(487.402344 0)"/>
      <use xlink:href="#DejaVuSans-73" transform="translate(550.78125 0)"/>
      <use xlink:href="#DejaVuSans-65" transform="translate(602.880859 0)"/>
      <use xlink:href="#DejaVuSans-73" transform="translate(664.404297 0)"/>
     </g>
    </g>
    <g id="line2d_73">
     <path d="M 728.05856 102.690938 
L 738.05856 102.690938 
L 748.05856 102.690938 
" style="fill: none; stroke: #d62728; stroke-width: 1.5; stroke-linecap: square"/>
     <g>
      <use xlink:href="#m9bf9a1fcb7" x="738.05856" y="102.690938" style="fill: #d62728; stroke: #d62728"/>
     </g>
    </g>
    <g id="text_39">
     <!-- Fraud -->
     <g transform="translate(756.05856 106.190938) scale(0.1 -0.1)">
      <use xlink:href="#DejaVuSans-46"/>
      <use xlink:href="#DejaVuSans-72" transform="translate(50.269531 0)"/>
      <use xlink:href="#DejaVuSans-61" transform="translate(91.382812 0)"/>
      <use xlink:href="#DejaVuSans-75" transform="translate(152.662109 0)"/>
      <use xlink:href="#DejaVuSans-64" transform="translate(216.041016 0)"/>
     </g>
    </g>
    <g id="line2d_74">
     <path d="M 728.05856 117.369063 
L 738.05856 117.369063 
L 748.05856 117.369063 
" style="fill: none; stroke: #9467bd; stroke-width: 1.5; stroke-linecap: square"/>
     <g>
      <use xlink:href="#m84e872b721" x="738.05856" y="117.369063" style="fill: #9467bd; stroke: #9467bd"/>
     </g>
    </g>
    <g id="text_40">
     <!-- Sex Offenses -->
     <g transform="translate(756.05856 120.869063) scale(0.1 -0.1)">
      <defs>
       <path id="DejaVuSans-78" d="M 3513 3500 
L 2247 1797 
L 3578 0 
L 2900 0 
L 1881 1375 
L 863 0 
L 184 0 
L 1544 1831 
L 300 3500 
L 978 3500 
L 1906 2253 
L 2834 3500 
L 3513 3500 
z
" transform="scale(0.015625)"/>
      </defs>
      <use xlink:href="#DejaVuSans-53"/>
      <use xlink:href="#DejaVuSans-65" transform="translate(63.476562 0)"/>
      <use xlink:href="#DejaVuSans-78" transform="translate(123.25 0)"/>
      <use xlink:href="#DejaVuSans-20" transform="translate(182.429688 0)"/>
      <use xlink:href="#DejaVuSans-4f" transform="translate(214.216797 0)"/>
      <use xlink:href="#DejaVuSans-66" transform="translate(292.927734 0)"/>
      <use xlink:href="#DejaVuSans-66" transform="translate(328.132812 0)"/>
      <use xlink:href="#DejaVuSans-65" transform="translate(363.337891 0)"/>
      <use xlink:href="#DejaVuSans-6e" transform="translate(424.861328 0)"/>
      <use xlink:href="#DejaVuSans-73" transform="translate(488.240234 0)"/>
      <use xlink:href="#DejaVuSans-65" transform="translate(540.339844 0)"/>
      <use xlink:href="#DejaVuSans-73" transform="translate(601.863281 0)"/>
     </g>
    </g>
    <g id="line2d_75">
     <path d="M 728.05856 132.047188 
L 738.05856 132.047188 
L 748.05856 132.047188 
" style="fill: none; stroke: #8c564b; stroke-width: 1.5; stroke-linecap: square"/>
     <g>
      <use xlink:href="#m2166515429" x="738.05856" y="132.047188" style="fill: #8c564b; stroke: #8c564b"/>
     </g>
    </g>
    <g id="text_41">
     <!-- Traffic Violations -->
     <g transform="translate(756.05856 135.547188) scale(0.1 -0.1)">
      <use xlink:href="#DejaVuSans-54"/>
      <use xlink:href="#DejaVuSans-72" transform="translate(46.333984 0)"/>
      <use xlink:href="#DejaVuSans-61" transform="translate(87.447266 0)"/>
      <use xlink:href="#DejaVuSans-66" transform="translate(148.726562 0)"/>
      <use xlink:href="#DejaVuSans-66" transform="translate(183.931641 0)"/>
      <use xlink:href="#DejaVuSans-69" transform="translate(219.136719 0)"/>
      <use xlink:href="#DejaVuSans-63" transform="translate(246.919922 0)"/>
      <use xlink:href="#DejaVuSans-20" transform="translate(301.900391 0)"/>
      <use xlink:href="#DejaVuSans-56" transform="translate(333.6875 0)"/>
      <use xlink:href="#DejaVuSans-69" transform="translate(399.845703 0)"/>
      <use xlink:href="#DejaVuSans-6f" transform="translate(427.628906 0)"/>
      <use xlink:href="#DejaVuSans-6c" transform="translate(488.810547 0)"/>
      <use xlink:href="#DejaVuSans-61" transform="translate(516.59375 0)"/>
      <use xlink:href="#DejaVuSans-74" transform="translate(577.873047 0)"/>
      <use xlink:href="#DejaVuSans-69" transform="translate(617.082031 0)"/>
      <use xlink:href="#DejaVuSans-6f" transform="translate(644.865234 0)"/>
      <use xlink:href="#DejaVuSans-6e" transform="translate(706.046875 0)"/>
      <use xlink:href="#DejaVuSans-73" transform="translate(769.425781 0)"/>
     </g>
    </g>
    <g id="line2d_76">
     <path d="M 728.05856 146.725312 
L 738.05856 146.725312 
L 748.05856 146.725312 
" style="fill: none; stroke: #e377c2; stroke-width: 1.5; stroke-linecap: square"/>
     <g>
      <use xlink:href="#m8c4a95b9f8" x="738.05856" y="146.725312" style="fill: #e377c2; stroke: #e377c2"/>
     </g>
    </g>
    <g id="text_42">
     <!-- Vandalism -->
     <g transform="translate(756.05856 150.225312) scale(0.1 -0.1)">
      <use xlink:href="#DejaVuSans-56"/>
      <use xlink:href="#DejaVuSans-61" transform="translate(60.658203 0)"/>
      <use xlink:href="#DejaVuSans-6e" transform="translate(121.9375 0)"/>
      <use xlink:href="#DejaVuSans-64" transform="translate(185.316406 0)"/>
      <use xlink:href="#DejaVuSans-61" transform="translate(248.792969 0)"/>
      <use xlink:href="#DejaVuSans-6c" transform="translate(310.072266 0)"/>
      <use xlink:href="#DejaVuSans-69" transform="translate(337.855469 0)"/>
      <use xlink:href="#DejaVuSans-73" transform="translate(365.638672 0)"/>
      <use xlink:href="#DejaVuSans-6d" transform="translate(417.738281 0)"/>
     </g>
    </g>
    <g id="line2d_77">
     <path d="M 728.05856 161.403437 
L 738.05856 161.403437 
L 748.05856 161.403437 
" style="fill: none; stroke: #7f7f7f; stroke-width: 1.5; stroke-linecap: square"/>
     <g>
      <use xlink:href="#m9c56b85413" x="738.05856" y="161.403437" style="fill: #7f7f7f; stroke: #7f7f7f"/>
     </g>
    </g>
    <g id="text_43">
     <!-- Weapons Offenses -->
     <g transform="translate(756.05856 164.903437) scale(0.1 -0.1)">
      <defs>
       <path id="DejaVuSans-57" d="M 213 4666 
L 850 4666 
L 1831 722 
L 2809 4666 
L 3519 4666 
L 4500 722 
L 5478 4666 
L 6119 4666 
L 4947 0 
L 4153 0 
L 3169 4050 
L 2175 0 
L 1381 0 
L 213 4666 
z
" transform="scale(0.015625)"/>
      </defs>
      <use xlink:href="#DejaVuSans-57"/>
      <use xlink:href="#DejaVuSans-65" transform="translate(93.001953 0)"/>
      <use xlink:href="#DejaVuSans-61" transform="translate(154.525391 0)"/>
      <use xlink:href="#DejaVuSans-70" transform="translate(215.804688 0)"/>
      <use xlink:href="#DejaVuSans-6f" transform="translate(279.28125 0)"/>
      <use xlink:href="#DejaVuSans-6e" transform="translate(340.462891 0)"/>
      <use xlink:href="#DejaVuSans-73" transform="translate(403.841797 0)"/>
      <use xlink:href="#DejaVuSans-20" transform="translate(455.941406 0)"/>
      <use xlink:href="#DejaVuSans-4f" transform="translate(487.728516 0)"/>
      <use xlink:href="#DejaVuSans-66" transform="translate(566.439453 0)"/>
      <use xlink:href="#DejaVuSans-66" transform="translate(601.644531 0)"/>
      <use xlink:href="#DejaVuSans-65" transform="translate(636.849609 0)"/>
      <use xlink:href="#DejaVuSans-6e" transform="translate(698.373047 0)"/>
      <use xlink:href="#DejaVuSans-73" transform="translate(761.751953 0)"/>
      <use xlink:href="#DejaVuSans-65" transform="translate(813.851562 0)"/>
      <use xlink:href="#DejaVuSans-73" transform="translate(875.375 0)"/>
     </g>
    </g>
   </g>
  </g>
 </g>
 <defs>
  <clipPath id="pe66419fcc3">
   <rect x="68.17" y="35.88" width="643.028" height="315.119873"/>
  </clipPath>
 </defs>
</svg>
