<?xml version="1.0" encoding="utf-8" standalone="no"?>
<!DOCTYPE svg PUBLIC "-//W3C//DTD SVG 1.1//EN"
  "http://www.w3.org/Graphics/SVG/1.1/DTD/svg11.dtd">
<svg xmlns:xlink="http://www.w3.org/1999/xlink" width="864pt" height="432pt" viewBox="0 0 864 432" xmlns="http://www.w3.org/2000/svg" version="1.1">
 <metadata>
  <rdf:RDF xmlns:dc="http://purl.org/dc/elements/1.1/" xmlns:cc="http://creativecommons.org/ns#" xmlns:rdf="http://www.w3.org/1999/02/22-rdf-syntax-ns#">
   <cc:Work>
    <dc:type rdf:resource="http://purl.org/dc/dcmitype/StillImage"/>
    <dc:date>2026-03-17T11:29:24.763717</dc:date>
    <dc:format>image/svg+xml</dc:format>
    <dc:creator>
     <cc:Agent>
      <dc:title>Matplotlib v3.10.7, https://matplotlib.org/</dc:title>
     </cc:Agent>
    </dc:creator>
   </cc:Work>
  </rdf:RDF>
 </metadata>
 <defs>
  <style type="text/css">*{stroke-linejoin: round; stroke-linecap: butt}</style>
 </defs>
 <g id="figure_1">
  <g id="patch_1">
   <path d="M 0 432 
L 864 432 
L 864 0 
L 0 0 
z
" style="fill: #ffffff"/>
  </g>
  <g id="axes_1">
   <g id="patch_2">
    <path d="M 62.06274 370.466979 
L 754.992578 370.466979 
L 754.992578 32.579615 
L 62.06274 32.579615 
z
" style="fill: #ffffff"/>
   </g>
   <g id="matplotlib.axis_1">
    <g id="xtick_1">
     <g id="line2d_1">
      <path d="M 93.559551 370.466979 
L 93.559551 32.579615 
" clip-path="url(#p9aff2e2d03)" style="fill: none; stroke: #b0b0b0; stroke-opacity: 0.2; stroke-width: 0.8; stroke-linecap: square"/>
     </g>
     <g id="line2d_2">
      <defs>
       <path id="m39bd2b479d" d="M 0 0 
L 0 3.5 
" style="stroke: #000000; stroke-width: 0.8"/>
      </defs>
      <g>
       <use xlink:href="#m39bd2b479d" x="93.559551" y="370.466979" style="stroke: #000000; stroke-width: 0.8"/>
      </g>
     </g>
     <g id="text_1">
      <!-- 2003 -->
      <g transform="translate(87.494453 398.268072) rotate(-45) scale(0.1 -0.1)">
       <defs>
        <path id="Helvetica-32" d="M 200 0 
Q 231 578 439 1006 
Q 647 1434 1250 1784 
L 1850 2131 
Q 2253 2366 2416 2531 
Q 2672 2791 2672 3125 
Q 2672 3516 2437 3745 
Q 2203 3975 1813 3975 
Q 1234 3975 1013 3538 
Q 894 3303 881 2888 
L 309 2888 
Q 319 3472 525 3841 
Q 891 4491 1816 4491 
Q 2584 4491 2939 4075 
Q 3294 3659 3294 3150 
Q 3294 2613 2916 2231 
Q 2697 2009 2131 1694 
L 1703 1456 
Q 1397 1288 1222 1134 
Q 909 863 828 531 
L 3272 531 
L 3272 0 
L 200 0 
z
" transform="scale(0.015625)"/>
        <path id="Helvetica-30" d="M 1731 4475 
Q 2600 4475 2988 3759 
Q 3288 3206 3288 2244 
Q 3288 1331 3016 734 
Q 2622 -122 1728 -122 
Q 922 -122 528 578 
Q 200 1163 200 2147 
Q 200 2909 397 3456 
Q 766 4475 1731 4475 
z
M 1725 391 
Q 2163 391 2422 778 
Q 2681 1166 2681 2222 
Q 2681 2984 2493 3476 
Q 2306 3969 1766 3969 
Q 1269 3969 1039 3501 
Q 809 3034 809 2125 
Q 809 1441 956 1025 
Q 1181 391 1725 391 
z
" transform="scale(0.015625)"/>
        <path id="Helvetica-33" d="M 1663 -122 
Q 869 -122 511 314 
Q 153 750 153 1375 
L 741 1375 
Q 778 941 903 744 
Q 1122 391 1694 391 
Q 2138 391 2406 628 
Q 2675 866 2675 1241 
Q 2675 1703 2392 1887 
Q 2109 2072 1606 2072 
Q 1550 2072 1492 2070 
Q 1434 2069 1375 2066 
L 1375 2563 
Q 1463 2553 1522 2550 
Q 1581 2547 1650 2547 
Q 1966 2547 2169 2647 
Q 2525 2822 2525 3272 
Q 2525 3606 2287 3787 
Q 2050 3969 1734 3969 
Q 1172 3969 956 3594 
Q 838 3388 822 3006 
L 266 3006 
Q 266 3506 466 3856 
Q 809 4481 1675 4481 
Q 2359 4481 2734 4176 
Q 3109 3872 3109 3294 
Q 3109 2881 2888 2625 
Q 2750 2466 2531 2375 
Q 2884 2278 3082 2001 
Q 3281 1725 3281 1325 
Q 3281 684 2859 281 
Q 2438 -122 1663 -122 
z
" transform="scale(0.015625)"/>
       </defs>
       <use xlink:href="#Helvetica-32"/>
       <use xlink:href="#Helvetica-30" transform="translate(55.615234 0)"/>
       <use xlink:href="#Helvetica-30" transform="translate(111.230469 0)"/>
       <use xlink:href="#Helvetica-33" transform="translate(166.845703 0)"/>
      </g>
     </g>
    </g>
    <g id="xtick_2">
     <g id="line2d_3">
      <path d="M 122.193015 370.466979 
L 122.193015 32.579615 
" clip-path="url(#p9aff2e2d03)" style="fill: none; stroke: #b0b0b0; stroke-opacity: 0.2; stroke-width: 0.8; stroke-linecap: square"/>
     </g>
     <g id="line2d_4">
      <g>
       <use xlink:href="#m39bd2b479d" x="122.193015" y="370.466979" style="stroke: #000000; stroke-width: 0.8"/>
      </g>
     </g>
     <g id="text_2">
      <!-- 2004 -->
      <g transform="translate(116.127917 398.268072) rotate(-45) scale(0.1 -0.1)">
       <defs>
        <path id="Helvetica-34" d="M 2116 1584 
L 2116 3613 
L 681 1584 
L 2116 1584 
z
M 2125 0 
L 2125 1094 
L 163 1094 
L 163 1644 
L 2213 4488 
L 2688 4488 
L 2688 1584 
L 3347 1584 
L 3347 1094 
L 2688 1094 
L 2688 0 
L 2125 0 
z
" transform="scale(0.015625)"/>
       </defs>
       <use xlink:href="#Helvetica-32"/>
       <use xlink:href="#Helvetica-30" transform="translate(55.615234 0)"/>
       <use xlink:href="#Helvetica-30" transform="translate(111.230469 0)"/>
       <use xlink:href="#Helvetica-34" transform="translate(166.845703 0)"/>
      </g>
     </g>
    </g>
    <g id="xtick_3">
     <g id="line2d_5">
      <path d="M 150.82648 370.466979 
L 150.82648 32.579615 
" clip-path="url(#p9aff2e2d03)" style="fill: none; stroke: #b0b0b0; stroke-opacity: 0.2; stroke-width: 0.8; stroke-linecap: square"/>
     </g>
     <g id="line2d_6">
      <g>
       <use xlink:href="#m39bd2b479d" x="150.82648" y="370.466979" style="stroke: #000000; stroke-width: 0.8"/>
      </g>
     </g>
     <g id="text_3">
      <!-- 2005 -->
      <g transform="translate(144.761382 398.268072) rotate(-45) scale(0.1 -0.1)">
       <defs>
        <path id="Helvetica-35" d="M 791 1141 
Q 847 659 1238 475 
Q 1438 381 1700 381 
Q 2200 381 2440 700 
Q 2681 1019 2681 1406 
Q 2681 1875 2395 2131 
Q 2109 2388 1709 2388 
Q 1419 2388 1211 2275 
Q 1003 2163 856 1963 
L 369 1991 
L 709 4400 
L 3034 4400 
L 3034 3856 
L 1131 3856 
L 941 2613 
Q 1097 2731 1238 2791 
Q 1488 2894 1816 2894 
Q 2431 2894 2859 2497 
Q 3288 2100 3288 1491 
Q 3288 856 2895 371 
Q 2503 -113 1644 -113 
Q 1097 -113 676 195 
Q 256 503 206 1141 
L 791 1141 
z
" transform="scale(0.015625)"/>
       </defs>
       <use xlink:href="#Helvetica-32"/>
       <use xlink:href="#Helvetica-30" transform="translate(55.615234 0)"/>
       <use xlink:href="#Helvetica-30" transform="translate(111.230469 0)"/>
       <use xlink:href="#Helvetica-35" transform="translate(166.845703 0)"/>
      </g>
     </g>
    </g>
    <g id="xtick_4">
     <g id="line2d_7">
      <path d="M 179.459944 370.466979 
L 179.459944 32.579615 
" clip-path="url(#p9aff2e2d03)" style="fill: none; stroke: #b0b0b0; stroke-opacity: 0.2; stroke-width: 0.8; stroke-linecap: square"/>
     </g>
     <g id="line2d_8">
      <g>
       <use xlink:href="#m39bd2b479d" x="179.459944" y="370.466979" style="stroke: #000000; stroke-width: 0.8"/>
      </g>
     </g>
     <g id="text_4">
      <!-- 2006 -->
      <g transform="translate(173.394846 398.268072) rotate(-45) scale(0.1 -0.1)">
       <defs>
        <path id="Helvetica-36" d="M 1872 4494 
Q 2622 4494 2917 4105 
Q 3213 3716 3213 3303 
L 2656 3303 
Q 2606 3569 2497 3719 
Q 2294 4000 1881 4000 
Q 1409 4000 1131 3564 
Q 853 3128 822 2316 
Q 1016 2600 1309 2741 
Q 1578 2866 1909 2866 
Q 2472 2866 2890 2506 
Q 3309 2147 3309 1434 
Q 3309 825 2912 354 
Q 2516 -116 1781 -116 
Q 1153 -116 697 361 
Q 241 838 241 1966 
Q 241 2800 444 3381 
Q 834 4494 1872 4494 
z
M 1831 384 
Q 2275 384 2495 682 
Q 2716 981 2716 1388 
Q 2716 1731 2519 2042 
Q 2322 2353 1803 2353 
Q 1441 2353 1167 2112 
Q 894 1872 894 1388 
Q 894 963 1142 673 
Q 1391 384 1831 384 
z
" transform="scale(0.015625)"/>
       </defs>
       <use xlink:href="#Helvetica-32"/>
       <use xlink:href="#Helvetica-30" transform="translate(55.615234 0)"/>
       <use xlink:href="#Helvetica-30" transform="translate(111.230469 0)"/>
       <use xlink:href="#Helvetica-36" transform="translate(166.845703 0)"/>
      </g>
     </g>
    </g>
    <g id="xtick_5">
     <g id="line2d_9">
      <path d="M 208.093408 370.466979 
L 208.093408 32.579615 
" clip-path="url(#p9aff2e2d03)" style="fill: none; stroke: #b0b0b0; stroke-opacity: 0.2; stroke-width: 0.8; stroke-linecap: square"/>
     </g>
     <g id="line2d_10">
      <g>
       <use xlink:href="#m39bd2b479d" x="208.093408" y="370.466979" style="stroke: #000000; stroke-width: 0.8"/>
      </g>
     </g>
     <g id="text_5">
      <!-- 2007 -->
      <g transform="translate(202.02831 398.268072) rotate(-45) scale(0.1 -0.1)">
       <defs>
        <path id="Helvetica-37" d="M 3347 4400 
L 3347 3909 
Q 3131 3700 2773 3181 
Q 2416 2663 2141 2063 
Q 1869 1478 1728 997 
Q 1638 688 1494 0 
L 872 0 
Q 1084 1281 1809 2550 
Q 2238 3294 2709 3834 
L 234 3834 
L 234 4400 
L 3347 4400 
z
" transform="scale(0.015625)"/>
       </defs>
       <use xlink:href="#Helvetica-32"/>
       <use xlink:href="#Helvetica-30" transform="translate(55.615234 0)"/>
       <use xlink:href="#Helvetica-30" transform="translate(111.230469 0)"/>
       <use xlink:href="#Helvetica-37" transform="translate(166.845703 0)"/>
      </g>
     </g>
    </g>
    <g id="xtick_6">
     <g id="line2d_11">
      <path d="M 236.726873 370.466979 
L 236.726873 32.579615 
" clip-path="url(#p9aff2e2d03)" style="fill: none; stroke: #b0b0b0; stroke-opacity: 0.2; stroke-width: 0.8; stroke-linecap: square"/>
     </g>
     <g id="line2d_12">
      <g>
       <use xlink:href="#m39bd2b479d" x="236.726873" y="370.466979" style="stroke: #000000; stroke-width: 0.8"/>
      </g>
     </g>
     <g id="text_6">
      <!-- 2008 -->
      <g transform="translate(230.661775 398.268072) rotate(-45) scale(0.1 -0.1)">
       <defs>
        <path id="Helvetica-38" d="M 1741 2600 
Q 2113 2600 2322 2808 
Q 2531 3016 2531 3303 
Q 2531 3553 2331 3762 
Q 2131 3972 1722 3972 
Q 1316 3972 1134 3762 
Q 953 3553 953 3272 
Q 953 2956 1187 2778 
Q 1422 2600 1741 2600 
z
M 1775 384 
Q 2166 384 2423 595 
Q 2681 806 2681 1225 
Q 2681 1659 2415 1884 
Q 2150 2109 1734 2109 
Q 1331 2109 1076 1879 
Q 822 1650 822 1244 
Q 822 894 1055 639 
Q 1288 384 1775 384 
z
M 975 2384 
Q 741 2484 609 2619 
Q 363 2869 363 3269 
Q 363 3769 725 4128 
Q 1088 4488 1753 4488 
Q 2397 4488 2762 4148 
Q 3128 3809 3128 3356 
Q 3128 2938 2916 2678 
Q 2797 2531 2547 2391 
Q 2825 2263 2984 2097 
Q 3281 1784 3281 1284 
Q 3281 694 2884 283 
Q 2488 -128 1763 -128 
Q 1109 -128 657 226 
Q 206 581 206 1256 
Q 206 1653 400 1942 
Q 594 2231 975 2384 
z
" transform="scale(0.015625)"/>
       </defs>
       <use xlink:href="#Helvetica-32"/>
       <use xlink:href="#Helvetica-30" transform="translate(55.615234 0)"/>
       <use xlink:href="#Helvetica-30" transform="translate(111.230469 0)"/>
       <use xlink:href="#Helvetica-38" transform="translate(166.845703 0)"/>
      </g>
     </g>
    </g>
    <g id="xtick_7">
     <g id="line2d_13">
      <path d="M 265.360337 370.466979 
L 265.360337 32.579615 
" clip-path="url(#p9aff2e2d03)" style="fill: none; stroke: #b0b0b0; stroke-opacity: 0.2; stroke-width: 0.8; stroke-linecap: square"/>
     </g>
     <g id="line2d_14">
      <g>
       <use xlink:href="#m39bd2b479d" x="265.360337" y="370.466979" style="stroke: #000000; stroke-width: 0.8"/>
      </g>
     </g>
     <g id="text_7">
      <!-- 2009 -->
      <g transform="translate(259.295239 398.268072) rotate(-45) scale(0.1 -0.1)">
       <defs>
        <path id="Helvetica-39" d="M 850 1081 
Q 875 616 1209 438 
Q 1381 344 1597 344 
Q 2000 344 2284 680 
Q 2569 1016 2688 2044 
Q 2500 1747 2223 1626 
Q 1947 1506 1628 1506 
Q 981 1506 604 1909 
Q 228 2313 228 2947 
Q 228 3556 600 4018 
Q 972 4481 1697 4481 
Q 2675 4481 3047 3600 
Q 3253 3116 3253 2388 
Q 3253 1566 3006 931 
Q 2597 -125 1619 -125 
Q 963 -125 622 219 
Q 281 563 281 1081 
L 850 1081 
z
M 1703 2000 
Q 2038 2000 2314 2220 
Q 2591 2441 2591 2991 
Q 2591 3484 2342 3726 
Q 2094 3969 1709 3969 
Q 1297 3969 1055 3692 
Q 813 3416 813 2953 
Q 813 2516 1025 2258 
Q 1238 2000 1703 2000 
z
" transform="scale(0.015625)"/>
       </defs>
       <use xlink:href="#Helvetica-32"/>
       <use xlink:href="#Helvetica-30" transform="translate(55.615234 0)"/>
       <use xlink:href="#Helvetica-30" transform="translate(111.230469 0)"/>
       <use xlink:href="#Helvetica-39" transform="translate(166.845703 0)"/>
      </g>
     </g>
    </g>
    <g id="xtick_8">
     <g id="line2d_15">
      <path d="M 293.993802 370.466979 
L 293.993802 32.579615 
" clip-path="url(#p9aff2e2d03)" style="fill: none; stroke: #b0b0b0; stroke-opacity: 0.2; stroke-width: 0.8; stroke-linecap: square"/>
     </g>
     <g id="line2d_16">
      <g>
       <use xlink:href="#m39bd2b479d" x="293.993802" y="370.466979" style="stroke: #000000; stroke-width: 0.8"/>
      </g>
     </g>
     <g id="text_8">
      <!-- 2010 -->
      <g transform="translate(287.928704 398.268072) rotate(-45) scale(0.1 -0.1)">
       <defs>
        <path id="Helvetica-31" d="M 613 3169 
L 613 3600 
Q 1222 3659 1462 3798 
Q 1703 3938 1822 4456 
L 2266 4456 
L 2266 0 
L 1666 0 
L 1666 3169 
L 613 3169 
z
" transform="scale(0.015625)"/>
       </defs>
       <use xlink:href="#Helvetica-32"/>
       <use xlink:href="#Helvetica-30" transform="translate(55.615234 0)"/>
       <use xlink:href="#Helvetica-31" transform="translate(111.230469 0)"/>
       <use xlink:href="#Helvetica-30" transform="translate(166.845703 0)"/>
      </g>
     </g>
    </g>
    <g id="xtick_9">
     <g id="line2d_17">
      <path d="M 322.627266 370.466979 
L 322.627266 32.579615 
" clip-path="url(#p9aff2e2d03)" style="fill: none; stroke: #b0b0b0; stroke-opacity: 0.2; stroke-width: 0.8; stroke-linecap: square"/>
     </g>
     <g id="line2d_18">
      <g>
       <use xlink:href="#m39bd2b479d" x="322.627266" y="370.466979" style="stroke: #000000; stroke-width: 0.8"/>
      </g>
     </g>
     <g id="text_9">
      <!-- 2011 -->
      <g transform="translate(316.562168 398.268072) rotate(-45) scale(0.1 -0.1)">
       <use xlink:href="#Helvetica-32"/>
       <use xlink:href="#Helvetica-30" transform="translate(55.615234 0)"/>
       <use xlink:href="#Helvetica-31" transform="translate(111.230469 0)"/>
       <use xlink:href="#Helvetica-31" transform="translate(166.845703 0)"/>
      </g>
     </g>
    </g>
    <g id="xtick_10">
     <g id="line2d_19">
      <path d="M 351.26073 370.466979 
L 351.26073 32.579615 
" clip-path="url(#p9aff2e2d03)" style="fill: none; stroke: #b0b0b0; stroke-opacity: 0.2; stroke-width: 0.8; stroke-linecap: square"/>
     </g>
     <g id="line2d_20">
      <g>
       <use xlink:href="#m39bd2b479d" x="351.26073" y="370.466979" style="stroke: #000000; stroke-width: 0.8"/>
      </g>
     </g>
     <g id="text_10">
      <!-- 2012 -->
      <g transform="translate(345.195632 398.268072) rotate(-45) scale(0.1 -0.1)">
       <use xlink:href="#Helvetica-32"/>
       <use xlink:href="#Helvetica-30" transform="translate(55.615234 0)"/>
       <use xlink:href="#Helvetica-31" transform="translate(111.230469 0)"/>
       <use xlink:href="#Helvetica-32" transform="translate(166.845703 0)"/>
      </g>
     </g>
    </g>
    <g id="xtick_11">
     <g id="line2d_21">
      <path d="M 379.894195 370.466979 
L 379.894195 32.579615 
" clip-path="url(#p9aff2e2d03)" style="fill: none; stroke: #b0b0b0; stroke-opacity: 0.2; stroke-width: 0.8; stroke-linecap: square"/>
     </g>
     <g id="line2d_22">
      <g>
       <use xlink:href="#m39bd2b479d" x="379.894195" y="370.466979" style="stroke: #000000; stroke-width: 0.8"/>
      </g>
     </g>
     <g id="text_11">
      <!-- 2013 -->
      <g transform="translate(373.829097 398.268072) rotate(-45) scale(0.1 -0.1)">
       <use xlink:href="#Helvetica-32"/>
       <use xlink:href="#Helvetica-30" transform="translate(55.615234 0)"/>
       <use xlink:href="#Helvetica-31" transform="translate(111.230469 0)"/>
       <use xlink:href="#Helvetica-33" transform="translate(166.845703 0)"/>
      </g>
     </g>
    </g>
    <g id="xtick_12">
     <g id="line2d_23">
      <path d="M 408.527659 370.466979 
L 408.527659 32.579615 
" clip-path="url(#p9aff2e2d03)" style="fill: none; stroke: #b0b0b0; stroke-opacity: 0.2; stroke-width: 0.8; stroke-linecap: square"/>
     </g>
     <g id="line2d_24">
      <g>
       <use xlink:href="#m39bd2b479d" x="408.527659" y="370.466979" style="stroke: #000000; stroke-width: 0.8"/>
      </g>
     </g>
     <g id="text_12">
      <!-- 2014 -->
      <g transform="translate(402.462561 398.268072) rotate(-45) scale(0.1 -0.1)">
       <use xlink:href="#Helvetica-32"/>
       <use xlink:href="#Helvetica-30" transform="translate(55.615234 0)"/>
       <use xlink:href="#Helvetica-31" transform="translate(111.230469 0)"/>
       <use xlink:href="#Helvetica-34" transform="translate(166.845703 0)"/>
      </g>
     </g>
    </g>
    <g id="xtick_13">
     <g id="line2d_25">
      <path d="M 437.161124 370.466979 
L 437.161124 32.579615 
" clip-path="url(#p9aff2e2d03)" style="fill: none; stroke: #b0b0b0; stroke-opacity: 0.2; stroke-width: 0.8; stroke-linecap: square"/>
     </g>
     <g id="line2d_26">
      <g>
       <use xlink:href="#m39bd2b479d" x="437.161124" y="370.466979" style="stroke: #000000; stroke-width: 0.8"/>
      </g>
     </g>
     <g id="text_13">
      <!-- 2015 -->
      <g transform="translate(431.096026 398.268072) rotate(-45) scale(0.1 -0.1)">
       <use xlink:href="#Helvetica-32"/>
       <use xlink:href="#Helvetica-30" transform="translate(55.615234 0)"/>
       <use xlink:href="#Helvetica-31" transform="translate(111.230469 0)"/>
       <use xlink:href="#Helvetica-35" transform="translate(166.845703 0)"/>
      </g>
     </g>
    </g>
    <g id="xtick_14">
     <g id="line2d_27">
      <path d="M 465.794588 370.466979 
L 465.794588 32.579615 
" clip-path="url(#p9aff2e2d03)" style="fill: none; stroke: #b0b0b0; stroke-opacity: 0.2; stroke-width: 0.8; stroke-linecap: square"/>
     </g>
     <g id="line2d_28">
      <g>
       <use xlink:href="#m39bd2b479d" x="465.794588" y="370.466979" style="stroke: #000000; stroke-width: 0.8"/>
      </g>
     </g>
     <g id="text_14">
      <!-- 2016 -->
      <g transform="translate(459.72949 398.268072) rotate(-45) scale(0.1 -0.1)">
       <use xlink:href="#Helvetica-32"/>
       <use xlink:href="#Helvetica-30" transform="translate(55.615234 0)"/>
       <use xlink:href="#Helvetica-31" transform="translate(111.230469 0)"/>
       <use xlink:href="#Helvetica-36" transform="translate(166.845703 0)"/>
      </g>
     </g>
    </g>
    <g id="xtick_15">
     <g id="line2d_29">
      <path d="M 494.428052 370.466979 
L 494.428052 32.579615 
" clip-path="url(#p9aff2e2d03)" style="fill: none; stroke: #b0b0b0; stroke-opacity: 0.2; stroke-width: 0.8; stroke-linecap: square"/>
     </g>
     <g id="line2d_30">
      <g>
       <use xlink:href="#m39bd2b479d" x="494.428052" y="370.466979" style="stroke: #000000; stroke-width: 0.8"/>
      </g>
     </g>
     <g id="text_15">
      <!-- 2017 -->
      <g transform="translate(488.362954 398.268072) rotate(-45) scale(0.1 -0.1)">
       <use xlink:href="#Helvetica-32"/>
       <use xlink:href="#Helvetica-30" transform="translate(55.615234 0)"/>
       <use xlink:href="#Helvetica-31" transform="translate(111.230469 0)"/>
       <use xlink:href="#Helvetica-37" transform="translate(166.845703 0)"/>
      </g>
     </g>
    </g>
    <g id="xtick_16">
     <g id="line2d_31">
      <path d="M 523.061517 370.466979 
L 523.061517 32.579615 
" clip-path="url(#p9aff2e2d03)" style="fill: none; stroke: #b0b0b0; stroke-opacity: 0.2; stroke-width: 0.8; stroke-linecap: square"/>
     </g>
     <g id="line2d_32">
      <g>
       <use xlink:href="#m39bd2b479d" x="523.061517" y="370.466979" style="stroke: #000000; stroke-width: 0.8"/>
      </g>
     </g>
     <g id="text_16">
      <!-- 2018 -->
      <g transform="translate(516.996419 398.268072) rotate(-45) scale(0.1 -0.1)">
       <use xlink:href="#Helvetica-32"/>
       <use xlink:href="#Helvetica-30" transform="translate(55.615234 0)"/>
       <use xlink:href="#Helvetica-31" transform="translate(111.230469 0)"/>
       <use xlink:href="#Helvetica-38" transform="translate(166.845703 0)"/>
      </g>
     </g>
    </g>
    <g id="xtick_17">
     <g id="line2d_33">
      <path d="M 551.694981 370.466979 
L 551.694981 32.579615 
" clip-path="url(#p9aff2e2d03)" style="fill: none; stroke: #b0b0b0; stroke-opacity: 0.2; stroke-width: 0.8; stroke-linecap: square"/>
     </g>
     <g id="line2d_34">
      <g>
       <use xlink:href="#m39bd2b479d" x="551.694981" y="370.466979" style="stroke: #000000; stroke-width: 0.8"/>
      </g>
     </g>
     <g id="text_17">
      <!-- 2019 -->
      <g transform="translate(545.629883 398.268072) rotate(-45) scale(0.1 -0.1)">
       <use xlink:href="#Helvetica-32"/>
       <use xlink:href="#Helvetica-30" transform="translate(55.615234 0)"/>
       <use xlink:href="#Helvetica-31" transform="translate(111.230469 0)"/>
       <use xlink:href="#Helvetica-39" transform="translate(166.845703 0)"/>
      </g>
     </g>
    </g>
    <g id="xtick_18">
     <g id="line2d_35">
      <path d="M 580.328446 370.466979 
L 580.328446 32.579615 
" clip-path="url(#p9aff2e2d03)" style="fill: none; stroke: #b0b0b0; stroke-opacity: 0.2; stroke-width: 0.8; stroke-linecap: square"/>
     </g>
     <g id="line2d_36">
      <g>
       <use xlink:href="#m39bd2b479d" x="580.328446" y="370.466979" style="stroke: #000000; stroke-width: 0.8"/>
      </g>
     </g>
     <g id="text_18">
      <!-- 2020 -->
      <g transform="translate(574.263348 398.268072) rotate(-45) scale(0.1 -0.1)">
       <use xlink:href="#Helvetica-32"/>
       <use xlink:href="#Helvetica-30" transform="translate(55.615234 0)"/>
       <use xlink:href="#Helvetica-32" transform="translate(111.230469 0)"/>
       <use xlink:href="#Helvetica-30" transform="translate(166.845703 0)"/>
      </g>
     </g>
    </g>
    <g id="xtick_19">
     <g id="line2d_37">
      <path d="M 608.96191 370.466979 
L 608.96191 32.579615 
" clip-path="url(#p9aff2e2d03)" style="fill: none; stroke: #b0b0b0; stroke-opacity: 0.2; stroke-width: 0.8; stroke-linecap: square"/>
     </g>
     <g id="line2d_38">
      <g>
       <use xlink:href="#m39bd2b479d" x="608.96191" y="370.466979" style="stroke: #000000; stroke-width: 0.8"/>
      </g>
     </g>
     <g id="text_19">
      <!-- 2021 -->
      <g transform="translate(602.896812 398.268072) rotate(-45) scale(0.1 -0.1)">
       <use xlink:href="#Helvetica-32"/>
       <use xlink:href="#Helvetica-30" transform="translate(55.615234 0)"/>
       <use xlink:href="#Helvetica-32" transform="translate(111.230469 0)"/>
       <use xlink:href="#Helvetica-31" transform="translate(166.845703 0)"/>
      </g>
     </g>
    </g>
    <g id="xtick_20">
     <g id="line2d_39">
      <path d="M 637.595374 370.466979 
L 637.595374 32.579615 
" clip-path="url(#p9aff2e2d03)" style="fill: none; stroke: #b0b0b0; stroke-opacity: 0.2; stroke-width: 0.8; stroke-linecap: square"/>
     </g>
     <g id="line2d_40">
      <g>
       <use xlink:href="#m39bd2b479d" x="637.595374" y="370.466979" style="stroke: #000000; stroke-width: 0.8"/>
      </g>
     </g>
     <g id="text_20">
      <!-- 2022 -->
      <g transform="translate(631.530276 398.268072) rotate(-45) scale(0.1 -0.1)">
       <use xlink:href="#Helvetica-32"/>
       <use xlink:href="#Helvetica-30" transform="translate(55.615234 0)"/>
       <use xlink:href="#Helvetica-32" transform="translate(111.230469 0)"/>
       <use xlink:href="#Helvetica-32" transform="translate(166.845703 0)"/>
      </g>
     </g>
    </g>
    <g id="xtick_21">
     <g id="line2d_41">
      <path d="M 666.228839 370.466979 
L 666.228839 32.579615 
" clip-path="url(#p9aff2e2d03)" style="fill: none; stroke: #b0b0b0; stroke-opacity: 0.2; stroke-width: 0.8; stroke-linecap: square"/>
     </g>
     <g id="line2d_42">
      <g>
       <use xlink:href="#m39bd2b479d" x="666.228839" y="370.466979" style="stroke: #000000; stroke-width: 0.8"/>
      </g>
     </g>
     <g id="text_21">
      <!-- 2023 -->
      <g transform="translate(660.163741 398.268072) rotate(-45) scale(0.1 -0.1)">
       <use xlink:href="#Helvetica-32"/>
       <use xlink:href="#Helvetica-30" transform="translate(55.615234 0)"/>
       <use xlink:href="#Helvetica-32" transform="translate(111.230469 0)"/>
       <use xlink:href="#Helvetica-33" transform="translate(166.845703 0)"/>
      </g>
     </g>
    </g>
    <g id="xtick_22">
     <g id="line2d_43">
      <path d="M 694.862303 370.466979 
L 694.862303 32.579615 
" clip-path="url(#p9aff2e2d03)" style="fill: none; stroke: #b0b0b0; stroke-opacity: 0.2; stroke-width: 0.8; stroke-linecap: square"/>
     </g>
     <g id="line2d_44">
      <g>
       <use xlink:href="#m39bd2b479d" x="694.862303" y="370.466979" style="stroke: #000000; stroke-width: 0.8"/>
      </g>
     </g>
     <g id="text_22">
      <!-- 2024 -->
      <g transform="translate(688.797205 398.268072) rotate(-45) scale(0.1 -0.1)">
       <use xlink:href="#Helvetica-32"/>
       <use xlink:href="#Helvetica-30" transform="translate(55.615234 0)"/>
       <use xlink:href="#Helvetica-32" transform="translate(111.230469 0)"/>
       <use xlink:href="#Helvetica-34" transform="translate(166.845703 0)"/>
      </g>
     </g>
    </g>
    <g id="xtick_23">
     <g id="line2d_45">
      <path d="M 723.495768 370.466979 
L 723.495768 32.579615 
" clip-path="url(#p9aff2e2d03)" style="fill: none; stroke: #b0b0b0; stroke-opacity: 0.2; stroke-width: 0.8; stroke-linecap: square"/>
     </g>
     <g id="line2d_46">
      <g>
       <use xlink:href="#m39bd2b479d" x="723.495768" y="370.466979" style="stroke: #000000; stroke-width: 0.8"/>
      </g>
     </g>
     <g id="text_23">
      <!-- 2025 -->
      <g transform="translate(717.43067 398.268072) rotate(-45) scale(0.1 -0.1)">
       <use xlink:href="#Helvetica-32"/>
       <use xlink:href="#Helvetica-30" transform="translate(55.615234 0)"/>
       <use xlink:href="#Helvetica-32" transform="translate(111.230469 0)"/>
       <use xlink:href="#Helvetica-35" transform="translate(166.845703 0)"/>
      </g>
     </g>
    </g>
    <g id="text_24">
     <!-- Year -->
     <g transform="translate(397.966722 426.915385) scale(0.1 -0.1)">
      <defs>
       <path id="Helvetica-59" d="M 131 4591 
L 856 4591 
L 2175 2384 
L 3494 4591 
L 4222 4591 
L 2488 1850 
L 2488 0 
L 1866 0 
L 1866 1850 
L 131 4591 
z
M 2184 4591 
L 2184 4591 
z
" transform="scale(0.015625)"/>
       <path id="Helvetica-65" d="M 1806 3422 
Q 2163 3422 2497 3255 
Q 2831 3088 3006 2822 
Q 3175 2569 3231 2231 
Q 3281 2000 3281 1494 
L 828 1494 
Q 844 984 1069 676 
Q 1294 369 1766 369 
Q 2206 369 2469 659 
Q 2619 828 2681 1050 
L 3234 1050 
Q 3213 866 3089 639 
Q 2966 413 2813 269 
Q 2556 19 2178 -69 
Q 1975 -119 1719 -119 
Q 1094 -119 659 336 
Q 225 791 225 1609 
Q 225 2416 662 2919 
Q 1100 3422 1806 3422 
z
M 2703 1941 
Q 2669 2306 2544 2525 
Q 2313 2931 1772 2931 
Q 1384 2931 1121 2651 
Q 859 2372 844 1941 
L 2703 1941 
z
M 1753 3428 
L 1753 3428 
z
" transform="scale(0.015625)"/>
       <path id="Helvetica-61" d="M 844 891 
Q 844 647 1022 506 
Q 1200 366 1444 366 
Q 1741 366 2019 503 
Q 2488 731 2488 1250 
L 2488 1703 
Q 2384 1638 2221 1594 
Q 2059 1550 1903 1531 
L 1563 1488 
Q 1256 1447 1103 1359 
Q 844 1213 844 891 
z
M 2206 2028 
Q 2400 2053 2466 2191 
Q 2503 2266 2503 2406 
Q 2503 2694 2298 2823 
Q 2094 2953 1713 2953 
Q 1272 2953 1088 2716 
Q 984 2584 953 2325 
L 428 2325 
Q 444 2944 830 3186 
Q 1216 3428 1725 3428 
Q 2316 3428 2684 3203 
Q 3050 2978 3050 2503 
L 3050 575 
Q 3050 488 3086 434 
Q 3122 381 3238 381 
Q 3275 381 3322 386 
Q 3369 391 3422 400 
L 3422 -16 
Q 3291 -53 3222 -62 
Q 3153 -72 3034 -72 
Q 2744 -72 2613 134 
Q 2544 244 2516 444 
Q 2344 219 2022 53 
Q 1700 -113 1313 -113 
Q 847 -113 551 170 
Q 256 453 256 878 
Q 256 1344 547 1600 
Q 838 1856 1309 1916 
L 2206 2028 
z
M 1741 3428 
L 1741 3428 
z
" transform="scale(0.015625)"/>
       <path id="Helvetica-72" d="M 428 3347 
L 963 3347 
L 963 2769 
Q 1028 2938 1284 3180 
Q 1541 3422 1875 3422 
Q 1891 3422 1928 3419 
Q 1966 3416 2056 3406 
L 2056 2813 
Q 2006 2822 1964 2825 
Q 1922 2828 1872 2828 
Q 1447 2828 1219 2554 
Q 991 2281 991 1925 
L 991 0 
L 428 0 
L 428 3347 
z
" transform="scale(0.015625)"/>
      </defs>
      <use xlink:href="#Helvetica-59"/>
      <use xlink:href="#Helvetica-65" transform="translate(66.699219 0)"/>
      <use xlink:href="#Helvetica-61" transform="translate(122.314453 0)"/>
      <use xlink:href="#Helvetica-72" transform="translate(177.929688 0)"/>
     </g>
    </g>
   </g>
   <g id="matplotlib.axis_2">
    <g id="ytick_1">
     <g id="line2d_47">
      <path d="M 62.06274 357.10461 
L 754.992578 357.10461 
" clip-path="url(#p9aff2e2d03)" style="fill: none; stroke: #b0b0b0; stroke-opacity: 0.2; stroke-width: 0.8; stroke-linecap: square"/>
     </g>
     <g id="line2d_48">
      <defs>
       <path id="m5a6a232cd4" d="M 0 0 
L -3.5 0 
" style="stroke: #000000; stroke-width: 0.8"/>
      </defs>
      <g>
       <use xlink:href="#m5a6a232cd4" x="62.06274" y="357.10461" style="stroke: #000000; stroke-width: 0.8"/>
      </g>
     </g>
     <g id="text_25">
      <!-- 0 -->
      <g transform="translate(49.501803 360.691329) scale(0.1 -0.1)">
       <use xlink:href="#Helvetica-30"/>
      </g>
     </g>
    </g>
    <g id="ytick_2">
     <g id="line2d_49">
      <path d="M 62.06274 304.574412 
L 754.992578 304.574412 
" clip-path="url(#p9aff2e2d03)" style="fill: none; stroke: #b0b0b0; stroke-opacity: 0.2; stroke-width: 0.8; stroke-linecap: square"/>
     </g>
     <g id="line2d_50">
      <g>
       <use xlink:href="#m5a6a232cd4" x="62.06274" y="304.574412" style="stroke: #000000; stroke-width: 0.8"/>
      </g>
     </g>
     <g id="text_26">
      <!-- 2000 -->
      <g transform="translate(32.81899 308.161131) scale(0.1 -0.1)">
       <use xlink:href="#Helvetica-32"/>
       <use xlink:href="#Helvetica-30" transform="translate(55.615234 0)"/>
       <use xlink:href="#Helvetica-30" transform="translate(111.230469 0)"/>
       <use xlink:href="#Helvetica-30" transform="translate(166.845703 0)"/>
      </g>
     </g>
    </g>
    <g id="ytick_3">
     <g id="line2d_51">
      <path d="M 62.06274 252.044215 
L 754.992578 252.044215 
" clip-path="url(#p9aff2e2d03)" style="fill: none; stroke: #b0b0b0; stroke-opacity: 0.2; stroke-width: 0.8; stroke-linecap: square"/>
     </g>
     <g id="line2d_52">
      <g>
       <use xlink:href="#m5a6a232cd4" x="62.06274" y="252.044215" style="stroke: #000000; stroke-width: 0.8"/>
      </g>
     </g>
     <g id="text_27">
      <!-- 4000 -->
      <g transform="translate(32.81899 255.630933) scale(0.1 -0.1)">
       <use xlink:href="#Helvetica-34"/>
       <use xlink:href="#Helvetica-30" transform="translate(55.615234 0)"/>
       <use xlink:href="#Helvetica-30" transform="translate(111.230469 0)"/>
       <use xlink:href="#Helvetica-30" transform="translate(166.845703 0)"/>
      </g>
     </g>
    </g>
    <g id="ytick_4">
     <g id="line2d_53">
      <path d="M 62.06274 199.514017 
L 754.992578 199.514017 
" clip-path="url(#p9aff2e2d03)" style="fill: none; stroke: #b0b0b0; stroke-opacity: 0.2; stroke-width: 0.8; stroke-linecap: square"/>
     </g>
     <g id="line2d_54">
      <g>
       <use xlink:href="#m5a6a232cd4" x="62.06274" y="199.514017" style="stroke: #000000; stroke-width: 0.8"/>
      </g>
     </g>
     <g id="text_28">
      <!-- 6000 -->
      <g transform="translate(32.81899 203.100736) scale(0.1 -0.1)">
       <use xlink:href="#Helvetica-36"/>
       <use xlink:href="#Helvetica-30" transform="translate(55.615234 0)"/>
       <use xlink:href="#Helvetica-30" transform="translate(111.230469 0)"/>
       <use xlink:href="#Helvetica-30" transform="translate(166.845703 0)"/>
      </g>
     </g>
    </g>
    <g id="ytick_5">
     <g id="line2d_55">
      <path d="M 62.06274 146.983819 
L 754.992578 146.983819 
" clip-path="url(#p9aff2e2d03)" style="fill: none; stroke: #b0b0b0; stroke-opacity: 0.2; stroke-width: 0.8; stroke-linecap: square"/>
     </g>
     <g id="line2d_56">
      <g>
       <use xlink:href="#m5a6a232cd4" x="62.06274" y="146.983819" style="stroke: #000000; stroke-width: 0.8"/>
      </g>
     </g>
     <g id="text_29">
      <!-- 8000 -->
      <g transform="translate(32.81899 150.570538) scale(0.1 -0.1)">
       <use xlink:href="#Helvetica-38"/>
       <use xlink:href="#Helvetica-30" transform="translate(55.615234 0)"/>
       <use xlink:href="#Helvetica-30" transform="translate(111.230469 0)"/>
       <use xlink:href="#Helvetica-30" transform="translate(166.845703 0)"/>
      </g>
     </g>
    </g>
    <g id="ytick_6">
     <g id="line2d_57">
      <path d="M 62.06274 94.453622 
L 754.992578 94.453622 
" clip-path="url(#p9aff2e2d03)" style="fill: none; stroke: #b0b0b0; stroke-opacity: 0.2; stroke-width: 0.8; stroke-linecap: square"/>
     </g>
     <g id="line2d_58">
      <g>
       <use xlink:href="#m5a6a232cd4" x="62.06274" y="94.453622" style="stroke: #000000; stroke-width: 0.8"/>
      </g>
     </g>
     <g id="text_30">
      <!-- 10000 -->
      <g transform="translate(27.258053 98.04034) scale(0.1 -0.1)">
       <use xlink:href="#Helvetica-31"/>
       <use xlink:href="#Helvetica-30" transform="translate(55.615234 0)"/>
       <use xlink:href="#Helvetica-30" transform="translate(111.230469 0)"/>
       <use xlink:href="#Helvetica-30" transform="translate(166.845703 0)"/>
       <use xlink:href="#Helvetica-30" transform="translate(222.460938 0)"/>
      </g>
     </g>
    </g>
    <g id="ytick_7">
     <g id="line2d_59">
      <path d="M 62.06274 41.923424 
L 754.992578 41.923424 
" clip-path="url(#p9aff2e2d03)" style="fill: none; stroke: #b0b0b0; stroke-opacity: 0.2; stroke-width: 0.8; stroke-linecap: square"/>
     </g>
     <g id="line2d_60">
      <g>
       <use xlink:href="#m5a6a232cd4" x="62.06274" y="41.923424" style="stroke: #000000; stroke-width: 0.8"/>
      </g>
     </g>
     <g id="text_31">
      <!-- 12000 -->
      <g transform="translate(27.258053 45.510143) scale(0.1 -0.1)">
       <use xlink:href="#Helvetica-31"/>
       <use xlink:href="#Helvetica-32" transform="translate(55.615234 0)"/>
       <use xlink:href="#Helvetica-30" transform="translate(111.230469 0)"/>
       <use xlink:href="#Helvetica-30" transform="translate(166.845703 0)"/>
       <use xlink:href="#Helvetica-30" transform="translate(222.460938 0)"/>
      </g>
     </g>
    </g>
    <g id="text_32">
     <!-- Number of Incidents -->
     <g transform="translate(10.173678 246.263922) rotate(-90) scale(0.1 -0.1)">
      <defs>
       <path id="Helvetica-4e" d="M 488 4591 
L 1222 4591 
L 3541 872 
L 3541 4591 
L 4131 4591 
L 4131 0 
L 3434 0 
L 1081 3716 
L 1081 0 
L 488 0 
L 488 4591 
z
M 2269 4591 
L 2269 4591 
z
" transform="scale(0.015625)"/>
       <path id="Helvetica-75" d="M 975 3347 
L 975 1125 
Q 975 869 1056 706 
Q 1206 406 1616 406 
Q 2203 406 2416 931 
Q 2531 1213 2531 1703 
L 2531 3347 
L 3094 3347 
L 3094 0 
L 2563 0 
L 2569 494 
Q 2459 303 2297 172 
Q 1975 -91 1516 -91 
Q 800 -91 541 388 
Q 400 644 400 1072 
L 400 3347 
L 975 3347 
z
M 1747 3428 
L 1747 3428 
z
" transform="scale(0.015625)"/>
       <path id="Helvetica-6d" d="M 413 3347 
L 969 3347 
L 969 2872 
Q 1169 3119 1331 3231 
Q 1609 3422 1963 3422 
Q 2363 3422 2606 3225 
Q 2744 3113 2856 2894 
Q 3044 3163 3297 3292 
Q 3550 3422 3866 3422 
Q 4541 3422 4784 2934 
Q 4916 2672 4916 2228 
L 4916 0 
L 4331 0 
L 4331 2325 
Q 4331 2659 4164 2784 
Q 3997 2909 3756 2909 
Q 3425 2909 3186 2687 
Q 2947 2466 2947 1947 
L 2947 0 
L 2375 0 
L 2375 2184 
Q 2375 2525 2294 2681 
Q 2166 2916 1816 2916 
Q 1497 2916 1236 2669 
Q 975 2422 975 1775 
L 975 0 
L 413 0 
L 413 3347 
z
" transform="scale(0.015625)"/>
       <path id="Helvetica-62" d="M 369 4606 
L 916 4606 
L 916 2941 
Q 1100 3181 1356 3307 
Q 1613 3434 1913 3434 
Q 2538 3434 2927 3004 
Q 3316 2575 3316 1738 
Q 3316 944 2931 419 
Q 2547 -106 1866 -106 
Q 1484 -106 1222 78 
Q 1066 188 888 428 
L 888 0 
L 369 0 
L 369 4606 
z
M 1831 391 
Q 2288 391 2514 753 
Q 2741 1116 2741 1709 
Q 2741 2238 2514 2584 
Q 2288 2931 1847 2931 
Q 1463 2931 1173 2647 
Q 884 2363 884 1709 
Q 884 1238 1003 944 
Q 1225 391 1831 391 
z
" transform="scale(0.015625)"/>
       <path id="Helvetica-20" transform="scale(0.015625)"/>
       <path id="Helvetica-6f" d="M 1741 363 
Q 2300 363 2508 786 
Q 2716 1209 2716 1728 
Q 2716 2197 2566 2491 
Q 2328 2953 1747 2953 
Q 1231 2953 997 2559 
Q 763 2166 763 1609 
Q 763 1075 997 719 
Q 1231 363 1741 363 
z
M 1763 3444 
Q 2409 3444 2856 3012 
Q 3303 2581 3303 1744 
Q 3303 934 2909 406 
Q 2516 -122 1688 -122 
Q 997 -122 590 345 
Q 184 813 184 1600 
Q 184 2444 612 2944 
Q 1041 3444 1763 3444 
z
M 1744 3428 
L 1744 3428 
z
" transform="scale(0.015625)"/>
       <path id="Helvetica-66" d="M 553 3856 
Q 566 4206 675 4369 
Q 872 4656 1434 4656 
Q 1488 4656 1544 4653 
Q 1600 4650 1672 4644 
L 1672 4131 
Q 1584 4138 1545 4139 
Q 1506 4141 1472 4141 
Q 1216 4141 1166 4008 
Q 1116 3875 1116 3331 
L 1672 3331 
L 1672 2888 
L 1109 2888 
L 1109 0 
L 553 0 
L 553 2888 
L 88 2888 
L 88 3331 
L 553 3331 
L 553 3856 
z
" transform="scale(0.015625)"/>
       <path id="Helvetica-49" d="M 628 4591 
L 1256 4591 
L 1256 0 
L 628 0 
L 628 4591 
z
" transform="scale(0.015625)"/>
       <path id="Helvetica-6e" d="M 413 3347 
L 947 3347 
L 947 2872 
Q 1184 3166 1450 3294 
Q 1716 3422 2041 3422 
Q 2753 3422 3003 2925 
Q 3141 2653 3141 2147 
L 3141 0 
L 2569 0 
L 2569 2109 
Q 2569 2416 2478 2603 
Q 2328 2916 1934 2916 
Q 1734 2916 1606 2875 
Q 1375 2806 1200 2600 
Q 1059 2434 1017 2257 
Q 975 2081 975 1753 
L 975 0 
L 413 0 
L 413 3347 
z
M 1734 3428 
L 1734 3428 
z
" transform="scale(0.015625)"/>
       <path id="Helvetica-63" d="M 1703 3444 
Q 2269 3444 2623 3169 
Q 2978 2894 3050 2222 
L 2503 2222 
Q 2453 2531 2275 2736 
Q 2097 2941 1703 2941 
Q 1166 2941 934 2416 
Q 784 2075 784 1575 
Q 784 1072 996 728 
Q 1209 384 1666 384 
Q 2016 384 2220 598 
Q 2425 813 2503 1184 
L 3050 1184 
Q 2956 519 2581 211 
Q 2206 -97 1622 -97 
Q 966 -97 575 383 
Q 184 863 184 1581 
Q 184 2463 612 2953 
Q 1041 3444 1703 3444 
z
M 1616 3428 
L 1616 3428 
z
" transform="scale(0.015625)"/>
       <path id="Helvetica-69" d="M 413 3331 
L 984 3331 
L 984 0 
L 413 0 
L 413 3331 
z
M 413 4591 
L 984 4591 
L 984 3953 
L 413 3953 
L 413 4591 
z
" transform="scale(0.015625)"/>
       <path id="Helvetica-64" d="M 769 1634 
Q 769 1097 997 734 
Q 1225 372 1728 372 
Q 2119 372 2370 708 
Q 2622 1044 2622 1672 
Q 2622 2306 2362 2611 
Q 2103 2916 1722 2916 
Q 1297 2916 1033 2591 
Q 769 2266 769 1634 
z
M 1616 3406 
Q 2000 3406 2259 3244 
Q 2409 3150 2600 2916 
L 2600 4606 
L 3141 4606 
L 3141 0 
L 2634 0 
L 2634 466 
Q 2438 156 2169 18 
Q 1900 -119 1553 -119 
Q 994 -119 584 351 
Q 175 822 175 1603 
Q 175 2334 548 2870 
Q 922 3406 1616 3406 
z
" transform="scale(0.015625)"/>
       <path id="Helvetica-74" d="M 525 4281 
L 1094 4281 
L 1094 3347 
L 1628 3347 
L 1628 2888 
L 1094 2888 
L 1094 703 
Q 1094 528 1213 469 
Q 1278 434 1431 434 
Q 1472 434 1519 436 
Q 1566 438 1628 444 
L 1628 0 
Q 1531 -28 1426 -40 
Q 1322 -53 1200 -53 
Q 806 -53 665 148 
Q 525 350 525 672 
L 525 2888 
L 72 2888 
L 72 3347 
L 525 3347 
L 525 4281 
z
" transform="scale(0.015625)"/>
       <path id="Helvetica-73" d="M 747 1050 
Q 772 769 888 619 
Q 1100 347 1625 347 
Q 1938 347 2175 483 
Q 2413 619 2413 903 
Q 2413 1119 2222 1231 
Q 2100 1300 1741 1391 
L 1294 1503 
Q 866 1609 663 1741 
Q 300 1969 300 2372 
Q 300 2847 642 3140 
Q 984 3434 1563 3434 
Q 2319 3434 2653 2991 
Q 2863 2709 2856 2384 
L 2325 2384 
Q 2309 2575 2191 2731 
Q 1997 2953 1519 2953 
Q 1200 2953 1036 2831 
Q 872 2709 872 2509 
Q 872 2291 1088 2159 
Q 1213 2081 1456 2022 
L 1828 1931 
Q 2434 1784 2641 1647 
Q 2969 1431 2969 969 
Q 2969 522 2630 197 
Q 2291 -128 1597 -128 
Q 850 -128 539 211 
Q 228 550 206 1050 
L 747 1050 
z
M 1578 3428 
L 1578 3428 
z
" transform="scale(0.015625)"/>
      </defs>
      <use xlink:href="#Helvetica-4e"/>
      <use xlink:href="#Helvetica-75" transform="translate(72.216797 0)"/>
      <use xlink:href="#Helvetica-6d" transform="translate(127.832031 0)"/>
      <use xlink:href="#Helvetica-62" transform="translate(211.132812 0)"/>
      <use xlink:href="#Helvetica-65" transform="translate(266.748047 0)"/>
      <use xlink:href="#Helvetica-72" transform="translate(322.363281 0)"/>
      <use xlink:href="#Helvetica-20" transform="translate(355.664062 0)"/>
      <use xlink:href="#Helvetica-6f" transform="translate(383.447266 0)"/>
      <use xlink:href="#Helvetica-66" transform="translate(439.0625 0)"/>
      <use xlink:href="#Helvetica-20" transform="translate(466.845703 0)"/>
      <use xlink:href="#Helvetica-49" transform="translate(494.628906 0)"/>
      <use xlink:href="#Helvetica-6e" transform="translate(522.412109 0)"/>
      <use xlink:href="#Helvetica-63" transform="translate(578.027344 0)"/>
      <use xlink:href="#Helvetica-69" transform="translate(628.027344 0)"/>
      <use xlink:href="#Helvetica-64" transform="translate(650.244141 0)"/>
      <use xlink:href="#Helvetica-65" transform="translate(705.859375 0)"/>
      <use xlink:href="#Helvetica-6e" transform="translate(761.474609 0)"/>
      <use xlink:href="#Helvetica-74" transform="translate(817.089844 0)"/>
      <use xlink:href="#Helvetica-73" transform="translate(844.873047 0)"/>
     </g>
    </g>
   </g>
   <g id="line2d_61">
    <path d="M 93.559551 51.142474 
L 122.193015 63.828516 
L 150.82648 85.392162 
L 179.459944 67.610691 
L 208.093408 63.250684 
L 236.726873 59.284654 
L 265.360337 65.850929 
L 293.993802 69.711898 
L 322.627266 69.580573 
L 351.26073 75.043714 
L 379.894195 61.490923 
L 408.527659 72.70612 
L 437.161124 59.442245 
L 465.794588 50.669702 
L 494.428052 51.799101 
L 523.061517 52.193078 
L 551.694981 82.896978 
L 580.328446 134.113921 
L 608.96191 111.105694 
L 637.595374 90.960363 
L 666.228839 93.770729 
L 694.862303 100.100618 
L 723.495768 125.945475 
" clip-path="url(#p9aff2e2d03)" style="fill: none; stroke: #1f77b4; stroke-width: 1.5; stroke-linecap: square"/>
    <defs>
     <path id="m303e57ae6a" d="M 0 1.5 
C 0.397805 1.5 0.77937 1.341951 1.06066 1.06066 
C 1.341951 0.77937 1.5 0.397805 1.5 0 
C 1.5 -0.397805 1.341951 -0.77937 1.06066 -1.06066 
C 0.77937 -1.341951 0.397805 -1.5 0 -1.5 
C -0.397805 -1.5 -0.77937 -1.341951 -1.06066 -1.06066 
C -1.341951 -0.77937 -1.5 -0.397805 -1.5 0 
C -1.5 0.397805 -1.341951 0.77937 -1.06066 1.06066 
C -0.77937 1.341951 -0.397805 1.5 0 1.5 
z
" style="stroke: #1f77b4"/>
    </defs>
    <g clip-path="url(#p9aff2e2d03)">
     <use xlink:href="#m303e57ae6a" x="93.559551" y="51.142474" style="fill: #1f77b4; stroke: #1f77b4"/>
     <use xlink:href="#m303e57ae6a" x="122.193015" y="63.828516" style="fill: #1f77b4; stroke: #1f77b4"/>
     <use xlink:href="#m303e57ae6a" x="150.82648" y="85.392162" style="fill: #1f77b4; stroke: #1f77b4"/>
     <use xlink:href="#m303e57ae6a" x="179.459944" y="67.610691" style="fill: #1f77b4; stroke: #1f77b4"/>
     <use xlink:href="#m303e57ae6a" x="208.093408" y="63.250684" style="fill: #1f77b4; stroke: #1f77b4"/>
     <use xlink:href="#m303e57ae6a" x="236.726873" y="59.284654" style="fill: #1f77b4; stroke: #1f77b4"/>
     <use xlink:href="#m303e57ae6a" x="265.360337" y="65.850929" style="fill: #1f77b4; stroke: #1f77b4"/>
     <use xlink:href="#m303e57ae6a" x="293.993802" y="69.711898" style="fill: #1f77b4; stroke: #1f77b4"/>
     <use xlink:href="#m303e57ae6a" x="322.627266" y="69.580573" style="fill: #1f77b4; stroke: #1f77b4"/>
     <use xlink:href="#m303e57ae6a" x="351.26073" y="75.043714" style="fill: #1f77b4; stroke: #1f77b4"/>
     <use xlink:href="#m303e57ae6a" x="379.894195" y="61.490923" style="fill: #1f77b4; stroke: #1f77b4"/>
     <use xlink:href="#m303e57ae6a" x="408.527659" y="72.70612" style="fill: #1f77b4; stroke: #1f77b4"/>
     <use xlink:href="#m303e57ae6a" x="437.161124" y="59.442245" style="fill: #1f77b4; stroke: #1f77b4"/>
     <use xlink:href="#m303e57ae6a" x="465.794588" y="50.669702" style="fill: #1f77b4; stroke: #1f77b4"/>
     <use xlink:href="#m303e57ae6a" x="494.428052" y="51.799101" style="fill: #1f77b4; stroke: #1f77b4"/>
     <use xlink:href="#m303e57ae6a" x="523.061517" y="52.193078" style="fill: #1f77b4; stroke: #1f77b4"/>
     <use xlink:href="#m303e57ae6a" x="551.694981" y="82.896978" style="fill: #1f77b4; stroke: #1f77b4"/>
     <use xlink:href="#m303e57ae6a" x="580.328446" y="134.113921" style="fill: #1f77b4; stroke: #1f77b4"/>
     <use xlink:href="#m303e57ae6a" x="608.96191" y="111.105694" style="fill: #1f77b4; stroke: #1f77b4"/>
     <use xlink:href="#m303e57ae6a" x="637.595374" y="90.960363" style="fill: #1f77b4; stroke: #1f77b4"/>
     <use xlink:href="#m303e57ae6a" x="666.228839" y="93.770729" style="fill: #1f77b4; stroke: #1f77b4"/>
     <use xlink:href="#m303e57ae6a" x="694.862303" y="100.100618" style="fill: #1f77b4; stroke: #1f77b4"/>
     <use xlink:href="#m303e57ae6a" x="723.495768" y="125.945475" style="fill: #1f77b4; stroke: #1f77b4"/>
    </g>
   </g>
   <g id="line2d_62">
    <path d="M 93.559551 199.172571 
L 122.193015 180.576881 
L 150.82648 171.909398 
L 179.459944 174.115666 
L 208.093408 214.695244 
L 236.726873 208.706802 
L 265.360337 216.16609 
L 293.993802 227.302492 
L 322.627266 227.722733 
L 351.26073 194.392323 
L 379.894195 195.416662 
L 408.527659 198.778594 
L 437.161124 202.350648 
L 465.794588 206.316678 
L 494.428052 207.840053 
L 523.061517 170.386022 
L 551.694981 199.356426 
L 580.328446 116.174858 
L 608.96191 126.628368 
L 637.595374 166.446258 
L 666.228839 179.526277 
L 694.862303 194.024611 
L 723.495768 239.226846 
" clip-path="url(#p9aff2e2d03)" style="fill: none; stroke: #ff7f0e; stroke-width: 1.5; stroke-linecap: square"/>
    <defs>
     <path id="m39138ab677" d="M 0 1.5 
C 0.397805 1.5 0.77937 1.341951 1.06066 1.06066 
C 1.341951 0.77937 1.5 0.397805 1.5 0 
C 1.5 -0.397805 1.341951 -0.77937 1.06066 -1.06066 
C 0.77937 -1.341951 0.397805 -1.5 0 -1.5 
C -0.397805 -1.5 -0.77937 -1.341951 -1.06066 -1.06066 
C -1.341951 -0.77937 -1.5 -0.397805 -1.5 0 
C -1.5 0.397805 -1.341951 0.77937 -1.06066 1.06066 
C -0.77937 1.341951 -0.397805 1.5 0 1.5 
z
" style="stroke: #ff7f0e"/>
    </defs>
    <g clip-path="url(#p9aff2e2d03)">
     <use xlink:href="#m39138ab677" x="93.559551" y="199.172571" style="fill: #ff7f0e; stroke: #ff7f0e"/>
     <use xlink:href="#m39138ab677" x="122.193015" y="180.576881" style="fill: #ff7f0e; stroke: #ff7f0e"/>
     <use xlink:href="#m39138ab677" x="150.82648" y="171.909398" style="fill: #ff7f0e; stroke: #ff7f0e"/>
     <use xlink:href="#m39138ab677" x="179.459944" y="174.115666" style="fill: #ff7f0e; stroke: #ff7f0e"/>
     <use xlink:href="#m39138ab677" x="208.093408" y="214.695244" style="fill: #ff7f0e; stroke: #ff7f0e"/>
     <use xlink:href="#m39138ab677" x="236.726873" y="208.706802" style="fill: #ff7f0e; stroke: #ff7f0e"/>
     <use xlink:href="#m39138ab677" x="265.360337" y="216.16609" style="fill: #ff7f0e; stroke: #ff7f0e"/>
     <use xlink:href="#m39138ab677" x="293.993802" y="227.302492" style="fill: #ff7f0e; stroke: #ff7f0e"/>
     <use xlink:href="#m39138ab677" x="322.627266" y="227.722733" style="fill: #ff7f0e; stroke: #ff7f0e"/>
     <use xlink:href="#m39138ab677" x="351.26073" y="194.392323" style="fill: #ff7f0e; stroke: #ff7f0e"/>
     <use xlink:href="#m39138ab677" x="379.894195" y="195.416662" style="fill: #ff7f0e; stroke: #ff7f0e"/>
     <use xlink:href="#m39138ab677" x="408.527659" y="198.778594" style="fill: #ff7f0e; stroke: #ff7f0e"/>
     <use xlink:href="#m39138ab677" x="437.161124" y="202.350648" style="fill: #ff7f0e; stroke: #ff7f0e"/>
     <use xlink:href="#m39138ab677" x="465.794588" y="206.316678" style="fill: #ff7f0e; stroke: #ff7f0e"/>
     <use xlink:href="#m39138ab677" x="494.428052" y="207.840053" style="fill: #ff7f0e; stroke: #ff7f0e"/>
     <use xlink:href="#m39138ab677" x="523.061517" y="170.386022" style="fill: #ff7f0e; stroke: #ff7f0e"/>
     <use xlink:href="#m39138ab677" x="551.694981" y="199.356426" style="fill: #ff7f0e; stroke: #ff7f0e"/>
     <use xlink:href="#m39138ab677" x="580.328446" y="116.174858" style="fill: #ff7f0e; stroke: #ff7f0e"/>
     <use xlink:href="#m39138ab677" x="608.96191" y="126.628368" style="fill: #ff7f0e; stroke: #ff7f0e"/>
     <use xlink:href="#m39138ab677" x="637.595374" y="166.446258" style="fill: #ff7f0e; stroke: #ff7f0e"/>
     <use xlink:href="#m39138ab677" x="666.228839" y="179.526277" style="fill: #ff7f0e; stroke: #ff7f0e"/>
     <use xlink:href="#m39138ab677" x="694.862303" y="194.024611" style="fill: #ff7f0e; stroke: #ff7f0e"/>
     <use xlink:href="#m39138ab677" x="723.495768" y="239.226846" style="fill: #ff7f0e; stroke: #ff7f0e"/>
    </g>
   </g>
   <g id="line2d_63">
    <path d="M 93.559551 100.126883 
L 122.193015 99.916762 
L 150.82648 135.322115 
L 179.459944 122.215831 
L 208.093408 84.998186 
L 236.726873 56.211638 
L 265.360337 47.938132 
L 293.993802 119.773177 
L 322.627266 178.501938 
L 351.26073 191.529427 
L 379.894195 181.942666 
L 408.527659 217.794526 
L 437.161124 247.684208 
L 465.794588 248.288306 
L 494.428052 274.553404 
L 523.061517 251.413852 
L 551.694981 266.411224 
L 580.328446 292.912708 
L 608.96191 302.446939 
L 637.595374 261.158204 
L 666.228839 245.53047 
L 694.862303 248.656017 
L 723.495768 181.548689 
" clip-path="url(#p9aff2e2d03)" style="fill: none; stroke: #2ca02c; stroke-width: 1.5; stroke-linecap: square"/>
    <defs>
     <path id="m6716543df2" d="M 0 1.5 
C 0.397805 1.5 0.77937 1.341951 1.06066 1.06066 
C 1.341951 0.77937 1.5 0.397805 1.5 0 
C 1.5 -0.397805 1.341951 -0.77937 1.06066 -1.06066 
C 0.77937 -1.341951 0.397805 -1.5 0 -1.5 
C -0.397805 -1.5 -0.77937 -1.341951 -1.06066 -1.06066 
C -1.341951 -0.77937 -1.5 -0.397805 -1.5 0 
C -1.5 0.397805 -1.341951 0.77937 -1.06066 1.06066 
C -0.77937 1.341951 -0.397805 1.5 0 1.5 
z
" style="stroke: #2ca02c"/>
    </defs>
    <g clip-path="url(#p9aff2e2d03)">
     <use xlink:href="#m6716543df2" x="93.559551" y="100.126883" style="fill: #2ca02c; stroke: #2ca02c"/>
     <use xlink:href="#m6716543df2" x="122.193015" y="99.916762" style="fill: #2ca02c; stroke: #2ca02c"/>
     <use xlink:href="#m6716543df2" x="150.82648" y="135.322115" style="fill: #2ca02c; stroke: #2ca02c"/>
     <use xlink:href="#m6716543df2" x="179.459944" y="122.215831" style="fill: #2ca02c; stroke: #2ca02c"/>
     <use xlink:href="#m6716543df2" x="208.093408" y="84.998186" style="fill: #2ca02c; stroke: #2ca02c"/>
     <use xlink:href="#m6716543df2" x="236.726873" y="56.211638" style="fill: #2ca02c; stroke: #2ca02c"/>
     <use xlink:href="#m6716543df2" x="265.360337" y="47.938132" style="fill: #2ca02c; stroke: #2ca02c"/>
     <use xlink:href="#m6716543df2" x="293.993802" y="119.773177" style="fill: #2ca02c; stroke: #2ca02c"/>
     <use xlink:href="#m6716543df2" x="322.627266" y="178.501938" style="fill: #2ca02c; stroke: #2ca02c"/>
     <use xlink:href="#m6716543df2" x="351.26073" y="191.529427" style="fill: #2ca02c; stroke: #2ca02c"/>
     <use xlink:href="#m6716543df2" x="379.894195" y="181.942666" style="fill: #2ca02c; stroke: #2ca02c"/>
     <use xlink:href="#m6716543df2" x="408.527659" y="217.794526" style="fill: #2ca02c; stroke: #2ca02c"/>
     <use xlink:href="#m6716543df2" x="437.161124" y="247.684208" style="fill: #2ca02c; stroke: #2ca02c"/>
     <use xlink:href="#m6716543df2" x="465.794588" y="248.288306" style="fill: #2ca02c; stroke: #2ca02c"/>
     <use xlink:href="#m6716543df2" x="494.428052" y="274.553404" style="fill: #2ca02c; stroke: #2ca02c"/>
     <use xlink:href="#m6716543df2" x="523.061517" y="251.413852" style="fill: #2ca02c; stroke: #2ca02c"/>
     <use xlink:href="#m6716543df2" x="551.694981" y="266.411224" style="fill: #2ca02c; stroke: #2ca02c"/>
     <use xlink:href="#m6716543df2" x="580.328446" y="292.912708" style="fill: #2ca02c; stroke: #2ca02c"/>
     <use xlink:href="#m6716543df2" x="608.96191" y="302.446939" style="fill: #2ca02c; stroke: #2ca02c"/>
     <use xlink:href="#m6716543df2" x="637.595374" y="261.158204" style="fill: #2ca02c; stroke: #2ca02c"/>
     <use xlink:href="#m6716543df2" x="666.228839" y="245.53047" style="fill: #2ca02c; stroke: #2ca02c"/>
     <use xlink:href="#m6716543df2" x="694.862303" y="248.656017" style="fill: #2ca02c; stroke: #2ca02c"/>
     <use xlink:href="#m6716543df2" x="723.495768" y="181.548689" style="fill: #2ca02c; stroke: #2ca02c"/>
    </g>
   </g>
   <g id="line2d_64">
    <path d="M 93.559551 198.673534 
L 122.193015 215.404402 
L 150.82648 224.124415 
L 179.459944 218.451153 
L 208.093408 216.481271 
L 236.726873 214.800304 
L 265.360337 222.706099 
L 293.993802 250.704695 
L 322.627266 255.957714 
L 351.26073 252.464456 
L 379.894195 253.672651 
L 408.527659 252.411926 
L 437.161124 246.607339 
L 465.794588 263.101821 
L 494.428052 269.878217 
L 523.061517 210.650419 
L 551.694981 216.32368 
L 580.328446 247.132641 
L 608.96191 252.910963 
L 637.595374 216.980308 
L 666.228839 223.310197 
L 694.862303 257.822536 
L 723.495768 257.37603 
" clip-path="url(#p9aff2e2d03)" style="fill: none; stroke: #d62728; stroke-width: 1.5; stroke-linecap: square"/>
    <defs>
     <path id="m3711f1e892" d="M 0 1.5 
C 0.397805 1.5 0.77937 1.341951 1.06066 1.06066 
C 1.341951 0.77937 1.5 0.397805 1.5 0 
C 1.5 -0.397805 1.341951 -0.77937 1.06066 -1.06066 
C 0.77937 -1.341951 0.397805 -1.5 0 -1.5 
C -0.397805 -1.5 -0.77937 -1.341951 -1.06066 -1.06066 
C -1.341951 -0.77937 -1.5 -0.397805 -1.5 0 
C -1.5 0.397805 -1.341951 0.77937 -1.06066 1.06066 
C -0.77937 1.341951 -0.397805 1.5 0 1.5 
z
" style="stroke: #d62728"/>
    </defs>
    <g clip-path="url(#p9aff2e2d03)">
     <use xlink:href="#m3711f1e892" x="93.559551" y="198.673534" style="fill: #d62728; stroke: #d62728"/>
     <use xlink:href="#m3711f1e892" x="122.193015" y="215.404402" style="fill: #d62728; stroke: #d62728"/>
     <use xlink:href="#m3711f1e892" x="150.82648" y="224.124415" style="fill: #d62728; stroke: #d62728"/>
     <use xlink:href="#m3711f1e892" x="179.459944" y="218.451153" style="fill: #d62728; stroke: #d62728"/>
     <use xlink:href="#m3711f1e892" x="208.093408" y="216.481271" style="fill: #d62728; stroke: #d62728"/>
     <use xlink:href="#m3711f1e892" x="236.726873" y="214.800304" style="fill: #d62728; stroke: #d62728"/>
     <use xlink:href="#m3711f1e892" x="265.360337" y="222.706099" style="fill: #d62728; stroke: #d62728"/>
     <use xlink:href="#m3711f1e892" x="293.993802" y="250.704695" style="fill: #d62728; stroke: #d62728"/>
     <use xlink:href="#m3711f1e892" x="322.627266" y="255.957714" style="fill: #d62728; stroke: #d62728"/>
     <use xlink:href="#m3711f1e892" x="351.26073" y="252.464456" style="fill: #d62728; stroke: #d62728"/>
     <use xlink:href="#m3711f1e892" x="379.894195" y="253.672651" style="fill: #d62728; stroke: #d62728"/>
     <use xlink:href="#m3711f1e892" x="408.527659" y="252.411926" style="fill: #d62728; stroke: #d62728"/>
     <use xlink:href="#m3711f1e892" x="437.161124" y="246.607339" style="fill: #d62728; stroke: #d62728"/>
     <use xlink:href="#m3711f1e892" x="465.794588" y="263.101821" style="fill: #d62728; stroke: #d62728"/>
     <use xlink:href="#m3711f1e892" x="494.428052" y="269.878217" style="fill: #d62728; stroke: #d62728"/>
     <use xlink:href="#m3711f1e892" x="523.061517" y="210.650419" style="fill: #d62728; stroke: #d62728"/>
     <use xlink:href="#m3711f1e892" x="551.694981" y="216.32368" style="fill: #d62728; stroke: #d62728"/>
     <use xlink:href="#m3711f1e892" x="580.328446" y="247.132641" style="fill: #d62728; stroke: #d62728"/>
     <use xlink:href="#m3711f1e892" x="608.96191" y="252.910963" style="fill: #d62728; stroke: #d62728"/>
     <use xlink:href="#m3711f1e892" x="637.595374" y="216.980308" style="fill: #d62728; stroke: #d62728"/>
     <use xlink:href="#m3711f1e892" x="666.228839" y="223.310197" style="fill: #d62728; stroke: #d62728"/>
     <use xlink:href="#m3711f1e892" x="694.862303" y="257.822536" style="fill: #d62728; stroke: #d62728"/>
     <use xlink:href="#m3711f1e892" x="723.495768" y="257.37603" style="fill: #d62728; stroke: #d62728"/>
    </g>
   </g>
   <g id="line2d_65">
    <path d="M 93.559551 345.337846 
L 122.193015 346.467245 
L 150.82648 345.915678 
L 179.459944 346.49351 
L 208.093408 345.731822 
L 236.726873 344.339772 
L 265.360337 344.313507 
L 293.993802 342.42242 
L 322.627266 342.238564 
L 351.26073 340.951574 
L 379.894195 341.293021 
L 408.527659 338.640246 
L 437.161124 337.563376 
L 465.794588 337.195665 
L 494.428052 334.122649 
L 523.061517 343.446759 
L 551.694981 351.247493 
L 580.328446 352.429422 
L 608.96191 352.980989 
L 637.595374 352.849664 
L 666.228839 351.956651 
L 694.862303 351.982916 
L 723.495768 355.108462 
" clip-path="url(#p9aff2e2d03)" style="fill: none; stroke: #9467bd; stroke-width: 1.5; stroke-linecap: square"/>
    <defs>
     <path id="mfb69a7cb6c" d="M 0 1.5 
C 0.397805 1.5 0.77937 1.341951 1.06066 1.06066 
C 1.341951 0.77937 1.5 0.397805 1.5 0 
C 1.5 -0.397805 1.341951 -0.77937 1.06066 -1.06066 
C 0.77937 -1.341951 0.397805 -1.5 0 -1.5 
C -0.397805 -1.5 -0.77937 -1.341951 -1.06066 -1.06066 
C -1.341951 -0.77937 -1.5 -0.397805 -1.5 0 
C -1.5 0.397805 -1.341951 0.77937 -1.06066 1.06066 
C -0.77937 1.341951 -0.397805 1.5 0 1.5 
z
" style="stroke: #9467bd"/>
    </defs>
    <g clip-path="url(#p9aff2e2d03)">
     <use xlink:href="#mfb69a7cb6c" x="93.559551" y="345.337846" style="fill: #9467bd; stroke: #9467bd"/>
     <use xlink:href="#mfb69a7cb6c" x="122.193015" y="346.467245" style="fill: #9467bd; stroke: #9467bd"/>
     <use xlink:href="#mfb69a7cb6c" x="150.82648" y="345.915678" style="fill: #9467bd; stroke: #9467bd"/>
     <use xlink:href="#mfb69a7cb6c" x="179.459944" y="346.49351" style="fill: #9467bd; stroke: #9467bd"/>
     <use xlink:href="#mfb69a7cb6c" x="208.093408" y="345.731822" style="fill: #9467bd; stroke: #9467bd"/>
     <use xlink:href="#mfb69a7cb6c" x="236.726873" y="344.339772" style="fill: #9467bd; stroke: #9467bd"/>
     <use xlink:href="#mfb69a7cb6c" x="265.360337" y="344.313507" style="fill: #9467bd; stroke: #9467bd"/>
     <use xlink:href="#mfb69a7cb6c" x="293.993802" y="342.42242" style="fill: #9467bd; stroke: #9467bd"/>
     <use xlink:href="#mfb69a7cb6c" x="322.627266" y="342.238564" style="fill: #9467bd; stroke: #9467bd"/>
     <use xlink:href="#mfb69a7cb6c" x="351.26073" y="340.951574" style="fill: #9467bd; stroke: #9467bd"/>
     <use xlink:href="#mfb69a7cb6c" x="379.894195" y="341.293021" style="fill: #9467bd; stroke: #9467bd"/>
     <use xlink:href="#mfb69a7cb6c" x="408.527659" y="338.640246" style="fill: #9467bd; stroke: #9467bd"/>
     <use xlink:href="#mfb69a7cb6c" x="437.161124" y="337.563376" style="fill: #9467bd; stroke: #9467bd"/>
     <use xlink:href="#mfb69a7cb6c" x="465.794588" y="337.195665" style="fill: #9467bd; stroke: #9467bd"/>
     <use xlink:href="#mfb69a7cb6c" x="494.428052" y="334.122649" style="fill: #9467bd; stroke: #9467bd"/>
     <use xlink:href="#mfb69a7cb6c" x="523.061517" y="343.446759" style="fill: #9467bd; stroke: #9467bd"/>
     <use xlink:href="#mfb69a7cb6c" x="551.694981" y="351.247493" style="fill: #9467bd; stroke: #9467bd"/>
     <use xlink:href="#mfb69a7cb6c" x="580.328446" y="352.429422" style="fill: #9467bd; stroke: #9467bd"/>
     <use xlink:href="#mfb69a7cb6c" x="608.96191" y="352.980989" style="fill: #9467bd; stroke: #9467bd"/>
     <use xlink:href="#mfb69a7cb6c" x="637.595374" y="352.849664" style="fill: #9467bd; stroke: #9467bd"/>
     <use xlink:href="#mfb69a7cb6c" x="666.228839" y="351.956651" style="fill: #9467bd; stroke: #9467bd"/>
     <use xlink:href="#mfb69a7cb6c" x="694.862303" y="351.982916" style="fill: #9467bd; stroke: #9467bd"/>
     <use xlink:href="#mfb69a7cb6c" x="723.495768" y="355.108462" style="fill: #9467bd; stroke: #9467bd"/>
    </g>
   </g>
   <g id="line2d_66">
    <path d="M 93.559551 326.689626 
L 122.193015 329.657582 
L 150.82648 330.786981 
L 179.459944 326.66336 
L 208.093408 324.273236 
L 236.726873 318.67877 
L 265.360337 314.029848 
L 293.993802 320.543592 
L 322.627266 323.248898 
L 351.26073 325.21878 
L 379.894195 315.920935 
L 408.527659 327.819025 
L 437.161124 327.582639 
L 465.794588 332.573008 
L 494.428052 339.165547 
L 523.061517 293.937047 
L 551.694981 298.979946 
L 580.328446 321.121425 
L 608.96191 322.59227 
L 637.595374 328.423122 
L 666.228839 315.605754 
L 694.862303 318.311059 
L 723.495768 323.380223 
" clip-path="url(#p9aff2e2d03)" style="fill: none; stroke: #8c564b; stroke-width: 1.5; stroke-linecap: square"/>
    <defs>
     <path id="m52bcd90169" d="M 0 1.5 
C 0.397805 1.5 0.77937 1.341951 1.06066 1.06066 
C 1.341951 0.77937 1.5 0.397805 1.5 0 
C 1.5 -0.397805 1.341951 -0.77937 1.06066 -1.06066 
C 0.77937 -1.341951 0.397805 -1.5 0 -1.5 
C -0.397805 -1.5 -0.77937 -1.341951 -1.06066 -1.06066 
C -1.341951 -0.77937 -1.5 -0.397805 -1.5 0 
C -1.5 0.397805 -1.341951 0.77937 -1.06066 1.06066 
C -0.77937 1.341951 -0.397805 1.5 0 1.5 
z
" style="stroke: #8c564b"/>
    </defs>
    <g clip-path="url(#p9aff2e2d03)">
     <use xlink:href="#m52bcd90169" x="93.559551" y="326.689626" style="fill: #8c564b; stroke: #8c564b"/>
     <use xlink:href="#m52bcd90169" x="122.193015" y="329.657582" style="fill: #8c564b; stroke: #8c564b"/>
     <use xlink:href="#m52bcd90169" x="150.82648" y="330.786981" style="fill: #8c564b; stroke: #8c564b"/>
     <use xlink:href="#m52bcd90169" x="179.459944" y="326.66336" style="fill: #8c564b; stroke: #8c564b"/>
     <use xlink:href="#m52bcd90169" x="208.093408" y="324.273236" style="fill: #8c564b; stroke: #8c564b"/>
     <use xlink:href="#m52bcd90169" x="236.726873" y="318.67877" style="fill: #8c564b; stroke: #8c564b"/>
     <use xlink:href="#m52bcd90169" x="265.360337" y="314.029848" style="fill: #8c564b; stroke: #8c564b"/>
     <use xlink:href="#m52bcd90169" x="293.993802" y="320.543592" style="fill: #8c564b; stroke: #8c564b"/>
     <use xlink:href="#m52bcd90169" x="322.627266" y="323.248898" style="fill: #8c564b; stroke: #8c564b"/>
     <use xlink:href="#m52bcd90169" x="351.26073" y="325.21878" style="fill: #8c564b; stroke: #8c564b"/>
     <use xlink:href="#m52bcd90169" x="379.894195" y="315.920935" style="fill: #8c564b; stroke: #8c564b"/>
     <use xlink:href="#m52bcd90169" x="408.527659" y="327.819025" style="fill: #8c564b; stroke: #8c564b"/>
     <use xlink:href="#m52bcd90169" x="437.161124" y="327.582639" style="fill: #8c564b; stroke: #8c564b"/>
     <use xlink:href="#m52bcd90169" x="465.794588" y="332.573008" style="fill: #8c564b; stroke: #8c564b"/>
     <use xlink:href="#m52bcd90169" x="494.428052" y="339.165547" style="fill: #8c564b; stroke: #8c564b"/>
     <use xlink:href="#m52bcd90169" x="523.061517" y="293.937047" style="fill: #8c564b; stroke: #8c564b"/>
     <use xlink:href="#m52bcd90169" x="551.694981" y="298.979946" style="fill: #8c564b; stroke: #8c564b"/>
     <use xlink:href="#m52bcd90169" x="580.328446" y="321.121425" style="fill: #8c564b; stroke: #8c564b"/>
     <use xlink:href="#m52bcd90169" x="608.96191" y="322.59227" style="fill: #8c564b; stroke: #8c564b"/>
     <use xlink:href="#m52bcd90169" x="637.595374" y="328.423122" style="fill: #8c564b; stroke: #8c564b"/>
     <use xlink:href="#m52bcd90169" x="666.228839" y="315.605754" style="fill: #8c564b; stroke: #8c564b"/>
     <use xlink:href="#m52bcd90169" x="694.862303" y="318.311059" style="fill: #8c564b; stroke: #8c564b"/>
     <use xlink:href="#m52bcd90169" x="723.495768" y="323.380223" style="fill: #8c564b; stroke: #8c564b"/>
    </g>
   </g>
   <g id="line2d_67">
    <path d="M 93.559551 189.612075 
L 122.193015 188.29882 
L 150.82648 174.220727 
L 179.459944 157.516124 
L 208.093408 161.377093 
L 236.726873 167.102885 
L 265.360337 159.879983 
L 293.993802 153.73395 
L 322.627266 171.226506 
L 351.26073 154.758289 
L 379.894195 177.68772 
L 408.527659 170.622408 
L 437.161124 156.596845 
L 465.794588 132.931991 
L 494.428052 103.30496 
L 523.061517 119.563056 
L 551.694981 118.381127 
L 580.328446 120.744986 
L 608.96191 84.052642 
L 637.595374 102.411947 
L 666.228839 109.871235 
L 694.862303 152.39443 
L 723.495768 194.838829 
" clip-path="url(#p9aff2e2d03)" style="fill: none; stroke: #e377c2; stroke-width: 1.5; stroke-linecap: square"/>
    <defs>
     <path id="mbd31a64bfb" d="M 0 1.5 
C 0.397805 1.5 0.77937 1.341951 1.06066 1.06066 
C 1.341951 0.77937 1.5 0.397805 1.5 0 
C 1.5 -0.397805 1.341951 -0.77937 1.06066 -1.06066 
C 0.77937 -1.341951 0.397805 -1.5 0 -1.5 
C -0.397805 -1.5 -0.77937 -1.341951 -1.06066 -1.06066 
C -1.341951 -0.77937 -1.5 -0.397805 -1.5 0 
C -1.5 0.397805 -1.341951 0.77937 -1.06066 1.06066 
C -0.77937 1.341951 -0.397805 1.5 0 1.5 
z
" style="stroke: #e377c2"/>
    </defs>
    <g clip-path="url(#p9aff2e2d03)">
     <use xlink:href="#mbd31a64bfb" x="93.559551" y="189.612075" style="fill: #e377c2; stroke: #e377c2"/>
     <use xlink:href="#mbd31a64bfb" x="122.193015" y="188.29882" style="fill: #e377c2; stroke: #e377c2"/>
     <use xlink:href="#mbd31a64bfb" x="150.82648" y="174.220727" style="fill: #e377c2; stroke: #e377c2"/>
     <use xlink:href="#mbd31a64bfb" x="179.459944" y="157.516124" style="fill: #e377c2; stroke: #e377c2"/>
     <use xlink:href="#mbd31a64bfb" x="208.093408" y="161.377093" style="fill: #e377c2; stroke: #e377c2"/>
     <use xlink:href="#mbd31a64bfb" x="236.726873" y="167.102885" style="fill: #e377c2; stroke: #e377c2"/>
     <use xlink:href="#mbd31a64bfb" x="265.360337" y="159.879983" style="fill: #e377c2; stroke: #e377c2"/>
     <use xlink:href="#mbd31a64bfb" x="293.993802" y="153.73395" style="fill: #e377c2; stroke: #e377c2"/>
     <use xlink:href="#mbd31a64bfb" x="322.627266" y="171.226506" style="fill: #e377c2; stroke: #e377c2"/>
     <use xlink:href="#mbd31a64bfb" x="351.26073" y="154.758289" style="fill: #e377c2; stroke: #e377c2"/>
     <use xlink:href="#mbd31a64bfb" x="379.894195" y="177.68772" style="fill: #e377c2; stroke: #e377c2"/>
     <use xlink:href="#mbd31a64bfb" x="408.527659" y="170.622408" style="fill: #e377c2; stroke: #e377c2"/>
     <use xlink:href="#mbd31a64bfb" x="437.161124" y="156.596845" style="fill: #e377c2; stroke: #e377c2"/>
     <use xlink:href="#mbd31a64bfb" x="465.794588" y="132.931991" style="fill: #e377c2; stroke: #e377c2"/>
     <use xlink:href="#mbd31a64bfb" x="494.428052" y="103.30496" style="fill: #e377c2; stroke: #e377c2"/>
     <use xlink:href="#mbd31a64bfb" x="523.061517" y="119.563056" style="fill: #e377c2; stroke: #e377c2"/>
     <use xlink:href="#mbd31a64bfb" x="551.694981" y="118.381127" style="fill: #e377c2; stroke: #e377c2"/>
     <use xlink:href="#mbd31a64bfb" x="580.328446" y="120.744986" style="fill: #e377c2; stroke: #e377c2"/>
     <use xlink:href="#mbd31a64bfb" x="608.96191" y="84.052642" style="fill: #e377c2; stroke: #e377c2"/>
     <use xlink:href="#mbd31a64bfb" x="637.595374" y="102.411947" style="fill: #e377c2; stroke: #e377c2"/>
     <use xlink:href="#mbd31a64bfb" x="666.228839" y="109.871235" style="fill: #e377c2; stroke: #e377c2"/>
     <use xlink:href="#mbd31a64bfb" x="694.862303" y="152.39443" style="fill: #e377c2; stroke: #e377c2"/>
     <use xlink:href="#mbd31a64bfb" x="723.495768" y="194.838829" style="fill: #e377c2; stroke: #e377c2"/>
    </g>
   </g>
   <g id="line2d_68">
    <path d="M 93.559551 325.691552 
L 122.193015 326.269384 
L 150.82648 323.275163 
L 179.459944 324.378297 
L 208.093408 324.404562 
L 236.726873 321.489136 
L 265.360337 321.20022 
L 293.993802 324.457092 
L 322.627266 326.006733 
L 351.26073 321.462871 
L 379.894195 319.492988 
L 408.527659 318.52118 
L 437.161124 315.658284 
L 465.794588 316.104791 
L 494.428052 315.369368 
L 523.061517 315.474428 
L 551.694981 319.650579 
L 580.328446 318.836361 
L 608.96191 310.405264 
L 637.595374 310.48406 
L 666.228839 310.930566 
L 694.862303 314.082378 
L 723.495768 320.097086 
" clip-path="url(#p9aff2e2d03)" style="fill: none; stroke: #7f7f7f; stroke-width: 1.5; stroke-linecap: square"/>
    <defs>
     <path id="m227b5a13df" d="M 0 1.5 
C 0.397805 1.5 0.77937 1.341951 1.06066 1.06066 
C 1.341951 0.77937 1.5 0.397805 1.5 0 
C 1.5 -0.397805 1.341951 -0.77937 1.06066 -1.06066 
C 0.77937 -1.341951 0.397805 -1.5 0 -1.5 
C -0.397805 -1.5 -0.77937 -1.341951 -1.06066 -1.06066 
C -1.341951 -0.77937 -1.5 -0.397805 -1.5 0 
C -1.5 0.397805 -1.341951 0.77937 -1.06066 1.06066 
C -0.77937 1.341951 -0.397805 1.5 0 1.5 
z
" style="stroke: #7f7f7f"/>
    </defs>
    <g clip-path="url(#p9aff2e2d03)">
     <use xlink:href="#m227b5a13df" x="93.559551" y="325.691552" style="fill: #7f7f7f; stroke: #7f7f7f"/>
     <use xlink:href="#m227b5a13df" x="122.193015" y="326.269384" style="fill: #7f7f7f; stroke: #7f7f7f"/>
     <use xlink:href="#m227b5a13df" x="150.82648" y="323.275163" style="fill: #7f7f7f; stroke: #7f7f7f"/>
     <use xlink:href="#m227b5a13df" x="179.459944" y="324.378297" style="fill: #7f7f7f; stroke: #7f7f7f"/>
     <use xlink:href="#m227b5a13df" x="208.093408" y="324.404562" style="fill: #7f7f7f; stroke: #7f7f7f"/>
     <use xlink:href="#m227b5a13df" x="236.726873" y="321.489136" style="fill: #7f7f7f; stroke: #7f7f7f"/>
     <use xlink:href="#m227b5a13df" x="265.360337" y="321.20022" style="fill: #7f7f7f; stroke: #7f7f7f"/>
     <use xlink:href="#m227b5a13df" x="293.993802" y="324.457092" style="fill: #7f7f7f; stroke: #7f7f7f"/>
     <use xlink:href="#m227b5a13df" x="322.627266" y="326.006733" style="fill: #7f7f7f; stroke: #7f7f7f"/>
     <use xlink:href="#m227b5a13df" x="351.26073" y="321.462871" style="fill: #7f7f7f; stroke: #7f7f7f"/>
     <use xlink:href="#m227b5a13df" x="379.894195" y="319.492988" style="fill: #7f7f7f; stroke: #7f7f7f"/>
     <use xlink:href="#m227b5a13df" x="408.527659" y="318.52118" style="fill: #7f7f7f; stroke: #7f7f7f"/>
     <use xlink:href="#m227b5a13df" x="437.161124" y="315.658284" style="fill: #7f7f7f; stroke: #7f7f7f"/>
     <use xlink:href="#m227b5a13df" x="465.794588" y="316.104791" style="fill: #7f7f7f; stroke: #7f7f7f"/>
     <use xlink:href="#m227b5a13df" x="494.428052" y="315.369368" style="fill: #7f7f7f; stroke: #7f7f7f"/>
     <use xlink:href="#m227b5a13df" x="523.061517" y="315.474428" style="fill: #7f7f7f; stroke: #7f7f7f"/>
     <use xlink:href="#m227b5a13df" x="551.694981" y="319.650579" style="fill: #7f7f7f; stroke: #7f7f7f"/>
     <use xlink:href="#m227b5a13df" x="580.328446" y="318.836361" style="fill: #7f7f7f; stroke: #7f7f7f"/>
     <use xlink:href="#m227b5a13df" x="608.96191" y="310.405264" style="fill: #7f7f7f; stroke: #7f7f7f"/>
     <use xlink:href="#m227b5a13df" x="637.595374" y="310.48406" style="fill: #7f7f7f; stroke: #7f7f7f"/>
     <use xlink:href="#m227b5a13df" x="666.228839" y="310.930566" style="fill: #7f7f7f; stroke: #7f7f7f"/>
     <use xlink:href="#m227b5a13df" x="694.862303" y="314.082378" style="fill: #7f7f7f; stroke: #7f7f7f"/>
     <use xlink:href="#m227b5a13df" x="723.495768" y="320.097086" style="fill: #7f7f7f; stroke: #7f7f7f"/>
    </g>
   </g>
   <g id="patch_3">
    <path d="M 62.06274 370.466979 
L 62.06274 32.579615 
" style="fill: none; opacity: 0.1; stroke: #000000; stroke-width: 0.8; stroke-linejoin: miter; stroke-linecap: square"/>
   </g>
   <g id="patch_4">
    <path d="M 754.992578 370.466979 
L 754.992578 32.579615 
" style="fill: none; opacity: 0.1; stroke: #000000; stroke-width: 0.8; stroke-linejoin: miter; stroke-linecap: square"/>
   </g>
   <g id="patch_5">
    <path d="M 62.06274 370.466979 
L 754.992578 370.466979 
" style="fill: none; opacity: 0.1; stroke: #000000; stroke-width: 0.8; stroke-linejoin: miter; stroke-linecap: square"/>
   </g>
   <g id="patch_6">
    <path d="M 62.06274 32.579615 
L 754.992578 32.579615 
" style="fill: none; opacity: 0.1; stroke: #000000; stroke-width: 0.8; stroke-linejoin: miter; stroke-linecap: square"/>
   </g>
   <g id="text_33">
    <!-- Yearly Count of Focus Crimes in San Francisco (2003-2025) -->
    <g transform="translate(234.406878 12.579615) scale(0.13 -0.13)">
     <defs>
      <path id="Helvetica-6c" d="M 428 4591 
L 991 4591 
L 991 0 
L 428 0 
L 428 4591 
z
" transform="scale(0.015625)"/>
      <path id="Helvetica-79" d="M 2503 3347 
L 3125 3347 
Q 3006 3025 2597 1878 
Q 2291 1016 2084 472 
Q 1597 -809 1397 -1090 
Q 1197 -1372 709 -1372 
Q 591 -1372 527 -1362 
Q 463 -1353 369 -1328 
L 369 -816 
Q 516 -856 581 -865 
Q 647 -875 697 -875 
Q 853 -875 926 -823 
Q 1000 -772 1050 -697 
Q 1066 -672 1162 -440 
Q 1259 -209 1303 -97 
L 66 3347 
L 703 3347 
L 1600 622 
L 2503 3347 
z
M 1597 3428 
L 1597 3428 
z
" transform="scale(0.015625)"/>
      <path id="Helvetica-43" d="M 2422 4716 
Q 3294 4716 3775 4256 
Q 4256 3797 4309 3213 
L 3703 3213 
Q 3600 3656 3292 3915 
Q 2984 4175 2428 4175 
Q 1750 4175 1333 3698 
Q 916 3222 916 2238 
Q 916 1431 1292 929 
Q 1669 428 2416 428 
Q 3103 428 3463 956 
Q 3653 1234 3747 1688 
L 4353 1688 
Q 4272 963 3816 472 
Q 3269 -119 2341 -119 
Q 1541 -119 997 366 
Q 281 1006 281 2344 
Q 281 3359 819 4009 
Q 1400 4716 2422 4716 
z
M 2297 4716 
L 2297 4716 
z
" transform="scale(0.015625)"/>
      <path id="Helvetica-46" d="M 547 4591 
L 3731 4591 
L 3731 4028 
L 1169 4028 
L 1169 2634 
L 3422 2634 
L 3422 2088 
L 1169 2088 
L 1169 0 
L 547 0 
L 547 4591 
z
" transform="scale(0.015625)"/>
      <path id="Helvetica-53" d="M 894 1481 
Q 916 1091 1078 847 
Q 1388 391 2169 391 
Q 2519 391 2806 491 
Q 3363 684 3363 1184 
Q 3363 1559 3128 1719 
Q 2891 1875 2384 1991 
L 1763 2131 
Q 1153 2269 900 2434 
Q 463 2722 463 3294 
Q 463 3913 891 4309 
Q 1319 4706 2103 4706 
Q 2825 4706 3329 4357 
Q 3834 4009 3834 3244 
L 3250 3244 
Q 3203 3613 3050 3809 
Q 2766 4169 2084 4169 
Q 1534 4169 1293 3937 
Q 1053 3706 1053 3400 
Q 1053 3063 1334 2906 
Q 1519 2806 2169 2656 
L 2813 2509 
Q 3278 2403 3531 2219 
Q 3969 1897 3969 1284 
Q 3969 522 3414 194 
Q 2859 -134 2125 -134 
Q 1269 -134 784 303 
Q 300 738 309 1481 
L 894 1481 
z
M 2150 4716 
L 2150 4716 
z
" transform="scale(0.015625)"/>
      <path id="Helvetica-28" d="M 1894 4666 
Q 1403 3713 1256 3263 
Q 1034 2578 1034 1681 
Q 1034 775 1288 25 
Q 1444 -438 1903 -1306 
L 1525 -1306 
Q 1069 -594 959 -397 
Q 850 -200 722 138 
Q 547 600 478 1125 
Q 444 1397 444 1644 
Q 444 2569 734 3291 
Q 919 3750 1503 4666 
L 1894 4666 
z
" transform="scale(0.015625)"/>
      <path id="Helvetica-2d" d="M 266 2072 
L 1834 2072 
L 1834 1494 
L 266 1494 
L 266 2072 
z
" transform="scale(0.015625)"/>
      <path id="Helvetica-29" d="M 222 -1306 
Q 719 -338 863 106 
Q 1081 778 1081 1681 
Q 1081 2584 828 3334 
Q 672 3797 213 4666 
L 591 4666 
Q 1072 3897 1173 3717 
Q 1275 3538 1394 3222 
Q 1544 2831 1608 2450 
Q 1672 2069 1672 1716 
Q 1672 791 1378 66 
Q 1194 -400 613 -1306 
L 222 -1306 
z
" transform="scale(0.015625)"/>
     </defs>
     <use xlink:href="#Helvetica-59"/>
     <use xlink:href="#Helvetica-65" transform="translate(66.699219 0)"/>
     <use xlink:href="#Helvetica-61" transform="translate(122.314453 0)"/>
     <use xlink:href="#Helvetica-72" transform="translate(177.929688 0)"/>
     <use xlink:href="#Helvetica-6c" transform="translate(211.230469 0)"/>
     <use xlink:href="#Helvetica-79" transform="translate(233.447266 0)"/>
     <use xlink:href="#Helvetica-20" transform="translate(283.447266 0)"/>
     <use xlink:href="#Helvetica-43" transform="translate(311.230469 0)"/>
     <use xlink:href="#Helvetica-6f" transform="translate(383.447266 0)"/>
     <use xlink:href="#Helvetica-75" transform="translate(439.0625 0)"/>
     <use xlink:href="#Helvetica-6e" transform="translate(494.677734 0)"/>
     <use xlink:href="#Helvetica-74" transform="translate(550.292969 0)"/>
     <use xlink:href="#Helvetica-20" transform="translate(578.076172 0)"/>
     <use xlink:href="#Helvetica-6f" transform="translate(605.859375 0)"/>
     <use xlink:href="#Helvetica-66" transform="translate(661.474609 0)"/>
     <use xlink:href="#Helvetica-20" transform="translate(689.257812 0)"/>
     <use xlink:href="#Helvetica-46" transform="translate(717.041016 0)"/>
     <use xlink:href="#Helvetica-6f" transform="translate(778.125 0)"/>
     <use xlink:href="#Helvetica-63" transform="translate(833.740234 0)"/>
     <use xlink:href="#Helvetica-75" transform="translate(883.740234 0)"/>
     <use xlink:href="#Helvetica-73" transform="translate(939.355469 0)"/>
     <use xlink:href="#Helvetica-20" transform="translate(989.355469 0)"/>
     <use xlink:href="#Helvetica-43" transform="translate(1017.138672 0)"/>
     <use xlink:href="#Helvetica-72" transform="translate(1089.355469 0)"/>
     <use xlink:href="#Helvetica-69" transform="translate(1122.65625 0)"/>
     <use xlink:href="#Helvetica-6d" transform="translate(1144.873047 0)"/>
     <use xlink:href="#Helvetica-65" transform="translate(1228.173828 0)"/>
     <use xlink:href="#Helvetica-73" transform="translate(1283.789062 0)"/>
     <use xlink:href="#Helvetica-20" transform="translate(1333.789062 0)"/>
     <use xlink:href="#Helvetica-69" transform="translate(1361.572266 0)"/>
     <use xlink:href="#Helvetica-6e" transform="translate(1383.789062 0)"/>
     <use xlink:href="#Helvetica-20" transform="translate(1439.404297 0)"/>
     <use xlink:href="#Helvetica-53" transform="translate(1467.1875 0)"/>
     <use xlink:href="#Helvetica-61" transform="translate(1533.886719 0)"/>
     <use xlink:href="#Helvetica-6e" transform="translate(1589.501953 0)"/>
     <use xlink:href="#Helvetica-20" transform="translate(1645.117188 0)"/>
     <use xlink:href="#Helvetica-46" transform="translate(1672.900391 0)"/>
     <use xlink:href="#Helvetica-72" transform="translate(1733.984375 0)"/>
     <use xlink:href="#Helvetica-61" transform="translate(1767.285156 0)"/>
     <use xlink:href="#Helvetica-6e" transform="translate(1822.900391 0)"/>
     <use xlink:href="#Helvetica-63" transform="translate(1878.515625 0)"/>
     <use xlink:href="#Helvetica-69" transform="translate(1928.515625 0)"/>
     <use xlink:href="#Helvetica-73" transform="translate(1950.732422 0)"/>
     <use xlink:href="#Helvetica-63" transform="translate(2000.732422 0)"/>
     <use xlink:href="#Helvetica-6f" transform="translate(2050.732422 0)"/>
     <use xlink:href="#Helvetica-20" transform="translate(2106.347656 0)"/>
     <use xlink:href="#Helvetica-28" transform="translate(2134.130859 0)"/>
     <use xlink:href="#Helvetica-32" transform="translate(2167.431641 0)"/>
     <use xlink:href="#Helvetica-30" transform="translate(2223.046875 0)"/>
     <use xlink:href="#Helvetica-30" transform="translate(2278.662109 0)"/>
     <use xlink:href="#Helvetica-33" transform="translate(2334.277344 0)"/>
     <use xlink:href="#Helvetica-2d" transform="translate(2389.892578 0)"/>
     <use xlink:href="#Helvetica-32" transform="translate(2423.193359 0)"/>
     <use xlink:href="#Helvetica-30" transform="translate(2478.808594 0)"/>
     <use xlink:href="#Helvetica-32" transform="translate(2534.423828 0)"/>
     <use xlink:href="#Helvetica-35" transform="translate(2590.039062 0)"/>
     <use xlink:href="#Helvetica-29" transform="translate(2645.654297 0)"/>
    </g>
   </g>
   <g id="legend_1">
    <g id="patch_7">
     <path d="M 770.851175 164.45774 
L 858.990238 164.45774 
Q 860.990238 164.45774 860.990238 162.45774 
L 860.990238 34.579615 
Q 860.990238 32.579615 858.990238 32.579615 
L 770.851175 32.579615 
Q 768.851175 32.579615 768.851175 34.579615 
L 768.851175 162.45774 
Q 768.851175 164.45774 770.851175 164.45774 
z
" style="fill: #ffffff; opacity: 0.8; stroke: #cccccc; stroke-linejoin: miter"/>
    </g>
    <g id="text_34">
     <!-- Crime Type -->
     <g transform="translate(789.084769 43.948365) scale(0.1 -0.1)">
      <defs>
       <path id="Helvetica-54" d="M 3828 4591 
L 3828 4044 
L 2281 4044 
L 2281 0 
L 1650 0 
L 1650 4044 
L 103 4044 
L 103 4591 
L 3828 4591 
z
" transform="scale(0.015625)"/>
       <path id="Helvetica-70" d="M 1825 378 
Q 2219 378 2480 708 
Q 2741 1038 2741 1694 
Q 2741 2094 2625 2381 
Q 2406 2934 1825 2934 
Q 1241 2934 1025 2350 
Q 909 2038 909 1556 
Q 909 1169 1025 897 
Q 1244 378 1825 378 
z
M 369 3331 
L 916 3331 
L 916 2888 
Q 1084 3116 1284 3241 
Q 1569 3428 1953 3428 
Q 2522 3428 2919 2992 
Q 3316 2556 3316 1747 
Q 3316 653 2744 184 
Q 2381 -113 1900 -113 
Q 1522 -113 1266 53 
Q 1116 147 931 375 
L 931 -1334 
L 369 -1334 
L 369 3331 
z
" transform="scale(0.015625)"/>
      </defs>
      <use xlink:href="#Helvetica-43"/>
      <use xlink:href="#Helvetica-72" transform="translate(72.216797 0)"/>
      <use xlink:href="#Helvetica-69" transform="translate(105.517578 0)"/>
      <use xlink:href="#Helvetica-6d" transform="translate(127.734375 0)"/>
      <use xlink:href="#Helvetica-65" transform="translate(211.035156 0)"/>
      <use xlink:href="#Helvetica-20" transform="translate(266.650391 0)"/>
      <use xlink:href="#Helvetica-54" transform="translate(294.433594 0)"/>
      <use xlink:href="#Helvetica-79" transform="translate(355.517578 0)"/>
      <use xlink:href="#Helvetica-70" transform="translate(405.517578 0)"/>
      <use xlink:href="#Helvetica-65" transform="translate(461.132812 0)"/>
     </g>
    </g>
    <g id="line2d_69">
     <path d="M 772.851175 54.765552 
L 782.851175 54.765552 
L 792.851175 54.765552 
" style="fill: none; stroke: #1f77b4; stroke-width: 1.5; stroke-linecap: square"/>
     <g>
      <use xlink:href="#m303e57ae6a" x="782.851175" y="54.765552" style="fill: #1f77b4; stroke: #1f77b4"/>
     </g>
    </g>
    <g id="text_35">
     <!-- assault -->
     <g transform="translate(800.851175 58.265552) scale(0.1 -0.1)">
      <use xlink:href="#Helvetica-61"/>
      <use xlink:href="#Helvetica-73" transform="translate(55.615234 0)"/>
      <use xlink:href="#Helvetica-73" transform="translate(105.615234 0)"/>
      <use xlink:href="#Helvetica-61" transform="translate(155.615234 0)"/>
      <use xlink:href="#Helvetica-75" transform="translate(211.230469 0)"/>
      <use xlink:href="#Helvetica-6c" transform="translate(266.845703 0)"/>
      <use xlink:href="#Helvetica-74" transform="translate(289.0625 0)"/>
     </g>
    </g>
    <g id="line2d_70">
     <path d="M 772.851175 69.046802 
L 782.851175 69.046802 
L 792.851175 69.046802 
" style="fill: none; stroke: #ff7f0e; stroke-width: 1.5; stroke-linecap: square"/>
     <g>
      <use xlink:href="#m39138ab677" x="782.851175" y="69.046802" style="fill: #ff7f0e; stroke: #ff7f0e"/>
     </g>
    </g>
    <g id="text_36">
     <!-- burglary -->
     <g transform="translate(800.851175 72.546802) scale(0.1 -0.1)">
      <defs>
       <path id="Helvetica-67" d="M 1594 3406 
Q 1988 3406 2281 3213 
Q 2441 3103 2606 2894 
L 2606 3316 
L 3125 3316 
L 3125 272 
Q 3125 -366 2938 -734 
Q 2588 -1416 1616 -1416 
Q 1075 -1416 706 -1173 
Q 338 -931 294 -416 
L 866 -416 
Q 906 -641 1028 -763 
Q 1219 -950 1628 -950 
Q 2275 -950 2475 -494 
Q 2594 -225 2584 466 
Q 2416 209 2178 84 
Q 1941 -41 1550 -41 
Q 1006 -41 598 345 
Q 191 731 191 1622 
Q 191 2463 602 2934 
Q 1013 3406 1594 3406 
z
M 2606 1688 
Q 2606 2309 2350 2609 
Q 2094 2909 1697 2909 
Q 1103 2909 884 2353 
Q 769 2056 769 1575 
Q 769 1009 998 714 
Q 1228 419 1616 419 
Q 2222 419 2469 966 
Q 2606 1275 2606 1688 
z
M 1659 3428 
L 1659 3428 
z
" transform="scale(0.015625)"/>
      </defs>
      <use xlink:href="#Helvetica-62"/>
      <use xlink:href="#Helvetica-75" transform="translate(55.615234 0)"/>
      <use xlink:href="#Helvetica-72" transform="translate(111.230469 0)"/>
      <use xlink:href="#Helvetica-67" transform="translate(144.53125 0)"/>
      <use xlink:href="#Helvetica-6c" transform="translate(200.146484 0)"/>
      <use xlink:href="#Helvetica-61" transform="translate(222.363281 0)"/>
      <use xlink:href="#Helvetica-72" transform="translate(277.978516 0)"/>
      <use xlink:href="#Helvetica-79" transform="translate(311.279297 0)"/>
     </g>
    </g>
    <g id="line2d_71">
     <path d="M 772.851175 83.456177 
L 782.851175 83.456177 
L 792.851175 83.456177 
" style="fill: none; stroke: #2ca02c; stroke-width: 1.5; stroke-linecap: square"/>
     <g>
      <use xlink:href="#m6716543df2" x="782.851175" y="83.456177" style="fill: #2ca02c; stroke: #2ca02c"/>
     </g>
    </g>
    <g id="text_37">
     <!-- drug -->
     <g transform="translate(800.851175 86.956177) scale(0.1 -0.1)">
      <use xlink:href="#Helvetica-64"/>
      <use xlink:href="#Helvetica-72" transform="translate(55.615234 0)"/>
      <use xlink:href="#Helvetica-75" transform="translate(88.916016 0)"/>
      <use xlink:href="#Helvetica-67" transform="translate(144.53125 0)"/>
     </g>
    </g>
    <g id="line2d_72">
     <path d="M 772.851175 97.842115 
L 782.851175 97.842115 
L 792.851175 97.842115 
" style="fill: none; stroke: #d62728; stroke-width: 1.5; stroke-linecap: square"/>
     <g>
      <use xlink:href="#m3711f1e892" x="782.851175" y="97.842115" style="fill: #d62728; stroke: #d62728"/>
     </g>
    </g>
    <g id="text_38">
     <!-- fraud -->
     <g transform="translate(800.851175 101.342115) scale(0.1 -0.1)">
      <use xlink:href="#Helvetica-66"/>
      <use xlink:href="#Helvetica-72" transform="translate(27.783203 0)"/>
      <use xlink:href="#Helvetica-61" transform="translate(61.083984 0)"/>
      <use xlink:href="#Helvetica-75" transform="translate(116.699219 0)"/>
      <use xlink:href="#Helvetica-64" transform="translate(172.314453 0)"/>
     </g>
    </g>
    <g id="line2d_73">
     <path d="M 772.851175 112.099927 
L 782.851175 112.099927 
L 792.851175 112.099927 
" style="fill: none; stroke: #9467bd; stroke-width: 1.5; stroke-linecap: square"/>
     <g>
      <use xlink:href="#mfb69a7cb6c" x="782.851175" y="112.099927" style="fill: #9467bd; stroke: #9467bd"/>
     </g>
    </g>
    <g id="text_39">
     <!-- sex offenses -->
     <g transform="translate(800.851175 115.599927) scale(0.1 -0.1)">
      <defs>
       <path id="Helvetica-78" d="M 94 3347 
L 822 3347 
L 1591 2169 
L 2369 3347 
L 3053 3331 
L 1925 1716 
L 3103 0 
L 2384 0 
L 1553 1256 
L 747 0 
L 34 0 
L 1213 1716 
L 94 3347 
z
" transform="scale(0.015625)"/>
      </defs>
      <use xlink:href="#Helvetica-73"/>
      <use xlink:href="#Helvetica-65" transform="translate(50 0)"/>
      <use xlink:href="#Helvetica-78" transform="translate(105.615234 0)"/>
      <use xlink:href="#Helvetica-20" transform="translate(155.615234 0)"/>
      <use xlink:href="#Helvetica-6f" transform="translate(183.398438 0)"/>
      <use xlink:href="#Helvetica-66" transform="translate(239.013672 0)"/>
      <use xlink:href="#Helvetica-66" transform="translate(266.796875 0)"/>
      <use xlink:href="#Helvetica-65" transform="translate(294.580078 0)"/>
      <use xlink:href="#Helvetica-6e" transform="translate(350.195312 0)"/>
      <use xlink:href="#Helvetica-73" transform="translate(405.810547 0)"/>
      <use xlink:href="#Helvetica-65" transform="translate(455.810547 0)"/>
      <use xlink:href="#Helvetica-73" transform="translate(511.425781 0)"/>
     </g>
    </g>
    <g id="line2d_74">
     <path d="M 772.851175 126.35774 
L 782.851175 126.35774 
L 792.851175 126.35774 
" style="fill: none; stroke: #8c564b; stroke-width: 1.5; stroke-linecap: square"/>
     <g>
      <use xlink:href="#m52bcd90169" x="782.851175" y="126.35774" style="fill: #8c564b; stroke: #8c564b"/>
     </g>
    </g>
    <g id="text_40">
     <!-- traffic -->
     <g transform="translate(800.851175 129.85774) scale(0.1 -0.1)">
      <use xlink:href="#Helvetica-74"/>
      <use xlink:href="#Helvetica-72" transform="translate(27.783203 0)"/>
      <use xlink:href="#Helvetica-61" transform="translate(61.083984 0)"/>
      <use xlink:href="#Helvetica-66" transform="translate(116.699219 0)"/>
      <use xlink:href="#Helvetica-66" transform="translate(144.482422 0)"/>
      <use xlink:href="#Helvetica-69" transform="translate(172.265625 0)"/>
      <use xlink:href="#Helvetica-63" transform="translate(194.482422 0)"/>
     </g>
    </g>
    <g id="line2d_75">
     <path d="M 772.851175 140.615552 
L 782.851175 140.615552 
L 792.851175 140.615552 
" style="fill: none; stroke: #e377c2; stroke-width: 1.5; stroke-linecap: square"/>
     <g>
      <use xlink:href="#mbd31a64bfb" x="782.851175" y="140.615552" style="fill: #e377c2; stroke: #e377c2"/>
     </g>
    </g>
    <g id="text_41">
     <!-- vandalism -->
     <g transform="translate(800.851175 144.115552) scale(0.1 -0.1)">
      <defs>
       <path id="Helvetica-76" d="M 688 3347 
L 1581 622 
L 2516 3347 
L 3131 3347 
L 1869 0 
L 1269 0 
L 34 3347 
L 688 3347 
z
" transform="scale(0.015625)"/>
      </defs>
      <use xlink:href="#Helvetica-76"/>
      <use xlink:href="#Helvetica-61" transform="translate(50 0)"/>
      <use xlink:href="#Helvetica-6e" transform="translate(105.615234 0)"/>
      <use xlink:href="#Helvetica-64" transform="translate(161.230469 0)"/>
      <use xlink:href="#Helvetica-61" transform="translate(216.845703 0)"/>
      <use xlink:href="#Helvetica-6c" transform="translate(272.460938 0)"/>
      <use xlink:href="#Helvetica-69" transform="translate(294.677734 0)"/>
      <use xlink:href="#Helvetica-73" transform="translate(316.894531 0)"/>
      <use xlink:href="#Helvetica-6d" transform="translate(366.894531 0)"/>
     </g>
    </g>
    <g id="line2d_76">
     <path d="M 772.851175 154.873365 
L 782.851175 154.873365 
L 792.851175 154.873365 
" style="fill: none; stroke: #7f7f7f; stroke-width: 1.5; stroke-linecap: square"/>
     <g>
      <use xlink:href="#m227b5a13df" x="782.851175" y="154.873365" style="fill: #7f7f7f; stroke: #7f7f7f"/>
     </g>
    </g>
    <g id="text_42">
     <!-- weapons -->
     <g transform="translate(800.851175 158.373365) scale(0.1 -0.1)">
      <defs>
       <path id="Helvetica-77" d="M 672 3347 
L 1316 709 
L 1969 3347 
L 2600 3347 
L 3256 725 
L 3941 3347 
L 4503 3347 
L 3531 0 
L 2947 0 
L 2266 2591 
L 1606 0 
L 1022 0 
L 56 3347 
L 672 3347 
z
" transform="scale(0.015625)"/>
      </defs>
      <use xlink:href="#Helvetica-77"/>
      <use xlink:href="#Helvetica-65" transform="translate(72.216797 0)"/>
      <use xlink:href="#Helvetica-61" transform="translate(127.832031 0)"/>
      <use xlink:href="#Helvetica-70" transform="translate(183.447266 0)"/>
      <use xlink:href="#Helvetica-6f" transform="translate(239.0625 0)"/>
      <use xlink:href="#Helvetica-6e" transform="translate(294.677734 0)"/>
      <use xlink:href="#Helvetica-73" transform="translate(350.292969 0)"/>
     </g>
    </g>
   </g>
  </g>
 </g>
 <defs>
  <clipPath id="p9aff2e2d03">
   <rect x="62.06274" y="32.579615" width="692.929838" height="337.887364"/>
  </clipPath>
 </defs>
</svg>
